<?xml version="1.0" encoding="utf-8"?>
<!-- Generator: Adobe Illustrator 15.1.0, SVG Export Plug-In . SVG Version: 6.00 Build 0)  -->
<!DOCTYPE svg PUBLIC "-//W3C//DTD SVG 1.1//EN" "http://www.w3.org/Graphics/SVG/1.1/DTD/svg11.dtd">
<svg version="1.1" id="Layer_1" xmlns="http://www.w3.org/2000/svg" xmlns:xlink="http://www.w3.org/1999/xlink" x="0px" y="0px"
	 width="34.926px" height="142.731px" viewBox="0 0 34.926 142.731" enable-background="new 0 0 34.926 142.731"
	 xml:space="preserve">
<g>
	<g>
		<path fill="#F27A9F" d="M2.501,26.212c1.527-3.012,0.271-6.562,1.243-11.258c0.333-2.068,0.571-3.301,0.571-4.561
			C4.315,4.492,10.37,0.4,16.86,0.4c5.789,0,11.677,4.148,12.648,9.162c0,0,0.785,2.092,0.6,5.473
			c-0.187,3.381,0.189,7.975,1.814,11.178c2.125,4.188,1.391,5.75,0.57,7.562s-1.695,2.656-1.695,2.656L19.526,46.697h-6.221
			l-9.68-10.266c0,0-0.875-0.844-1.695-2.656S0.376,30.4,2.501,26.212z"/>
	</g>
	<g>
		<path fill="#005180" d="M19.682,47.097h-6.549L3.335,36.706c-0.024-0.023-0.927-0.905-1.769-2.766
			c-0.841-1.857-1.62-3.578,0.578-7.909c0.803-1.584,0.794-3.365,0.784-5.428c-0.008-1.686-0.018-3.597,0.424-5.729l0.139-0.854
			c0.256-1.557,0.424-2.586,0.424-3.625C3.915,3.974,10.635,0,16.86,0c6.072,0,12.045,4.344,13.041,9.486
			c0.016,0.024,0.794,2.146,0.606,5.571c-0.087,1.583-0.218,7.053,1.771,10.975c2.198,4.331,1.419,6.051,0.595,7.872
			c-0.858,1.897-1.761,2.779-1.799,2.816L19.682,47.097z M13.479,46.297h5.893l11.157-10.162l0,0c0,0,0.827-0.817,1.601-2.525
			c0.823-1.819,1.461-3.228-0.562-7.216c-2.08-4.1-1.947-9.748-1.857-11.381c0.178-3.244-0.567-5.291-0.575-5.311
			C28.188,4.847,22.575,0.8,16.86,0.8c-5.841,0-12.145,3.668-12.145,9.594c0,1.105-0.173,2.159-0.436,3.755l-0.142,0.869
			c-0.427,2.068-0.418,3.934-0.41,5.581c0.011,2.167,0.02,4.038-0.871,5.794c-2.023,3.988-1.386,5.397-0.579,7.18
			c0.79,1.745,1.618,2.562,1.626,2.57L13.479,46.297z"/>
	</g>
</g>
<g>
	<g>
		<path fill="#FEDEC1" d="M5.91,17.504c0.695,1.916,0.785,4.115-0.758,4.514c-2,0.516-0.84-2.26-1.016-3.238
			c-0.363-2.006-1.803-2.973-1.26-3.469C4.025,14.262,5.215,15.586,5.91,17.504z"/>
	</g>
	<g>
		<path fill="#005180" d="M4.714,22.481c-0.442,0-0.7-0.19-0.839-0.35C3.428,21.619,3.55,20.74,3.668,19.89
			c0.057-0.404,0.114-0.821,0.075-1.039c-0.169-0.933-0.586-1.619-0.922-2.169c-0.357-0.588-0.728-1.196-0.214-1.666
			c0.345-0.315,0.717-0.474,1.106-0.474c0.983,0,1.921,1.03,2.572,2.827c0.285,0.787,0.875,2.759,0.183,4.072
			c-0.26,0.493-0.68,0.827-1.217,0.965C5.057,22.456,4.876,22.481,4.714,22.481z M3.714,15.341c-0.184,0-0.375,0.089-0.567,0.265
			c0.004,0.077,0.209,0.413,0.358,0.659c0.351,0.576,0.83,1.364,1.025,2.443C4.592,19.052,4.528,19.512,4.461,20
			c-0.08,0.578-0.19,1.369,0.017,1.607c0.028,0.031,0.208,0.118,0.575,0.024c0.32-0.083,0.553-0.267,0.709-0.563
			c0.371-0.704,0.284-2.018-0.228-3.427C5.027,16.244,4.313,15.341,3.714,15.341z"/>
	</g>
</g>
<g>
	<g>
		<path fill="#FEDEC1" d="M28.061,17.18c-0.695,1.916-0.785,4.115,0.758,4.514c2,0.516,0.84-2.26,1.016-3.238
			c0.363-2.006,1.803-2.973,1.26-3.469C29.945,13.938,28.756,15.262,28.061,17.18z"/>
	</g>
	<g>
		<path fill="#005180" d="M29.257,22.157L29.257,22.157c-0.162,0-0.343-0.026-0.538-0.076c-0.537-0.138-0.957-0.472-1.217-0.965
			c-0.692-1.313-0.103-3.286,0.183-4.072c0.651-1.796,1.589-2.827,2.572-2.827c0.39,0,0.762,0.159,1.106,0.474
			c0.514,0.469,0.144,1.077-0.214,1.666c-0.336,0.551-0.753,1.236-0.922,2.17c-0.039,0.217,0.019,0.635,0.075,1.039
			c0.118,0.85,0.24,1.729-0.207,2.242C29.957,21.967,29.699,22.157,29.257,22.157z M30.257,15.017c-0.6,0-1.313,0.902-1.82,2.299
			c-0.512,1.409-0.599,2.723-0.228,3.427c0.156,0.296,0.389,0.48,0.709,0.563c0.131,0.034,0.244,0.05,0.339,0.05l0,0
			c0.171,0,0.218-0.054,0.236-0.075c0.207-0.238,0.097-1.029,0.017-1.607c-0.067-0.487-0.131-0.947-0.069-1.291
			c0.195-1.08,0.675-1.868,1.025-2.444c0.149-0.246,0.354-0.582,0.349-0.687C30.632,15.106,30.44,15.017,30.257,15.017z"/>
	</g>
</g>
<g>
	<g>
		<polygon fill="#005180" points="30.306,45.855 32.634,63.882 30.247,62.308 26.384,44.767 		"/>
	</g>
	<g>
		<path fill="#005180" d="M33.143,64.697l-3.251-2.144l-4.041-18.349l4.817,1.336L33.143,64.697z M30.603,62.063l1.522,1.004
			l-2.182-16.898l-3.026-0.839L30.603,62.063z"/>
	</g>
</g>
<g>
	<g>
		<polygon fill="#005180" points="4.336,45.326 1.988,64.414 4.394,62.869 8.475,45.376 		"/>
	</g>
	<g>
		<path fill="#005180" d="M1.487,65.211l2.495-20.29l4.995,0.061L4.746,63.118L1.487,65.211z M4.689,45.73l-2.2,17.886l1.552-0.997
			l3.931-16.849L4.689,45.73z"/>
	</g>
</g>
<g>
	<g>
		<path fill="#FFFFFF" stroke="#005180" stroke-width="0.8" stroke-miterlimit="10" d="M29.509,64.814"/>
	</g>
</g>
<g>
	<g>
		<path fill="#FFFFFF" stroke="#005180" stroke-width="0.8" stroke-miterlimit="10" d="M5.859,66.001"/>
	</g>
</g>
<g>
	<g>
		<path fill="#FEDEC1" d="M0.433,78.255c-0.03,0.482-0.098,3.232,0.303,3.568l4.113,1.141c0.565-0.275,0.326-1.904,0.36-2.357
			L3.688,76.96l1.085-12.457c0.03-0.48-0.297-2.67-0.779-2.701l0,0c-0.481-0.031-1.943,0.29-1.975,0.773l-0.16,7.088l0.358,7.455
			L0.433,78.255z"/>
	</g>
	<g>
		<path fill="#005180" d="M4.888,83.39l-4.409-1.26c-0.647-0.544-0.454-3.764-0.445-3.9l0.013-0.203l1.761-1.121L1.46,69.683
			l0.16-7.116C1.681,61.614,3.632,61.4,3.924,61.4c1.128,0.069,1.251,3.098,1.249,3.128L4.096,76.896l1.52,3.645l-0.008,0.096
			c-0.007,0.095,0.001,0.246,0.008,0.427c0.033,0.816,0.078,1.934-0.592,2.26L4.888,83.39z M0.985,81.478l3.749,1.039
			c0.084-0.197,0.112-0.674,0.082-1.422C4.81,80.933,4.805,80.79,4.806,80.68l-1.524-3.656l1.094-12.555
			c0.028-0.458-0.247-1.936-0.482-2.266c-0.548,0.021-1.369,0.273-1.488,0.452L2.26,69.673l0.369,7.658l-1.808,1.15
			C0.781,79.418,0.82,81.048,0.985,81.478z"/>
	</g>
</g>
<g>
	<g>
		<circle fill="#FEDEC1" cx="4.805" cy="78.376" r="1.461"/>
	</g>
	<g>
		<path fill="#005180" d="M4.805,80.237c-1.026,0-1.861-0.835-1.861-1.861s0.835-1.861,1.861-1.861s1.861,0.835,1.861,1.861
			S5.831,80.237,4.805,80.237z M4.805,77.315c-0.585,0-1.061,0.476-1.061,1.061s0.476,1.061,1.061,1.061s1.061-0.476,1.061-1.061
			S5.39,77.315,4.805,77.315z"/>
	</g>
</g>
<g>
	<g>
		<path fill="#FEDEC1" d="M29.509,78.497c0,0.482,0.107,3.23,0.529,3.541l4.178,0.875c0.546-0.311,0.204-1.92,0.209-2.375
			l-1.75-3.541l0.287-12.5c0-0.482-0.465-2.646-0.948-2.646l0,0c-0.483,0-1.923,0.414-1.923,0.896l0.293,7.084l0.832,7.416
			L29.509,78.497z"/>
	</g>
	<g>
		<path fill="#005180" d="M34.282,83.336l-4.481-0.976c-0.684-0.504-0.692-3.83-0.692-3.863v-0.203l1.684-1.232l-0.806-7.186
			l-0.295-7.112c-0.001-0.956,1.978-1.313,2.322-1.313c1.035,0,1.349,3.016,1.349,3.046l-0.285,12.411l1.749,3.538l-0.001,0.096
			c-0.001,0.096,0.016,0.246,0.034,0.425c0.085,0.813,0.201,1.926-0.445,2.294L34.282,83.336z M30.266,81.677l3.807,0.798
			c0.072-0.203,0.069-0.68-0.009-1.425c-0.017-0.161-0.03-0.303-0.036-0.413l-1.755-3.551l0.003-0.098l0.287-12.5
			c-0.001-0.46-0.371-1.925-0.627-2.234c-0.443,0.036-1.338,0.345-1.456,0.548l0.304,7.012l0.856,7.618l-1.729,1.266
			C29.93,79.635,30.072,81.259,30.266,81.677z"/>
	</g>
</g>
<g>
	<g>
		<g>
			<path fill="#005180" d="M25.442,41.582c-0.725-0.391-1.492-0.533-2.178-0.475c-1.414-3.01-10.937-3.312-12.26-0.23
				c-0.682-0.055-1.439,0.09-2.158,0.475c-1.602,0.859-5.099,3.123-4.452,4.33c0.439,0.818,5.307,8.512,6.494,14
				c0.2,0.922,0.226,3.75,0.042,4.918c-0.057,0.357-0.454,1.35-1.029,2.662l7.364,1.217l7.007-1.471
				c-0.57-1.193-0.939-2.121-0.967-2.574c-0.143-2.266,0.086-3.752,0.291-4.752c1.453-7.098,6.281-13.031,6.709-13.826
				C30.952,44.65,27.045,42.441,25.442,41.582z"/>
		</g>
		<g>
			<path fill="#005180" d="M17.274,68.885l-7.946-1.313l0.207-0.471c0.81-1.848,0.975-2.4,1-2.564
				c0.177-1.121,0.155-3.886-0.037-4.771c-1.021-4.715-4.823-11.13-6.072-13.238c-0.191-0.324-0.325-0.55-0.384-0.658
				c-0.969-1.809,4.041-4.564,4.615-4.872c0.664-0.355,1.354-0.522,2.107-0.533c0.919-1.588,3.648-2.163,5.979-2.163
				c2.683,0,5.736,0.742,6.752,2.392c0.723-0.029,1.466,0.173,2.136,0.535c1.369,0.734,2.487,1.419,3.323,2.038
				c0.565,0.418,2.286,1.689,1.703,2.777c-0.072,0.135-0.263,0.41-0.54,0.805c-1.347,1.924-4.927,7.036-6.13,12.912
				c-0.205,1.001-0.423,2.434-0.283,4.647c0.013,0.208,0.149,0.797,0.929,2.427l0.219,0.459L17.274,68.885z M10.473,66.95
				l6.784,1.121l6.438-1.352c-0.668-1.453-0.772-1.986-0.789-2.263c-0.145-2.307,0.083-3.807,0.299-4.856
				c1.236-6.038,4.885-11.249,6.258-13.21c0.251-0.357,0.425-0.604,0.49-0.725c0.118-0.22-0.197-0.812-1.474-1.755
				c-0.805-0.595-1.891-1.26-3.227-1.976c-0.616-0.333-1.31-0.483-1.954-0.429l-0.277,0.024l-0.119-0.252
				c-0.592-1.26-3.182-2.174-6.158-2.174c-2.717,0-4.876,0.776-5.372,1.931l-0.113,0.264l-0.286-0.023
				c-0.63-0.054-1.322,0.099-1.938,0.428c-2.316,1.243-4.643,3.127-4.288,3.789c0.056,0.103,0.184,0.319,0.367,0.628
				c1.266,2.135,5.118,8.634,6.165,13.476c0.21,0.967,0.236,3.854,0.047,5.064C11.292,64.875,11.163,65.345,10.473,66.95z"/>
		</g>
	</g>
</g>
<g>
	<g>
		<circle fill="#FEDEC1" cx="30.108" cy="78.376" r="1.461"/>
	</g>
	<g>
		<path fill="#005180" d="M30.108,80.237c-1.026,0-1.861-0.835-1.861-1.861s0.835-1.861,1.861-1.861s1.861,0.835,1.861,1.861
			S31.135,80.237,30.108,80.237z M30.108,77.315c-0.585,0-1.061,0.476-1.061,1.061s0.476,1.061,1.061,1.061s1.061-0.476,1.061-1.061
			S30.693,77.315,30.108,77.315z"/>
	</g>
</g>
<g>
	<g>
		<path fill="#2EB4E8" d="M24.272,67.007l-7.007,1.471l-7.569-1.25c-0.35,0.775-1.558,1.834-1.558,5.154
			c0,5.957,8.669,69.767,8.669,69.767V78.376H18l0.639,63.773c0,0,7.383-61.273,7.745-69.767
			C26.486,69.978,24.741,67.915,24.272,67.007z"/>
	</g>
	<g>
		<path fill="#005180" d="M16.411,142.203c-0.354-2.606-8.673-63.905-8.673-69.821c0-2.755,0.822-4.059,1.314-4.838
			c0.114-0.182,0.214-0.336,0.279-0.481l0.126-0.28l7.799,1.288l7.231-1.518l0.14,0.271c0.093,0.179,0.237,0.405,0.408,0.671
			c0.686,1.074,1.834,2.871,1.747,4.905c-0.358,8.412-7.674,69.185-7.747,69.798l-0.798-0.044l-0.635-63.377h-0.396v63.373
			L16.411,142.203z M9.915,67.669c-0.056,0.095-0.118,0.194-0.187,0.302c-0.474,0.751-1.189,1.887-1.189,4.411
			c0,4.789,5.726,47.856,7.868,63.809V77.976h1.989l0.58,57.981c1.877-15.755,6.719-56.811,7.008-63.592
			c0.076-1.782-0.946-3.381-1.623-4.44c-0.109-0.171-0.209-0.327-0.293-0.466l-6.794,1.426L9.915,67.669z"/>
	</g>
</g>
<g>
	<g>
		<polygon fill="#005180" points="21.933,111.132 18.327,111.132 18.972,134.892 		"/>
	</g>
	<g>
		<path fill="#005180" d="M19.368,134.941l-0.796-0.039l-0.656-24.171h4.47L19.368,134.941z M18.738,111.532l0.49,18.066
			l2.251-18.066H18.738z"/>
	</g>
</g>
<g>
	<g>
		<polygon fill="#005180" points="13.202,111.132 16.808,111.132 16.163,134.892 		"/>
	</g>
	<g>
		<path fill="#005180" d="M15.767,134.941l-3.018-24.21h4.47l-0.656,24.171L15.767,134.941z M13.655,111.532l2.251,18.066
			l0.49-18.066H13.655z"/>
	</g>
</g>
<g>
	<g>
		<path fill="#FEDEC1" d="M9.696,30.634l7.129-0.354v-0.016l0.16,0.008l0.158-0.008v0.016l7.129,0.354c0,0-2.654,3.715-2.666,4.756
			c-0.01,1.041,1.207,5.061,1.207,5.061l-5.602,8.773l-5.789-7.961c0,0,0.95-4.832,0.939-5.873S9.696,30.634,9.696,30.634z"/>
	</g>
	<g>
		<path fill="#005180" d="M17.233,49.934l-6.236-8.576l0.033-0.171c0.262-1.333,0.94-4.972,0.932-5.792
			c-0.006-0.631-1.519-3.027-2.591-4.527l-0.426-0.596l7.479-0.41l0.58,0.013l0.539-0.029V29.9l7.479,0.371l-0.426,0.596
			c-1.071,1.5-2.584,3.897-2.591,4.528c-0.008,0.803,0.856,3.838,1.189,4.94l0.054,0.176L17.233,49.934z M11.849,41.169l5.342,7.346
			l5.188-8.125c-0.256-0.856-1.181-4.025-1.172-5.004c0.011-0.904,1.518-3.215,2.323-4.388l-6.586-0.327l-0.099,0.009l-6.405,0.318
			c0.807,1.173,2.313,3.484,2.323,4.388C12.772,36.354,12.021,40.283,11.849,41.169z"/>
	</g>
</g>
<g>
	<g>
		<path fill="#FEDEC1" d="M5.61,19.681c0,9.25,8.875,16.75,11.5,16.75c2.75,0,11.5-7.5,11.5-16.75c0-14.281-5.149-16.75-11.5-16.75
			C10.759,2.931,5.61,4.025,5.61,19.681z"/>
	</g>
	<g>
		<path fill="#005180" d="M17.11,36.831c-2.915,0-11.9-7.716-11.9-17.15c0-15.859,5.39-17.15,11.9-17.15
			c6.181,0,11.9,2.078,11.9,17.15C29.011,29.115,20.025,36.831,17.11,36.831z M17.11,3.331c-6.289,0-11.1,1.204-11.1,16.35
			c0,9.201,8.854,16.35,11.1,16.35c2.639,0,11.1-7.542,11.1-16.35C28.21,5.312,22.875,3.331,17.11,3.331z"/>
	</g>
</g>
<g>
	<g>
		<circle fill="#FFFFFF" cx="22.745" cy="16.744" r="2.938"/>
	</g>
	<g>
		<path fill="#005180" d="M22.745,20.081c-1.84,0-3.338-1.497-3.338-3.337s1.498-3.337,3.338-3.337s3.338,1.497,3.338,3.337
			S24.585,20.081,22.745,20.081z M22.745,14.206c-1.399,0-2.537,1.138-2.537,2.538s1.138,2.538,2.537,2.538s2.537-1.138,2.537-2.538
			S24.145,14.206,22.745,14.206z"/>
	</g>
</g>
<g>
	<g>
		<circle fill="#FFFFFF" cx="11.677" cy="16.744" r="2.938"/>
	</g>
	<g>
		<path fill="#005180" d="M11.677,20.081c-1.84,0-3.338-1.497-3.338-3.337s1.498-3.337,3.338-3.337s3.338,1.497,3.338,3.337
			S13.517,20.081,11.677,20.081z M11.677,14.206c-1.399,0-2.537,1.138-2.537,2.538s1.138,2.538,2.537,2.538s2.537-1.138,2.537-2.538
			S13.076,14.206,11.677,14.206z"/>
	</g>
</g>
<g>
	<g>
		<circle fill="#005180" cx="21.626" cy="16.744" r="1.818"/>
	</g>
	<g>
		<path fill="#005180" d="M21.626,18.962c-1.224,0-2.219-0.995-2.219-2.218s0.995-2.218,2.219-2.218s2.219,0.995,2.219,2.218
			S22.85,18.962,21.626,18.962z M21.626,15.325c-0.782,0-1.418,0.636-1.418,1.418s0.636,1.418,1.418,1.418s1.418-0.636,1.418-1.418
			S22.408,15.325,21.626,15.325z"/>
	</g>
</g>
<g>
	<g>
		<circle fill="#005180" cx="10.478" cy="16.744" r="1.738"/>
	</g>
	<g>
		<path fill="#005180" d="M10.478,18.882c-1.179,0-2.139-0.959-2.139-2.138s0.96-2.138,2.139-2.138s2.139,0.959,2.139,2.138
			S11.656,18.882,10.478,18.882z M10.478,15.405c-0.738,0-1.338,0.601-1.338,1.338s0.6,1.338,1.338,1.338s1.338-0.601,1.338-1.338
			S11.216,15.405,10.478,15.405z"/>
	</g>
</g>
<g>
	<g>
		<path fill="#005180" d="M17.151,23.341c-0.808,0-1.441-0.797-1.441-1.816h0.801c0,0.541,0.299,1.016,0.641,1.016
			s0.642-0.475,0.642-1.016h0.801C18.594,22.543,17.96,23.341,17.151,23.341z"/>
	</g>
</g>
<g>
	<g>
		<path fill="#B398BF" d="M14.29,27.861c2.216-1.1,2.216-0.271,2.82-0.244c0.646,0.027-1-1.312,2.903,0.244H14.29z"/>
	</g>
	<g>
		<path fill="#005180" d="M20.033,28.261c-0.005,0-0.013,0-0.02,0H14.29c-0.186,0-0.347-0.128-0.39-0.309
			c-0.042-0.181,0.046-0.367,0.212-0.45c0.839-0.417,1.457-0.61,1.944-0.61c0.406,0,0.655,0.134,0.838,0.233
			c0.005,0.002,0.01,0.005,0.015,0.008c0.022-0.079,0.062-0.159,0.13-0.231c0.122-0.129,0.299-0.195,0.527-0.195
			c0.291,0,0.844,0.087,2.541,0.761c0.186,0.034,0.326,0.197,0.326,0.393C20.434,28.082,20.255,28.261,20.033,28.261z"/>
	</g>
</g>
<g>
	<g>
		<path fill="#B398BF" d="M19.526,28.662c-0.562,1.01-1.18,0.506-2.416,0.506c-1.238,0-1.771,0.504-2.334-0.506H19.526z"/>
	</g>
	<g>
		<path fill="#005180" d="M18.57,29.693c-0.183,0-0.383-0.025-0.607-0.055c-0.495-0.066-1.223-0.064-1.698,0.001
			c-0.903,0.127-1.415-0.024-1.838-0.783c-0.068-0.124-0.067-0.275,0.005-0.397c0.071-0.122,0.203-0.197,0.345-0.197h4.75
			c0.142,0,0.273,0.075,0.345,0.197c0.072,0.122,0.073,0.273,0.005,0.397C19.554,29.435,19.15,29.693,18.57,29.693z"/>
	</g>
</g>
<g>
	<g>
		<polygon fill="#AD6959" points="25.86,11.947 19.63,12.353 25.153,12.589 		"/>
	</g>
	<g>
		<polygon fill="#005180" points="25.301,12.996 19.612,12.752 19.604,11.954 26.977,11.473 		"/>
	</g>
</g>
<g>
	<g>
		<polygon fill="#AD6959" points="8.578,11.89 14.775,12.646 9.247,12.573 		"/>
	</g>
	<g>
		<polygon fill="#005180" points="14.771,13.046 9.077,12.971 7.493,11.355 14.824,12.249 		"/>
	</g>
</g>
<g>
	<g>
		<path fill="#F27A9F" d="M4.684,8.122C5.873,3.326,10.669,0.4,16.902,0.4c5.783,0,10.669,3.24,12.384,7.722h-1.125l0.482,1.41
			c0,0,0,0.395-3.613,0.526c-1.602,0.057-5.245,0.794-9.418,0.924l0.335-2.86l-2.419,2.862c-0.352,0.004-0.457,0-0.795-0.007
			c-4.348-0.082-7.295-1.183-7.295-1.183S5.45,9.072,5.587,8.122H4.684z"/>
	</g>
	<g>
		<path fill="#005180" d="M15.161,11.396l0.234-2.002l-1.68,1.988l-0.431,0.003l-0.56-0.008c-4.365-0.083-7.304-1.162-7.427-1.208
			L5.034,10.07l0.004-0.282c0.001-0.025,0.01-0.538,0.094-1.267h-0.96l0.123-0.496C5.523,3.075,10.354,0,16.902,0
			c5.805,0,10.932,3.206,12.758,7.979l0.207,0.543h-1.146l0.323,1.01c0,0.311,0,0.78-3.999,0.926
			c-0.586,0.021-1.46,0.136-2.567,0.283c-1.787,0.236-4.235,0.56-6.853,0.641L15.161,11.396z M5.851,9.512
			c0.817,0.262,3.409,1,6.891,1.065l0.544,0.008l0.057,0l3.157-3.736l-0.436,3.716c2.403-0.102,4.646-0.397,6.31-0.618
			c1.128-0.149,2.02-0.267,2.644-0.289c1.984-0.072,2.81-0.223,3.14-0.315l-0.555-1.621h1.085C26.807,3.558,22.152,0.8,16.902,0.8
			C10.966,0.8,6.541,3.438,5.21,7.722h0.839L5.982,8.179C5.902,8.739,5.866,9.222,5.851,9.512z"/>
	</g>
</g>
<g opacity="0.07">
	<g>
		<path d="M17.502,1.001c-0.188-0.007-0.375-0.02-0.565-0.02c-0.009,0-0.017,0.001-0.025,0.001c-0.005,0-0.011-0.001-0.017-0.001
			c-0.043,0-0.086,0.005-0.13,0.005C11.117,1.037,6.684,3.5,5.084,7.583C4.619,8.625,4.35,9.759,4.35,10.976
			c0,1.258-0.237,2.488-0.569,4.55c-0.286-0.01-0.579,0.103-0.869,0.367c-0.343,0.312,0.104,0.814,0.57,1.645
			c-0.361,3.727,0.356,6.689-0.946,9.257c-2.125,4.188-1.391,5.75-0.57,7.562s1.695,2.656,1.695,2.656l4.839,5.132
			c-1.597,0.91-4.28,2.733-4.144,3.883L2.287,62.847c-0.135,0.093-0.227,0.196-0.233,0.311l-0.16,7.088L2.252,77.7l-1.785,1.137
			c-0.03,0.482-0.098,3.232,0.303,3.568l4.113,1.141c0.565-0.275,0.326-1.904,0.36-2.357l-0.324-0.777
			C5.688,80.368,6.3,79.737,6.3,78.958c0-0.807-0.654-1.461-1.461-1.461c-0.377,0-0.717,0.146-0.976,0.381l-0.141-0.336
			l1.085-12.457c0.019-0.298-0.101-1.252-0.308-1.942l2.769-11.869c1.456,2.757,3.043,6.162,3.654,8.989
			c0.2,0.922,0.226,3.75,0.042,4.918c-0.057,0.357-0.454,1.35-1.029,2.662L9.73,67.81c-0.35,0.775-1.558,1.834-1.558,5.154
			c0,5.957,8.669,69.768,8.669,69.768V78.958h0.66V1.001z"/>
	</g>
</g>
</svg>
