<?xml version="1.0" encoding="utf-8"?>
<!-- Generator: Adobe Illustrator 15.1.0, SVG Export Plug-In . SVG Version: 6.00 Build 0)  -->
<!DOCTYPE svg PUBLIC "-//W3C//DTD SVG 1.1//EN" "http://www.w3.org/Graphics/SVG/1.1/DTD/svg11.dtd">
<svg version="1.1" id="Layer_1" xmlns="http://www.w3.org/2000/svg" xmlns:xlink="http://www.w3.org/1999/xlink" x="0px" y="0px"
	 width="48.38px" height="151.604px" viewBox="0 0 48.38 151.604" enable-background="new 0 0 48.38 151.604" xml:space="preserve">
<g>
	<g>
		<path fill="#FED7AD" d="M14.164,17.348c0.358,2.432-0.104,4.909-2.109,4.67c-2.593-0.309-0.443-2.877-0.406-4.037
			c0.077-2.387-1.443-4.095-0.646-4.404C12.688,12.92,13.807,14.913,14.164,17.348z"/>
	</g>
	<g>
		<path fill="#005180" d="M12.316,22.434c-0.1,0-0.202-0.006-0.309-0.019c-0.71-0.084-1.196-0.341-1.444-0.764
			c-0.429-0.73-0.029-1.704,0.324-2.563c0.173-0.422,0.353-0.859,0.361-1.12c0.037-1.124-0.302-2.078-0.574-2.845
			c-0.283-0.799-0.576-1.625,0.182-1.919c1.728-0.669,3.25,1.003,3.703,4.086c0.137,0.933,0.344,3.234-0.705,4.449
			C13.462,22.194,12.93,22.434,12.316,22.434z M11.635,13.85c-0.154,0-0.318,0.033-0.488,0.099
			c-0.009,0.087,0.159,0.561,0.282,0.907c0.279,0.787,0.661,1.864,0.62,3.138c-0.013,0.405-0.211,0.888-0.421,1.398
			c-0.269,0.653-0.602,1.465-0.374,1.854c0.115,0.196,0.4,0.322,0.849,0.375c0.489,0.059,0.862-0.074,1.147-0.405
			c0.569-0.659,0.768-2.119,0.519-3.81C13.508,15.636,12.748,13.85,11.635,13.85z"/>
	</g>
</g>
<g>
	<g>
		<polygon fill="#FED7AD" points="5.971,50 2.897,73.792 6.048,71.713 11.146,48.564 		"/>
	</g>
	<g>
		<path fill="#005180" d="M2.389,74.606l3.219-24.921l6.072-1.684L6.404,71.958L2.389,74.606z M6.333,50.314L3.406,72.977
			l2.286-1.508l4.921-22.342L6.333,50.314z"/>
	</g>
</g>
<g>
	<g>
		<path fill="#FED7AD" d="M7.022,93.081c0,0.637-0.142,4.264-0.699,4.674L0.81,98.909c-0.72-0.41-0.269-2.535-0.275-3.135
			l2.31-4.674L2.465,74.604c0-0.637,0.613-3.493,1.251-3.493l0,0c0.639,0,2.538,0.546,2.538,1.183l-0.387,9.35L4.77,91.431
			L7.022,93.081z"/>
	</g>
	<g>
		<path fill="#005180" d="M0.743,99.332l-0.132-0.075c-0.78-0.444-0.632-1.865-0.524-2.902c0.025-0.242,0.048-0.447,0.047-0.575
			l-0.001-0.096l2.308-4.672L2.065,74.613c0-0.264,0.483-3.902,1.651-3.902c0.582,0,2.938,0.509,2.938,1.583L6.267,81.66
			l-1.074,9.585l2.229,1.633v0.203c0,0.044-0.023,4.379-0.862,4.996l-0.155,0.069L0.743,99.332z M0.932,95.872
			c-0.006,0.146-0.025,0.342-0.049,0.565c-0.045,0.434-0.174,1.67,0.043,2.038l5.191-1.086c0.274-0.456,0.482-2.806,0.503-4.107
			l-2.274-1.666L5.47,81.599l0.384-9.322c-0.099-0.25-1.479-0.766-2.138-0.766c-0.279,0.21-0.851,2.416-0.851,3.093l0.381,16.585
			L0.932,95.872z"/>
	</g>
</g>
<g>
	<g>
		<circle fill="#FED7AD" cx="6.231" cy="92.921" r="1.928"/>
	</g>
	<g>
		<path fill="#005180" d="M6.231,95.249c-1.284,0-2.329-1.045-2.329-2.328s1.044-2.328,2.329-2.328c1.284,0,2.328,1.045,2.328,2.328
			S7.515,95.249,6.231,95.249z M6.231,91.394c-0.843,0-1.529,0.685-1.529,1.527s0.686,1.527,1.529,1.527
			c0.842,0,1.528-0.685,1.528-1.527S7.074,91.394,6.231,91.394z"/>
	</g>
</g>
<g>
	<g>
		<polygon fill="#FED7AD" points="42.409,47.887 45.482,71.679 42.332,69.602 37.233,46.452 		"/>
	</g>
	<g>
		<path fill="#005180" d="M45.991,72.494l-4.015-2.647L36.7,45.889l6.072,1.684L45.991,72.494z M42.688,69.357l2.286,1.507
			l-2.928-22.663l-4.279-1.187L42.688,69.357z"/>
	</g>
</g>
<g>
	<g>
		<path fill="#FED7AD" d="M41.357,90.968c0,0.637,0.142,4.264,0.699,4.674l5.514,1.154c0.72-0.41,0.269-2.533,0.275-3.135
			l-2.31-4.672l0.379-16.499c0-0.637-0.613-3.492-1.251-3.492l0,0c-0.639,0-2.538,0.547-2.538,1.184l0.387,9.349l1.098,9.789
			L41.357,90.968z"/>
	</g>
	<g>
		<path fill="#005180" d="M47.637,97.219l-5.817-1.255c-0.839-0.617-0.862-4.952-0.862-4.996v-0.203l2.229-1.631l-1.072-9.559
			l-0.389-9.376c0-1.091,2.356-1.6,2.938-1.6c1.168,0,1.651,3.637,1.651,3.892L45.938,88.9l2.308,4.669l-0.001,0.097
			c-0.001,0.129,0.021,0.334,0.047,0.577c0.108,1.036,0.255,2.456-0.524,2.9L47.637,97.219z M42.269,95.277l5.185,1.085
			c0.217-0.368,0.089-1.603,0.043-2.036c-0.023-0.225-0.043-0.421-0.049-0.567l-2.314-4.681l0.381-16.597
			c0-0.668-0.572-2.873-0.922-3.099c-0.587,0.016-1.968,0.533-2.069,0.817l0.388,9.314l1.122,9.991l-2.274,1.665
			C41.78,92.464,41.986,94.794,42.269,95.277z"/>
	</g>
</g>
<g>
	<g>
		<circle fill="#FED7AD" cx="42.149" cy="90.808" r="1.928"/>
	</g>
	<g>
		<path fill="#005180" d="M42.148,93.138c-1.284,0-2.328-1.046-2.328-2.33c0-1.283,1.044-2.328,2.328-2.328
			c1.284,0,2.329,1.045,2.329,2.328C44.477,92.092,43.433,93.138,42.148,93.138z M42.148,89.28c-0.842,0-1.528,0.685-1.528,1.527
			c0,0.844,0.686,1.529,1.528,1.529c0.843,0,1.529-0.686,1.529-1.529C43.677,89.965,42.991,89.28,42.148,89.28z"/>
	</g>
</g>
<g>
	<g>
		<path fill="#FED7AD" d="M35.084,17.348c-0.358,2.432,0.104,4.909,2.109,4.67c2.593-0.309,0.443-2.877,0.406-4.037
			c-0.077-2.387,1.443-4.095,0.646-4.404C36.561,12.92,35.441,14.913,35.084,17.348z"/>
	</g>
	<g>
		<path fill="#005180" d="M36.932,22.434L36.932,22.434c-0.614,0-1.146-0.241-1.539-0.696c-1.048-1.214-0.842-3.516-0.704-4.448
			c0.452-3.083,1.977-4.756,3.703-4.086c0.758,0.294,0.465,1.12,0.182,1.919c-0.271,0.767-0.61,1.722-0.574,2.845
			c0.008,0.26,0.188,0.697,0.361,1.12c0.353,0.859,0.753,1.833,0.324,2.563c-0.249,0.423-0.734,0.68-1.444,0.764
			C37.134,22.428,37.031,22.434,36.932,22.434z M37.613,13.85c-1.113,0-1.874,1.786-2.133,3.556c-0.25,1.691-0.051,3.15,0.518,3.81
			c0.286,0.331,0.658,0.462,1.148,0.405c0.449-0.054,0.734-0.18,0.849-0.375c0.228-0.388-0.105-1.201-0.374-1.854
			c-0.21-0.511-0.408-0.993-0.421-1.398c-0.041-1.274,0.341-2.351,0.62-3.138c0.123-0.346,0.291-0.82,0.255-0.945
			C37.932,13.883,37.768,13.85,37.613,13.85z"/>
	</g>
</g>
<g>
	<g>
		<path fill="#005180" d="M36.749,94.925c-0.055-7.373-2.561-13.119-5.598-12.828c-1.459,0.135-2.771,1.646-3.738,3.99h-5.391
			c-1.025-2.588-2.482-4.146-4.095-3.99c-3.036,0.279-5.456,6.496-5.404,13.863l0.283,39.059c0.053,7.379,2.561,13.127,5.597,12.84
			c3.038-0.291,5.457-6.502,5.404-13.869l-0.279-38.666h2.228c-0.003,0.213-0.011,0.422-0.009,0.637l0.283,39.059
			c0.053,7.379,2.561,13.127,5.597,12.84c3.038-0.291,5.457-6.502,5.404-13.869L36.749,94.925z"/>
	</g>
	<g>
		<path fill="#005180" d="M31.41,148.269C31.41,148.269,31.41,148.269,31.41,148.269c-3.188-0.001-5.726-5.819-5.779-13.247
			l-0.283-39.059c-0.001-0.08,0-0.16,0.001-0.239h-1.417l0.276,38.263c0.055,7.688-2.478,13.955-5.766,14.271
			c-3.313,0.311-5.98-5.608-6.035-13.235l-0.283-39.059c-0.054-7.696,2.479-13.962,5.768-14.265c1.665-0.154,3.264,1.267,4.4,3.988
			h4.856c1.058-2.436,2.46-3.849,3.967-3.988c0.085-0.008,0.171-0.012,0.257-0.012c3.237,0,5.721,5.689,5.777,13.235l0.282,39.064
			c0.055,7.688-2.478,13.955-5.766,14.271C31.579,148.265,31.495,148.269,31.41,148.269z M23.125,94.923h3.036l-0.01,0.621
			c-0.003,0.137-0.006,0.273-0.005,0.412l0.283,39.06c0.049,6.866,2.283,12.452,4.979,12.453c0.03-0.024,0.12-0.003,0.18-0.009
			c2.783-0.267,5.092-6.434,5.042-13.468l-0.282-39.064c-0.052-7.015-2.378-12.687-5.16-12.433
			c-1.248,0.115-2.457,1.445-3.407,3.744l-0.102,0.248h-5.93l-0.1-0.253c-0.988-2.494-2.33-3.869-3.684-3.739
			c-2.784,0.256-5.092,6.421-5.043,13.462l0.283,39.059c0.05,7.02,2.378,12.718,5.159,12.444c2.783-0.267,5.092-6.434,5.042-13.468
			L23.125,94.923z"/>
	</g>
</g>
<g>
	<g>
		<path fill="#BFD852" d="M22.525,146.937c0,2.357-2.647,4.268-5.911,4.268c-3.266,0-5.914-1.129-5.914-1.129
			c0-2.355,2.648-7.406,5.914-7.406C19.878,142.669,22.525,144.579,22.525,146.937z"/>
	</g>
	<g>
		<path fill="#005180" d="M16.614,151.604c-3.309,0-5.959-1.114-6.071-1.161L10.3,150.34v-0.265c0-2.638,2.858-7.807,6.314-7.807
			c3.48,0,6.311,2.095,6.311,4.668S20.094,151.604,16.614,151.604z M11.111,149.806c0.729,0.271,2.932,0.998,5.503,0.998
			c3.039,0,5.511-1.734,5.511-3.867s-2.472-3.867-5.511-3.867C13.82,143.069,11.301,147.47,11.111,149.806z"/>
	</g>
</g>
<g>
	<g>
		<path fill="#BFD852" d="M27.037,146.937c0,2.357,2.647,4.268,5.911,4.268c3.266,0,5.914-1.129,5.914-1.129
			c0-2.355-2.648-7.406-5.914-7.406C29.685,142.669,27.037,144.579,27.037,146.937z"/>
	</g>
	<g>
		<path fill="#005180" d="M32.948,151.604c-3.48,0-6.311-2.095-6.311-4.668s2.831-4.668,6.311-4.668
			c3.456,0,6.314,5.169,6.314,7.807v0.265l-0.243,0.104C38.908,150.49,36.257,151.604,32.948,151.604z M32.948,143.069
			c-3.039,0-5.511,1.734-5.511,3.867s2.472,3.867,5.511,3.867c2.571,0,4.774-0.728,5.503-0.998
			C38.262,147.47,35.742,143.069,32.948,143.069z"/>
	</g>
</g>
<g>
	<g>
		<path fill="#BFD852" d="M44.78,51.981c0,0-0.25-2.564-2.75-6.206c-2.5-3.641-11.29-4.312-11.29-4.312s-0.602,0.111-0.96,0.111
			h-4.678H24.46h-4.678c-0.838,0-1.648,0.258-2.42,0.729c0,0-7.582,0.979-10.082,4.619c-2.5,3.642-2.5,5.787-2.5,5.787h6.879
			c-0.612,2.712-0.959,5.771-0.959,9.012l2.328,16.355c0,11.124,0.688,11.907,5.703,11.907l5.729,0.119v0.012l0.32-0.006
			l0.322,0.006v-0.012l5.729-0.119c5.016,0,5.703-0.783,5.703-11.907l2.328-16.355c0-3.58-0.423-6.938-1.16-9.852L44.78,51.981z"/>
	</g>
	<g>
		<path fill="#005180" d="M24.06,90.521v-0.027l-5.337-0.11c-5.467,0-6.095-1.266-6.095-12.307l-2.324-16.299
			c-0.004-3.062,0.286-5.959,0.858-8.668H4.38v-0.4c0-0.093,0.029-2.312,2.57-6.014c2.457-3.577,9.387-4.653,10.276-4.778
			c0.833-0.493,1.692-0.743,2.555-0.743h9.998c0.263,0,0.729-0.076,0.887-0.105l0.051-0.009l0.052,0.004
			c0.367,0.028,9.011,0.729,11.589,4.484c2.529,3.685,2.808,6.285,2.818,6.394l0.043,0.446l-7.008-0.11
			c0.687,2.904,1.048,6.157,1.048,9.443L36.93,78.133c0.004,10.985-0.624,12.251-6.099,12.251l-5.736,0.131l-0.322-0.006
			L24.06,90.521z M24.773,89.708l0.022,0.001l6.028-0.126c4.557,0,5.312-0.317,5.312-11.506l2.332-16.412
			c-0.004-3.357-0.401-6.73-1.152-9.697l-0.128-0.506l7.116,0.112c-0.189-0.87-0.793-2.937-2.602-5.572
			c-2.271-3.307-10.237-4.074-10.942-4.135c-0.162,0.028-0.65,0.108-0.979,0.108h-9.998c-0.739,0-1.483,0.226-2.211,0.67
			L17.414,42.7c-0.074,0.01-7.435,1-9.804,4.449c-1.776,2.587-2.254,4.399-2.383,5.161h6.933l-0.11,0.488
			c-0.63,2.79-0.949,5.792-0.949,8.924l2.324,16.299c0.004,11.245,0.759,11.562,5.307,11.562l6.029,0.126L24.773,89.708z"/>
	</g>
</g>
<g>
	<g>
		<path fill="#FED7AD" d="M17.363,31.579l7.129-0.354v-0.016l0.16,0.008l0.158-0.008v0.016l7.129,0.354c0,0-2.654,3.715-2.666,4.756
			c-0.01,1.041,1.207,5.061,1.207,5.061l-5.602,8.773l-5.789-7.961c0,0,0.95-4.832,0.939-5.873S17.363,31.579,17.363,31.579z"/>
	</g>
	<g>
		<path fill="#005180" d="M24.9,50.878l-6.237-8.576l0.034-0.171c0.262-1.333,0.94-4.972,0.932-5.792
			c-0.006-0.631-1.52-3.027-2.591-4.527l-0.426-0.596l7.48-0.41l0.58,0.013l0.539-0.029v0.055l7.48,0.371l-0.425,0.596
			c-1.072,1.5-2.584,3.897-2.592,4.528c-0.007,0.803,0.856,3.838,1.19,4.94l0.053,0.176L24.9,50.878z M19.516,42.113l5.342,7.346
			l5.187-8.125c-0.255-0.856-1.18-4.025-1.171-5.004c0.01-0.904,1.517-3.215,2.323-4.388l-6.586-0.327l-0.098,0.009l-6.406,0.318
			c0.807,1.173,2.313,3.484,2.323,4.388C20.439,37.298,19.688,41.227,19.516,42.113z"/>
	</g>
</g>
<g>
	<g>
		<path fill="#FED7AD" d="M13.277,20.625c0,9.25,8.875,16.75,11.5,16.75c2.75,0,11.5-7.5,11.5-16.75
			c0-14.281-5.146-18.264-11.497-18.264C19.947,2.362,13.277,4.969,13.277,20.625z"/>
	</g>
	<g>
		<path fill="#005180" d="M24.777,37.775c-2.916,0-11.9-7.716-11.9-17.15C12.877,5.2,19.35,1.962,24.78,1.962
			c8.005,0,11.897,6.105,11.897,18.664C36.677,30.059,27.693,37.775,24.777,37.775z M24.78,2.762
			c-7.264,0-11.103,6.177-11.103,17.864c0,9.201,8.854,16.35,11.1,16.35c2.639,0,11.1-7.542,11.1-16.35
			C35.877,8.605,32.248,2.762,24.78,2.762z"/>
	</g>
</g>
<g>
	<g>
		<g>
			<line fill="#7F0A20" x1="22.111" y1="28.313" x2="27.449" y2="27.849"/>
		</g>
	</g>
	<g>
		<g>
			<polygon fill="#005180" points="24.407,29.43 22.068,27.815 28.303,27.394 26.747,29.43 			"/>
		</g>
	</g>
</g>
<g>
	<g>
		<path fill="#005180" d="M24.653,24.951c-1.396,0-2-1.046-2.446-2.177c-0.171-0.437,0.115-0.78,0.392-1.113
			c0.397-0.476,0.997-1.196,1.027-2.719l0.8,0.016c-0.036,1.804-0.772,2.688-1.213,3.216c-0.102,0.123-0.242,0.291-0.258,0.352
			c0.413,1.013,0.825,1.626,1.698,1.626c0.751,0,1.322-0.556,1.696-1.653c-0.013-0.047-0.162-0.231-0.271-0.365
			c-0.427-0.527-1.143-1.41-1.196-3.171l0.8-0.024c0.045,1.492,0.607,2.186,1.018,2.692c0.287,0.354,0.558,0.688,0.406,1.128
			C26.616,24.192,25.768,24.951,24.653,24.951z"/>
	</g>
</g>
<g>
	<g>
		<ellipse fill="#FFFFFF" cx="19.42" cy="16.772" rx="2.841" ry="2.834"/>
	</g>
	<g>
		<path fill="#005180" d="M19.421,20.006c-1.788,0-3.242-1.451-3.242-3.234c0-1.784,1.454-3.235,3.242-3.235
			c1.787,0,3.241,1.451,3.241,3.235C22.662,18.555,21.208,20.006,19.421,20.006z M19.421,14.337c-1.346,0-2.442,1.092-2.442,2.435
			c0,1.342,1.096,2.434,2.442,2.434c1.346,0,2.441-1.092,2.441-2.434C21.862,15.429,20.767,14.337,19.421,14.337z"/>
	</g>
</g>
<g>
	<g>
		<g>
			<circle fill="#005180" cx="20.104" cy="17.743" r="1.308"/>
		</g>
		<g>
			<path fill="#005180" d="M20.104,19.447c-0.941,0-1.708-0.765-1.708-1.705s0.766-1.705,1.708-1.705s1.708,0.765,1.708,1.705
				S21.045,19.447,20.104,19.447z M20.104,16.838c-0.5,0-0.908,0.406-0.908,0.905s0.407,0.905,0.908,0.905s0.908-0.406,0.908-0.905
				S20.604,16.838,20.104,16.838z"/>
		</g>
	</g>
	<g>
		<g>
			<path fill="#005180" d="M20.104,19.547c-0.997,0-1.808-0.81-1.808-1.805s0.811-1.805,1.808-1.805s1.808,0.81,1.808,1.805
				S21.101,19.547,20.104,19.547z M20.104,16.938c-0.445,0-0.808,0.361-0.808,0.805s0.362,0.805,0.808,0.805
				s0.808-0.361,0.808-0.805S20.549,16.938,20.104,16.938z"/>
		</g>
		<g>
			<path fill="#005180" d="M20.104,19.947c-1.217,0-2.208-0.989-2.208-2.205s0.99-2.205,2.208-2.205s2.208,0.989,2.208,2.205
				S21.321,19.947,20.104,19.947z M20.104,16.338c-0.776,0-1.408,0.63-1.408,1.405s0.631,1.405,1.408,1.405s1.408-0.63,1.408-1.405
				S20.88,16.338,20.104,16.338z M20.104,18.947c-0.666,0-1.208-0.541-1.208-1.205s0.542-1.205,1.208-1.205s1.208,0.541,1.208,1.205
				S20.77,18.947,20.104,18.947z M20.104,17.338c-0.225,0-0.408,0.182-0.408,0.405s0.183,0.405,0.408,0.405s0.408-0.182,0.408-0.405
				S20.328,17.338,20.104,17.338z"/>
		</g>
	</g>
</g>
<g>
	<g>
		<ellipse fill="#FFFFFF" cx="29.42" cy="16.772" rx="2.841" ry="2.834"/>
	</g>
	<g>
		<path fill="#005180" d="M29.421,20.006c-1.788,0-3.242-1.451-3.242-3.234c0-1.784,1.454-3.235,3.242-3.235
			c1.787,0,3.241,1.451,3.241,3.235C32.662,18.555,31.208,20.006,29.421,20.006z M29.421,14.337c-1.346,0-2.442,1.092-2.442,2.435
			c0,1.342,1.096,2.434,2.442,2.434c1.346,0,2.441-1.092,2.441-2.434C31.862,15.429,30.767,14.337,29.421,14.337z"/>
	</g>
</g>
<g>
	<g>
		<g>
			<circle fill="#005180" cx="30.11" cy="17.743" r="1.308"/>
		</g>
		<g>
			<path fill="#005180" d="M30.11,19.447c-0.941,0-1.708-0.765-1.708-1.705s0.766-1.705,1.708-1.705s1.708,0.765,1.708,1.705
				S31.052,19.447,30.11,19.447z M30.11,16.838c-0.5,0-0.908,0.406-0.908,0.905s0.407,0.905,0.908,0.905s0.908-0.406,0.908-0.905
				S30.611,16.838,30.11,16.838z"/>
		</g>
	</g>
	<g>
		<g>
			<path fill="#005180" d="M30.11,19.547c-0.997,0-1.808-0.81-1.808-1.805s0.811-1.805,1.808-1.805s1.808,0.81,1.808,1.805
				S31.107,19.547,30.11,19.547z M30.11,16.938c-0.445,0-0.808,0.361-0.808,0.805s0.362,0.805,0.808,0.805s0.808-0.361,0.808-0.805
				S30.556,16.938,30.11,16.938z"/>
		</g>
		<g>
			<path fill="#005180" d="M30.11,19.947c-1.217,0-2.208-0.989-2.208-2.205s0.99-2.205,2.208-2.205s2.208,0.989,2.208,2.205
				S31.328,19.947,30.11,19.947z M30.11,16.338c-0.776,0-1.408,0.63-1.408,1.405s0.631,1.405,1.408,1.405s1.408-0.63,1.408-1.405
				S30.887,16.338,30.11,16.338z M30.11,18.947c-0.666,0-1.208-0.541-1.208-1.205s0.542-1.205,1.208-1.205s1.208,0.541,1.208,1.205
				S30.776,18.947,30.11,18.947z M30.11,17.338c-0.225,0-0.408,0.182-0.408,0.405s0.183,0.405,0.408,0.405s0.408-0.182,0.408-0.405
				S30.335,17.338,30.11,17.338z"/>
		</g>
	</g>
</g>
<g>
	<g>
		<path fill="#E39881" d="M12.522,13.937c0,0-1.08-5.784,0.17-7.659s6.197-6,11.286-5.875s11.884,3.156,12.299,6.766
			s0.448,7.084,0.448,7.084h-1.533c0,0-1.553-6.586-4.464-6.593s-4.36,1.618-6.948,1.493s-3.121-1.375-5.667-0.875
			s-3.671,1.375-3.921,2s-0.467,3.975-0.467,3.975L12.522,13.937z"/>
	</g>
	<g>
		<path fill="#005180" d="M14.093,14.762l-1.917-0.502l-0.046-0.25c-0.045-0.243-1.095-5.967,0.23-7.954
			C13.548,4.274,18.513,0,23.751,0l0.237,0.003c5.391,0.132,12.251,3.338,12.687,7.12c0.413,3.589,0.45,7.091,0.451,7.126
			l0.004,0.404h-2.253l-0.073-0.308c-0.413-1.746-1.949-6.28-4.076-6.285c-1.393,0-2.442,0.39-3.457,0.767
			c-1.049,0.39-2.137,0.797-3.51,0.726c-1.17-0.057-1.948-0.334-2.634-0.579c-0.893-0.318-1.695-0.548-2.936-0.303
			c-2.505,0.492-3.458,1.335-3.626,1.756c-0.165,0.412-0.357,2.582-0.439,3.852L14.093,14.762z M35.503,13.853h0.815
			c-0.023-1.017-0.112-3.801-0.438-6.638C35.5,3.91,29.013,0.927,23.969,0.803L23.751,0.8c-4.934,0-9.608,4.022-10.726,5.699
			c-0.905,1.357-0.452,5.38-0.154,7.115l0.489,0.128c0.074-1.021,0.246-3.076,0.461-3.614c0.385-0.962,1.961-1.801,4.215-2.244
			c0.428-0.084,0.818-0.125,1.193-0.125c0.876,0,1.503,0.224,2.166,0.46c0.665,0.237,1.353,0.482,2.405,0.533
			c1.197,0.059,2.17-0.297,3.193-0.677c1.081-0.401,2.199-0.816,3.718-0.816C33.565,7.266,35.143,12.498,35.503,13.853z"/>
	</g>
</g>
<g>
	<g>
		<polygon fill="#FED7AD" points="4.151,69.278 3.397,72.278 5.288,72.612 5.927,69.278 		"/>
	</g>
</g>
<g>
	<g>
		<polygon fill="#FED7AD" points="42.548,67.708 42.687,70.798 44.593,70.577 44.249,67.2 		"/>
	</g>
</g>
<g>
	<g>
		<path fill="#D7E4F5" d="M21.147,12.476c-0.027,0.261-0.263,0.476-0.525,0.479L16.865,13c-0.261,0.003-0.449-0.207-0.421-0.468l0,0
			c0.028-0.262,0.264-0.477,0.525-0.479l3.755-0.046C20.987,12.004,21.176,12.213,21.147,12.476L21.147,12.476z"/>
	</g>
	<g>
		<path fill="#005180" d="M16.86,13.399c-0.236,0-0.458-0.098-0.611-0.268c-0.154-0.171-0.228-0.406-0.202-0.643
			c0.05-0.465,0.454-0.832,0.92-0.835l3.753-0.046c0.247,0,0.471,0.098,0.624,0.268c0.154,0.171,0.228,0.406,0.202,0.644
			c-0.048,0.463-0.452,0.83-0.918,0.835L16.86,13.399z M20.75,12.435l-3.775,0.019c-0.06,0-0.126,0.062-0.133,0.122L16.86,13l0-0.4
			l3.757-0.045C20.677,12.554,20.744,12.493,20.75,12.435z"/>
	</g>
</g>
<g>
	<g>
		<path fill="#D7E4F5" d="M31.772,12.476c-0.028,0.261-0.264,0.476-0.525,0.479L27.489,13c-0.261,0.003-0.449-0.207-0.421-0.468l0,0
			c0.028-0.262,0.264-0.477,0.525-0.479l3.755-0.046C31.611,12.004,31.8,12.213,31.772,12.476L31.772,12.476z"/>
	</g>
	<g>
		<path fill="#005180" d="M27.484,13.399c-0.236,0-0.458-0.098-0.611-0.268c-0.154-0.171-0.228-0.406-0.202-0.643
			c0.05-0.465,0.454-0.832,0.92-0.835l3.753-0.046c0.25,0,0.468,0.095,0.623,0.267c0.154,0.171,0.228,0.405,0.204,0.643
			c-0.051,0.465-0.454,0.832-0.919,0.837L27.484,13.399z M31.375,12.433l-3.776,0.02c-0.06,0-0.126,0.062-0.133,0.122L27.484,13
			l0-0.4l3.758-0.045C31.302,12.554,31.368,12.493,31.375,12.433z"/>
	</g>
</g>
<g opacity="0.07">
	<g>
		<path d="M12.42,5.958c-1.109,1.665-0.385,6.401-0.207,7.445c-0.428-0.285-0.924-0.364-1.483-0.146
			c-0.797,0.31,0.724,2.018,0.646,4.404c-0.037,1.16-2.187,3.729,0.406,4.037c0.534,0.063,0.956-0.069,1.284-0.339
			c0.283,3.896,2.066,7.426,4.201,10.15c0.586,0.842,2.48,3.625,2.489,4.505c0.009,0.818-0.575,3.969-0.826,5.284
			c-0.633,0.091-1.249,0.323-1.841,0.685c0,0-7.582,0.979-10.082,4.619c-2.5,3.642-2.5,5.787-2.5,5.787h0.84l-2.46,19.048
			c-0.396,0.881-0.695,2.402-0.695,2.847L2.571,90.78l-2.31,4.674c0.007,0.6-0.444,2.725,0.275,3.135l5.514-1.154
			c0.351-0.258,0.537-1.789,0.627-3.049c0.708-0.285,1.209-0.977,1.209-1.785c0-1.064-0.863-1.928-1.928-1.928
			c-0.516,0-0.982,0.205-1.328,0.535L4.497,91.11l1.098-9.788l0.387-9.35c0-0.171-0.142-0.334-0.354-0.482l0.148-0.098l4.186-19.004
			h1.426c-0.612,2.712-0.959,5.771-0.959,9.012l2.328,16.355c0,4.77,0.128,7.635,0.668,9.356c-0.754,2.369-1.195,5.34-1.173,8.527
			l0.283,39.059c0.023,3.322,0.549,6.309,1.393,8.568c-2.062,1.564-3.499,4.754-3.499,6.488c0,0,2.648,1.129,5.914,1.129
			c3.264,0,5.911-1.91,5.911-4.268c0-0.783-0.298-1.516-0.808-2.146c1.297-2.564,2.121-6.479,2.09-10.801l-0.279-38.666h2.661
			l-2-94.908c-0.069-0.003-0.142-0.011-0.211-0.013C18.617-0.042,13.67,4.083,12.42,5.958z M13.318,14.897
			c-0.207-0.483-0.459-0.894-0.751-1.197l0.886,0.232c0,0,0.217-3.35,0.467-3.975c0.102-0.255,0.359-0.551,0.788-0.846
			C14.09,10.683,13.609,12.591,13.318,14.897z"/>
	</g>
</g>
</svg>
