<?xml version="1.0" encoding="utf-8"?>
<!-- Generator: Adobe Illustrator 15.1.0, SVG Export Plug-In . SVG Version: 6.00 Build 0)  -->
<!DOCTYPE svg PUBLIC "-//W3C//DTD SVG 1.1//EN" "http://www.w3.org/Graphics/SVG/1.1/DTD/svg11.dtd">
<svg version="1.1" id="Layer_1" xmlns="http://www.w3.org/2000/svg" xmlns:xlink="http://www.w3.org/1999/xlink" x="0px" y="0px"
	 width="59.489px" height="139.922px" viewBox="0 0 59.489 139.922" enable-background="new 0 0 59.489 139.922"
	 xml:space="preserve">
<g>
	<g>
		<path fill="#BFD852" d="M45.983,91.319c-0.07-5.988-3.355-10.654-7.336-10.418c-1.912,0.109-3.632,1.338-4.9,3.24h-7.065
			c-1.344-2.102-3.255-3.365-5.367-3.24c-3.98,0.229-7.152,5.275-7.084,11.258l0.371,31.713c0.069,5.992,3.356,10.658,7.336,10.426
			c3.982-0.236,7.152-5.279,7.083-11.262l-0.366-31.395h2.921c-0.004,0.172-0.014,0.344-0.012,0.518l0.371,31.713
			c0.069,5.992,3.356,10.658,7.336,10.426c3.982-0.236,7.152-5.279,7.083-11.262L45.983,91.319z"/>
	</g>
	<g>
		<path fill="#005180" d="M38.986,134.706C38.986,134.706,38.986,134.706,38.986,134.706c-4.108,0-7.381-4.757-7.452-10.829
			l-0.371-31.713c0-0.041,0-0.082,0-0.122h-2.104l0.361,30.989c0.072,6.185-3.274,11.418-7.459,11.666
			c-4.285,0.224-7.688-4.597-7.76-10.82L13.83,92.164c-0.071-6.19,3.276-11.422,7.461-11.662c2.132-0.122,4.132,1.036,5.606,3.239
			h6.638c1.38-1.981,3.18-3.13,5.089-3.239c4.206-0.232,7.686,4.591,7.759,10.812l0.37,31.717
			c0.072,6.185-3.274,11.418-7.459,11.666C39.19,134.703,39.088,134.706,38.986,134.706z M28.249,91.241h3.735l-0.015,0.585
			c-0.003,0.109-0.007,0.219-0.006,0.328l0.371,31.713c0.065,5.629,2.987,10.038,6.651,10.039c0,0,0,0,0.001,0
			c0.086,0,0.173-0.003,0.26-0.008c3.765-0.224,6.773-5.094,6.707-10.857l-0.37-31.717c-0.067-5.761-3.13-10.282-6.912-10.023
			c-1.709,0.098-3.34,1.186-4.591,3.062l-0.119,0.179h-7.499l-0.118-0.185c-1.325-2.072-3.104-3.155-5.007-3.057
			c-3.765,0.216-6.773,5.085-6.708,10.854l0.371,31.713c0.067,5.764,3.145,10.244,6.913,10.031
			c3.765-0.224,6.773-5.094,6.707-10.857L28.249,91.241z"/>
	</g>
</g>
<g>
	<g>
		<path fill="#2EB4E8" d="M36.849,34.893h-6.132h-0.841h-6.132c-6.575,0-11.904,9.81-11.904,21.911l3.052,17.789
			c0,12.098,0.9,12.951,7.476,12.951l7.509,0.129v0.014l0.42-0.008l0.421,0.008v-0.014l7.509-0.129
			c6.575,0,7.476-0.854,7.476-12.951l3.052-17.789C48.753,44.703,43.424,34.893,36.849,34.893z"/>
	</g>
	<g>
		<path fill="#005180" d="M29.477,88.094v-0.027l-7.116-0.122c-7.059,0-7.869-1.373-7.869-13.352l-3.046-17.721
			c-0.006-12.37,5.514-22.379,12.298-22.379h13.104c6.785,0,12.304,10.009,12.304,22.311L46.096,74.66
			c0.006,11.911-0.804,13.284-7.87,13.284l-7.516,0.143l-0.421-0.008L29.477,88.094z M30.289,87.278l0.039,0.001l7.891-0.136
			c6.075,0,7.083-0.347,7.083-12.551l3.058-17.856c-0.006-11.793-5.167-21.443-11.51-21.443H23.745
			c-6.343,0-11.504,9.65-11.504,21.511l3.046,17.721c0.006,12.271,1.013,12.618,7.082,12.618l7.891,0.136L30.289,87.278z"/>
	</g>
</g>
<g>
	<g>
		<path fill="#2EB4E8" d="M1.214,55.644c-1.34,2.883-0.221,5.657,2.502,6.196l0,0c2.724,0.54,6.014-1.36,7.354-4.243l7.23-15.562
			c1.341-2.884,0.219-5.659-2.503-6.198l0,0c-2.721-0.541-6.015,1.361-7.354,4.244L1.214,55.644z"/>
	</g>
	<g>
		<path fill="#005180" d="M4.671,62.332L4.671,62.332c-0.353,0-0.7-0.033-1.032-0.099c-1.315-0.261-2.352-1.02-2.92-2.138
			c-0.668-1.315-0.62-2.999,0.133-4.619l7.23-15.562c1.229-2.646,4.073-4.567,6.762-4.567c0.353,0,0.7,0.033,1.033,0.1
			c1.315,0.26,2.353,1.02,2.921,2.14c0.668,1.315,0.62,3-0.133,4.619l-7.23,15.562C10.203,60.412,7.359,62.332,4.671,62.332z
			 M14.844,36.146c-2.393,0-4.932,1.726-6.036,4.104l-7.23,15.562c-0.649,1.396-0.702,2.825-0.146,3.92
			c0.455,0.895,1.294,1.504,2.363,1.715c0.282,0.056,0.577,0.084,0.877,0.084c2.392,0,4.931-1.726,6.037-4.104l7.23-15.562
			c0.649-1.396,0.702-2.825,0.146-3.92c-0.455-0.896-1.294-1.506-2.363-1.717C15.439,36.174,15.144,36.146,14.844,36.146z"/>
	</g>
</g>
<g>
	<g>
		<path fill="#C78672" d="M0.785,80.659c0.053,3.475-0.014,7.252,1.923,7.154l2.421-0.047c5.231,0.418,1.727-5.959,1.676-9.434
			l2.953-13.848c-0.051-3.474-3.916-9.146-5.851-9.046l0,0c-1.935,0.1-3.46,2.997-3.405,6.473L0.785,80.659z"/>
	</g>
	<g>
		<path fill="#005180" d="M2.635,88.315c-2.249,0-2.296-3.588-2.342-7.059L0.001,61.919c-0.06-3.798,1.645-6.864,3.879-6.979
			c0,0,0.001,0,0.001,0c2.379,0,6.323,5.972,6.375,9.538l0.001,0.057l-0.012,0.055L7.305,78.381
			c0.024,0.909,0.302,2.084,0.572,3.221c0.523,2.202,1.063,4.479,0.051,5.76c-0.558,0.706-1.475,1.013-2.839,0.903L2.635,88.315z
			 M3.958,55.938c-1.664,0.085-3.006,2.817-2.956,5.966l0.292,19.34c0.036,2.705,0.08,6.071,1.342,6.071v0.5l0.047-0.501
			l2.437-0.048c0.2,0.014,0.343,0.02,0.478,0.02c0.751,0,1.257-0.178,1.547-0.545c0.711-0.9,0.207-3.03-0.239-4.909
			c-0.288-1.212-0.585-2.465-0.6-3.492l-0.001-0.056l0.012-0.056l2.941-13.792C9.167,61.036,5.45,55.938,3.958,55.938z"/>
	</g>
</g>
<g>
	<g>
		<path fill="#C78672" d="M7.701,82.554c-0.81,0.223-1.566-0.771-1.689-2.223c-0.124-1.449,0.431-2.807,1.24-3.027
			c0.808-0.223,1.563,0.773,1.688,2.223C9.064,80.978,8.509,82.331,7.701,82.554z"/>
	</g>
	<g>
		<path fill="#005180" d="M7.474,83.085c-1.019,0-1.825-1.115-1.96-2.712c-0.148-1.734,0.542-3.262,1.607-3.552
			c0.117-0.032,0.237-0.049,0.357-0.049c1.017,0,1.823,1.115,1.96,2.711c0.148,1.732-0.542,3.26-1.604,3.553
			C7.715,83.068,7.594,83.085,7.474,83.085z M7.478,77.772c-0.596,0.15-1.077,1.25-0.968,2.516c0.099,1.16,0.627,1.904,1.059,1.783
			c0.502-0.138,0.982-1.237,0.874-2.502C8.349,78.494,7.869,77.772,7.478,77.772z"/>
	</g>
</g>
<g>
	<g>
		<path fill="#C78672" d="M43.369,18.164c-0.775,2.131-0.875,4.576,0.848,5.02c2.227,0.574,0.934-2.514,1.131-3.6
			c0.402-2.232,2.008-3.309,1.402-3.859C45.47,14.558,44.144,16.031,43.369,18.164z"/>
	</g>
	<g>
		<path fill="#005180" d="M44.705,23.753L44.705,23.753c-0.185,0-0.392-0.029-0.614-0.086c-0.615-0.159-1.097-0.541-1.395-1.104
			c-0.78-1.48-0.119-3.689,0.202-4.57c0.734-2.021,1.798-3.18,2.918-3.18c0.448,0,0.875,0.182,1.27,0.542
			c0.606,0.552,0.182,1.248-0.228,1.92c-0.372,0.609-0.833,1.368-1.019,2.397c-0.042,0.233,0.021,0.693,0.083,1.139
			c0.133,0.957,0.271,1.946-0.242,2.535C45.518,23.532,45.217,23.753,44.705,23.753z M45.817,15.813
			c-0.635,0-1.43,1.013-1.979,2.521c-0.564,1.551-0.663,2.992-0.257,3.762c0.167,0.317,0.416,0.514,0.759,0.602
			c0.141,0.037,0.264,0.055,0.364,0.055l0,0c0.165,0,0.207-0.048,0.221-0.064c0.214-0.246,0.089-1.146,0.006-1.741
			c-0.076-0.547-0.148-1.063-0.077-1.454c0.219-1.212,0.757-2.095,1.149-2.739c0.159-0.261,0.376-0.618,0.38-0.733
			C46.208,15.908,46.008,15.813,45.817,15.813z"/>
	</g>
</g>
<g>
	<g>
		<path fill="#C78672" d="M17.335,19.208c0.777,2.133,0.877,4.578-0.844,5.021c-2.229,0.574-0.936-2.514-1.131-3.6
			c-0.404-2.234-2.01-3.309-1.404-3.859C15.236,15.603,16.562,17.078,17.335,19.208z"/>
	</g>
	<g>
		<path fill="#005180" d="M16.002,24.8c-0.513,0-0.814-0.222-0.976-0.408c-0.513-0.589-0.375-1.58-0.242-2.537
			c0.062-0.444,0.126-0.903,0.084-1.136c-0.187-1.03-0.649-1.788-1.021-2.397c-0.411-0.673-0.835-1.368-0.228-1.92
			c0.394-0.36,0.821-0.542,1.27-0.542c1.12,0,2.183,1.158,2.916,3.179c0.321,0.88,0.984,3.091,0.204,4.572
			c-0.296,0.564-0.778,0.945-1.393,1.104C16.394,24.771,16.188,24.8,16.002,24.8z M14.89,16.859c-0.191,0-0.392,0.094-0.596,0.281
			c0.032,0.043,0.25,0.4,0.408,0.66c0.393,0.645,0.932,1.527,1.151,2.741c0.07,0.39-0.002,0.906-0.078,1.451
			c-0.083,0.596-0.209,1.497,0.005,1.743c0.022,0.027,0.216,0.107,0.586,0.01c0.344-0.088,0.591-0.285,0.758-0.601
			c0.406-0.771,0.307-2.213-0.259-3.765C16.318,17.872,15.524,16.859,14.89,16.859z"/>
	</g>
</g>
<g>
	<g>
		<path fill="#005180" d="M33.254,7.485c6.41,0,11.605,5.183,11.605,11.58v5.308c0,6.395-4.591,16.059-11.001,16.059H27.33
			c-6.408,0-11.483-9.664-11.483-16.059v-5.308c0-6.397,5.195-11.58,11.605-11.58H33.254z"/>
	</g>
	<g>
		<path fill="#005180" d="M33.859,40.831H27.33c-6.78,0-11.883-9.984-11.883-16.458v-5.308c0-6.606,5.386-11.98,12.005-11.98h5.803
			c6.62,0,12.005,5.374,12.005,11.98v5.308C45.26,31,40.473,40.831,33.859,40.831z M27.452,7.885
			c-6.179,0-11.206,5.016-11.206,11.18v5.308c0,6.184,4.965,15.659,11.083,15.659h6.529c6.149,0,10.601-9.353,10.601-15.659v-5.308
			c0-6.165-5.027-11.18-11.206-11.18H27.452z"/>
	</g>
</g>
<g>
	<g>
		<path fill="#C78672" d="M33.435,6.757c6.41,0,11.425,5.91,11.425,12.308v5.308c0,6.395-5.195,11.578-11.605-0.967h-5.803
			c-6.41,12.545-11.605,7.361-11.605,0.967v-5.308c0-6.397,5.08-12.308,11.49-12.308H33.435z"/>
	</g>
	<g>
		<path fill="#005180" d="M40.764,31.577c-1.752,0-4.521-1.339-7.814-7.671h-5.193c-3.293,6.331-6.062,7.671-7.814,7.671
			c-1.36,0-2.576-0.808-3.421-2.276c-0.758-1.315-1.175-3.065-1.175-4.928v-5.308c0-6.942,5.491-12.808,11.99-12.808h6.099
			c6.464,0,11.925,5.865,11.925,12.808v5.308C45.36,28.479,43.384,31.577,40.764,31.577z M27.146,22.906h6.415l0.139,0.272
			c3.289,6.438,5.838,7.398,7.064,7.398c2.335,0,3.596-3.196,3.596-6.204v-5.308c0-6.4-5.003-11.808-10.925-11.808h-6.099
			c-5.958,0-10.99,5.407-10.99,11.808v5.308c0,1.69,0.37,3.263,1.042,4.429c0.466,0.81,1.288,1.775,2.554,1.775
			c1.227,0,3.775-0.961,7.064-7.398L27.146,22.906z"/>
	</g>
</g>
<g>
	<g>
		<path fill="#005180" d="M32.907,23.354H27.86c-1.345,0-2.44-1.092-2.44-2.435c0-0.619,0.297-1.062,0.583-1.489
			c0.322-0.479,0.655-0.976,0.645-1.825l0.8-0.01c0.013,1.099-0.427,1.754-0.78,2.281c-0.25,0.373-0.448,0.668-0.448,1.043
			c0,0.902,0.736,1.635,1.64,1.635h5.047c0.904,0,1.64-0.733,1.64-1.635c0-0.458-0.286-0.955-0.587-1.481
			c-0.335-0.583-0.682-1.187-0.682-1.838h0.8c0,0.438,0.28,0.925,0.576,1.44c0.341,0.594,0.694,1.208,0.694,1.879
			C35.347,22.261,34.252,23.354,32.907,23.354z"/>
	</g>
</g>
<g>
	<g>
		<ellipse fill="#FFFFFF" cx="22.371" cy="17.712" rx="3.985" ry="3.976"/>
	</g>
	<g>
		<path fill="#005180" d="M22.372,22.088c-2.418,0-4.385-1.963-4.385-4.375c0-2.412,1.967-4.375,4.385-4.375
			c2.417,0,4.384,1.962,4.384,4.375C26.756,20.125,24.789,22.088,22.372,22.088z M22.372,14.138c-1.977,0-3.585,1.604-3.585,3.575
			c0,1.972,1.608,3.576,3.585,3.576c1.977,0,3.584-1.604,3.584-3.576C25.956,15.741,24.348,14.138,22.372,14.138z"/>
	</g>
</g>
<g>
	<g>
		<ellipse fill="#FFFFFF" cx="38.269" cy="17.712" rx="3.985" ry="3.976"/>
	</g>
	<g>
		<path fill="#005180" d="M38.27,22.088c-2.418,0-4.386-1.963-4.386-4.375c0-2.412,1.968-4.375,4.386-4.375
			c2.417,0,4.383,1.962,4.383,4.375C42.653,20.125,40.687,22.088,38.27,22.088z M38.27,14.138c-1.978,0-3.586,1.604-3.586,3.575
			c0,1.972,1.609,3.576,3.586,3.576c1.976,0,3.583-1.604,3.583-3.576C41.854,15.741,40.246,14.138,38.27,14.138z"/>
	</g>
</g>
<g>
	<g>
		<path fill="#005180" d="M27.377,12.377c-0.053,0.489-0.494,0.893-0.985,0.897l-7.045,0.084c-0.489,0.006-0.843-0.388-0.789-0.877
			l0,0c0.053-0.49,0.493-0.893,0.984-0.897l7.042-0.085C27.076,11.494,27.43,11.886,27.377,12.377L27.377,12.377z"/>
	</g>
	<g>
		<path fill="#005180" d="M19.336,13.759c-0.348,0-0.663-0.137-0.886-0.387c-0.225-0.251-0.328-0.583-0.29-0.934
			c0.075-0.696,0.68-1.247,1.378-1.254L26.58,11.1h0c0.364,0,0.68,0.137,0.904,0.387c0.226,0.251,0.329,0.583,0.292,0.934
			c-0.075,0.697-0.681,1.248-1.379,1.255L19.336,13.759z M26.595,11.899l-7.048,0.085c-0.29,0.003-0.561,0.25-0.591,0.541
			c-0.014,0.123,0.019,0.233,0.09,0.313c0.07,0.078,0.173,0.121,0.291,0.121v0.4l0.006-0.4l7.045-0.084
			c0.291-0.003,0.561-0.25,0.593-0.541c0.013-0.122-0.02-0.234-0.091-0.313C26.818,11.942,26.714,11.899,26.595,11.899z"/>
	</g>
</g>
<g>
	<g>
		<path fill="#005180" d="M42.249,12.377c-0.053,0.489-0.494,0.893-0.985,0.897l-7.045,0.084c-0.489,0.006-0.843-0.388-0.789-0.877
			l0,0c0.053-0.49,0.493-0.893,0.984-0.897l7.042-0.085C41.947,11.494,42.301,11.886,42.249,12.377L42.249,12.377z"/>
	</g>
	<g>
		<path fill="#005180" d="M34.208,13.759c-0.348,0-0.663-0.137-0.886-0.387c-0.225-0.251-0.328-0.583-0.29-0.934
			c0.075-0.696,0.68-1.247,1.378-1.254l7.041-0.085h0c0.364,0,0.68,0.137,0.904,0.387c0.226,0.251,0.329,0.583,0.292,0.934
			c-0.075,0.697-0.681,1.248-1.379,1.255L34.208,13.759z M41.466,11.899l-7.048,0.085c-0.29,0.003-0.561,0.25-0.591,0.541
			c-0.014,0.123,0.019,0.233,0.09,0.313c0.07,0.078,0.173,0.121,0.291,0.121v0.4l0.006-0.4l7.045-0.084
			c0.291-0.003,0.561-0.25,0.593-0.541c0.013-0.122-0.02-0.234-0.091-0.313C41.689,11.942,41.585,11.899,41.466,11.899z"/>
	</g>
</g>
<g>
	<g>
		<g>
			<line fill="#D7E4F5" x1="26.721" y1="28" x2="33.908" y2="27.783"/>
		</g>
	</g>
	<g>
		<g>
			<polygon fill="#D7E4F5" points="30.383,31.162 26.707,27.5 33.893,27.283 33.922,28.283 			"/>
		</g>
	</g>
</g>
<g>
	<g>
		<circle fill="#005180" cx="22.372" cy="17.712" r="2.352"/>
	</g>
	<g>
		<path fill="#005180" d="M22.372,20.46c-1.517,0-2.751-1.232-2.751-2.748c0-1.515,1.234-2.747,2.751-2.747s2.751,1.232,2.751,2.747
			C25.123,19.228,23.889,20.46,22.372,20.46z M22.372,15.766c-1.076,0-1.952,0.874-1.952,1.947c0,1.074,0.875,1.948,1.952,1.948
			s1.952-0.874,1.952-1.948C24.323,16.639,23.448,15.766,22.372,15.766z"/>
	</g>
</g>
<g>
	<g>
		<circle fill="#005180" cx="38.27" cy="17.712" r="2.352"/>
	</g>
	<g>
		<path fill="#005180" d="M38.27,20.46c-1.518,0-2.752-1.232-2.752-2.748c0-1.515,1.235-2.747,2.752-2.747
			c1.517,0,2.751,1.232,2.751,2.747C41.021,19.228,39.787,20.46,38.27,20.46z M38.27,15.766c-1.077,0-1.953,0.874-1.953,1.947
			c0,1.074,0.876,1.948,1.953,1.948c1.076,0,1.952-0.874,1.952-1.948C40.222,16.639,39.346,15.766,38.27,15.766z"/>
	</g>
</g>
<g>
	<g>
		<path fill="#2EB4E8" d="M58.275,55.794c1.34,2.884,0.221,5.658-2.502,6.197l0,0c-2.724,0.54-6.014-1.36-7.354-4.243l-7.23-15.562
			c-1.341-2.883-0.219-5.658,2.503-6.198l0,0c2.721-0.54,6.015,1.362,7.354,4.245L58.275,55.794z"/>
	</g>
	<g>
		<path fill="#005180" d="M54.818,62.483c-2.688,0-5.532-1.92-6.763-4.566l-7.23-15.562c-0.753-1.619-0.802-3.302-0.134-4.618
			c0.568-1.12,1.606-1.88,2.922-2.142c0.332-0.065,0.679-0.099,1.031-0.099c2.689,0,5.534,1.921,6.763,4.568l7.23,15.561
			c0.753,1.621,0.802,3.305,0.133,4.62c-0.568,1.119-1.605,1.877-2.92,2.138C55.518,62.45,55.171,62.483,54.818,62.483z
			 M44.644,36.297c-0.3,0-0.595,0.028-0.875,0.084c-1.069,0.212-1.909,0.822-2.364,1.718c-0.556,1.096-0.503,2.524,0.146,3.919
			l7.23,15.562c1.106,2.377,3.645,4.104,6.037,4.104c0.3,0,0.595-0.028,0.877-0.084c1.069-0.211,1.908-0.821,2.362-1.715
			c0.557-1.095,0.503-2.524-0.146-3.921l-7.23-15.561C49.577,38.023,47.038,36.297,44.644,36.297z"/>
	</g>
</g>
<g>
	<g>
		<path fill="#C78672" d="M58.705,80.81c-0.053,3.475,0.014,7.254-1.923,7.154l-2.421-0.045c-5.231,0.416-1.727-5.961-1.676-9.436
			l-2.953-13.847c0.051-3.474,3.916-9.146,5.851-9.046l0,0c1.935,0.1,3.46,2.997,3.405,6.472L58.705,80.81z"/>
	</g>
	<g>
		<path fill="#005180" d="M56.856,88.466l-2.504-0.047c-0.129,0.013-0.297,0.02-0.457,0.02c-1.062,0-1.847-0.312-2.333-0.925
			c-1.013-1.281-0.472-3.56,0.05-5.762c0.27-1.137,0.548-2.312,0.572-3.221l-2.953-13.846l0.001-0.057
			c0.052-3.566,3.997-9.54,6.299-9.54c2.312,0.117,4.016,3.183,3.957,6.981l-0.292,19.337
			C59.151,84.878,59.104,88.466,56.856,88.466z M54.321,87.421l2.47,0.043l0.065,0.502v-0.5c1.261,0,1.305-3.366,1.34-6.071
			l0.292-19.34c0.05-3.149-1.292-5.881-2.931-5.965l0,0c-1.518,0-5.235,5.098-5.324,8.499l2.953,13.846l-0.001,0.056
			c-0.015,1.026-0.312,2.28-0.6,3.492c-0.446,1.88-0.951,4.01-0.239,4.91C52.689,87.326,53.336,87.498,54.321,87.421z"/>
	</g>
</g>
<g>
	<g>
		<path fill="#C78672" d="M51.789,82.706c0.81,0.223,1.566-0.773,1.689-2.225c0.124-1.449-0.431-2.805-1.24-3.027
			c-0.808-0.223-1.563,0.773-1.688,2.223C50.425,81.128,50.98,82.483,51.789,82.706z"/>
	</g>
	<g>
		<path fill="#005180" d="M52.015,83.237L52.015,83.237c-0.12,0-0.241-0.017-0.359-0.049c-1.063-0.293-1.753-1.821-1.604-3.555
			c0.154-1.784,1.2-2.969,2.319-2.662c1.063,0.293,1.754,1.82,1.605,3.553C53.841,82.121,53.034,83.237,52.015,83.237z
			 M52.092,77.936c-0.48,0-0.953,0.719-1.045,1.784c-0.108,1.266,0.372,2.366,0.874,2.504l0.094,0.014
			c0.392,0,0.874-0.723,0.965-1.798c0.108-1.266-0.373-2.365-0.875-2.503C52.101,77.937,52.097,77.936,52.092,77.936z"/>
	</g>
</g>
<g>
	<g>
		<path fill="#005180" d="M15.789,135.026c-6.161,0.857-5.713,3.309-3.038,4.166c2.365,0.756,6.542-0.027,8.399-0.002l0,0
			c3.958,0.059,7.241-1.09,7.33-2.564l0.479-7.811c0.09-1.475-3.041-0.732-7-0.789l0,0c-3.957-0.059-7.242-0.893-7.332,0.58
			L15.789,135.026z"/>
	</g>
	<g>
		<path fill="#005180" d="M15.51,139.922C15.51,139.922,15.51,139.922,15.51,139.922c-1.204,0-2.146-0.113-2.881-0.349
			c-1.399-0.448-2.219-1.294-2.141-2.206c0.063-0.734,0.786-2.036,4.833-2.676l-1.087-6.014c0.07-1.339,1.641-1.339,2.312-1.339
			c0.649,0,1.405,0.056,2.281,0.121c0.948,0.07,2.022,0.15,3.139,0.166l0.444,0.004c0.967,0,1.877-0.043,2.692-0.081
			c0.674-0.031,1.285-0.06,1.812-0.06c1.187,0,1.815,0.152,2.167,0.527c0.204,0.217,0.298,0.494,0.278,0.823l-0.479,7.811
			c-0.115,1.911-3.919,2.942-7.44,2.942l-0.295-0.002c-0.003,0-0.006,0-0.009,0c-0.625,0-1.348,0.062-2.185,0.135
			C17.88,139.817,16.668,139.922,15.51,139.922z M16.545,128.139c-1.489,0-1.51,0.345-1.519,0.492l1.229,6.734l-0.413,0.058
			c-3.276,0.456-4.503,1.369-4.559,2.013c-0.043,0.505,0.595,1.058,1.587,1.376c0.654,0.209,1.517,0.311,2.637,0.311
			c1.124,0,2.318-0.103,3.372-0.194c0.859-0.074,1.601-0.138,2.177-0.138l0.381,0.003c3.836,0,6.579-1.155,6.641-2.191l0.479-7.811
			c0.008-0.133-0.026-0.189-0.062-0.227c-0.172-0.183-0.706-0.275-1.585-0.275c-0.516,0-1.114,0.028-1.774,0.059
			c-0.827,0.039-1.75,0.082-2.73,0.082l-0.456-0.003c-1.14-0.018-2.227-0.098-3.186-0.169
			C17.908,128.193,17.165,128.139,16.545,128.139z"/>
	</g>
</g>
<g>
	<g>
		<path fill="#005180" d="M15.846,15.808c0,0-0.438-3.312-1.254-5.5s-1.75-2.823-1.75-2.823s2.092-1.302,3.688-1.739
			s4.75-2.688,4.75-2.688s5.27-2.947,12.145-2.635s12.668,4.072,12.668,4.072s-3.203,1.5-2.133,3.312s2.133,3.691,2.133,3.691
			l-1.5,3.814c0,0-2.754-5.039-3.971-5.727s-2.967-1.51-6.092-1.551s-5.062,2.334-5.062,2.334s1.643-2.105-2.085-2.334
			s-7.552,0.843-8.515,1.9C17.905,10.996,15.846,15.808,15.846,15.808z"/>
	</g>
	<g>
		<path fill="#005180" d="M15.641,17.306L15.45,15.86c-0.004-0.033-0.441-3.293-1.232-5.413c-0.75-2.009-1.596-2.629-1.604-2.635
			l-0.489-0.348l0.506-0.32c0.087-0.054,2.16-1.337,3.793-1.785c1.509-0.414,4.593-2.605,4.624-2.627
			c0.248-0.141,5.485-3.024,12.395-2.708C40.347,0.337,46.07,4.004,46.31,4.16l0.603,0.392l-0.651,0.306
			c-0.485,0.228-1.804,1.012-2.073,1.886c-0.091,0.295-0.053,0.577,0.115,0.861c1.072,1.816,2.137,3.698,2.137,3.698l0.094,0.166
			l-1.883,4.788l-0.41-0.75c-1.043-1.91-3.003-5.11-3.816-5.57c-1.274-0.72-2.971-1.46-5.9-1.499c0,0,0,0-0.001,0
			c-2.917,0-4.729,2.166-4.747,2.188l-0.626-0.498c0.004-0.005,0.415-0.56,0.228-0.969c-0.104-0.229-0.506-0.628-2.021-0.721
			c-3.608-0.22-7.339,0.831-8.194,1.771c-0.753,0.827-2.384,4.438-2.95,5.759L15.641,17.306z M13.5,7.56
			c0.38,0.426,0.952,1.229,1.467,2.608c0.5,1.337,0.855,3.057,1.063,4.234c0.688-1.522,1.855-3.98,2.542-4.735
			c1.035-1.137,4.525-2.062,7.779-2.062c0.351,0,0.704,0.01,1.056,0.032c1.498,0.092,2.382,0.482,2.703,1.193
			c0.046,0.103,0.077,0.206,0.096,0.308c0.905-0.695,2.362-1.502,4.245-1.502c3.195,0.041,5.007,0.833,6.369,1.603
			c1.024,0.579,2.869,3.666,3.71,5.143l1.122-2.851c-0.282-0.497-1.156-2.03-2.035-3.519c-0.286-0.483-0.35-0.99-0.19-1.505
			c0.281-0.908,1.222-1.625,1.867-2.024c-1.625-0.93-6.439-3.413-11.885-3.66C26.721,0.53,21.524,3.38,21.475,3.407
			c-0.094,0.07-3.194,2.273-4.839,2.724C15.546,6.43,14.189,7.164,13.5,7.56z"/>
	</g>
</g>
<g>
	<g>
		<path fill="#005180" d="M45.222,135.026c6.161,0.857,5.713,3.309,3.038,4.166c-2.365,0.756-6.542-0.027-8.399-0.002l0,0
			c-3.958,0.059-7.241-1.09-7.33-2.564l-0.479-7.811c-0.09-1.475,3.041-0.732,7-0.789l0,0c3.957-0.059,7.242-0.893,7.332,0.58
			L45.222,135.026z"/>
	</g>
	<g>
		<path fill="#005180" d="M45.501,139.922c-1.159,0-2.371-0.104-3.44-0.196c-0.84-0.073-1.566-0.136-2.108-0.136l-0.381,0.003
			c-3.521,0-7.325-1.031-7.44-2.942l-0.479-7.811c-0.02-0.329,0.074-0.606,0.278-0.823c0.353-0.375,0.98-0.527,2.167-0.527
			c0.527,0,1.138,0.028,1.812,0.06c0.815,0.038,1.725,0.081,2.692,0.081l0.444-0.004c1.116-0.016,2.19-0.096,3.139-0.166
			c0.876-0.065,1.632-0.121,2.281-0.121c0.67,0,2.241,0,2.317,1.243l-1.094,6.109c4.048,0.64,4.771,1.941,4.834,2.676
			c0.079,0.912-0.741,1.758-2.14,2.206C47.647,139.809,46.705,139.922,45.501,139.922z M39.865,138.79
			c0.67,0,1.41,0.064,2.264,0.138c1.054,0.092,2.248,0.194,3.372,0.194c1.12,0,1.983-0.102,2.638-0.311
			c0.992-0.318,1.63-0.871,1.587-1.376c-0.056-0.644-1.283-1.557-4.559-2.013l-0.413-0.058l1.235-6.83
			c-0.015-0.052-0.036-0.396-1.524-0.396c-0.619,0-1.362,0.055-2.222,0.119c-0.959,0.071-2.046,0.151-3.186,0.169l-0.456,0.003
			c-0.98,0-1.903-0.043-2.73-0.082c-0.66-0.03-1.258-0.059-1.774-0.059c-0.879,0-1.413,0.093-1.585,0.275
			c-0.035,0.037-0.07,0.094-0.062,0.227l0.479,7.811c0.062,1.036,2.805,2.191,6.641,2.191l0.284-0.003
			C39.858,138.79,39.862,138.79,39.865,138.79z"/>
	</g>
</g>
<g opacity="0.07">
	<g>
		<path d="M29.012,91.608h1.09V0.517c-4.988,0.563-8.464,2.507-8.464,2.507s-3.154,2.25-4.75,2.688s-3.688,1.739-3.688,1.739
			s0.934,0.636,1.75,2.823s1.254,5.5,1.254,5.5s2.059-4.812,3.021-5.871c0.384-0.422,1.227-0.844,2.333-1.187
			c-2.669,1.871-4.577,4.872-5.159,8.193c-0.641-0.651-1.37-0.826-2.085-0.173c-0.605,0.551,1,1.625,1.404,3.859
			c0.173,0.958-0.81,3.471,0.485,3.655v0.087c0,0.354,0.019,0.702,0.05,1.046c0.27,3.427,1.807,7.524,4.124,10.574
			c-0.625,0.379-1.227,0.85-1.802,1.405c-0.522-0.781-1.344-1.348-2.42-1.561c-2.721-0.541-6.015,1.361-7.354,4.244L1.573,55.61
			c-0.589,1.267-0.702,2.512-0.414,3.556c-0.204,0.829-0.313,1.746-0.299,2.712l0.283,18.747c0.053,3.477-0.014,7.254,1.923,7.156
			l2.421-0.047c3.427,0.273,3.103-2.371,2.459-5.203c0.038-0.004,0.075,0,0.113-0.01c0.809-0.223,1.363-1.578,1.239-3.029
			c-0.125-1.449-0.881-2.443-1.688-2.223c-0.088,0.025-0.171,0.068-0.253,0.117l2.759-12.935c-0.017-1.17-0.472-2.588-1.135-3.952
			c1.026-0.75,1.901-1.759,2.448-2.936l0.781-1.683c-0.006,0.296-0.012,0.591-0.012,0.89l3.052,17.79
			c0,5.441,0.185,8.604,0.983,10.439c-1.053,1.957-1.676,4.445-1.646,7.127l0.371,31.713c0.017,1.443,0.224,2.807,0.579,4.047
			c-0.333,0.131-0.532,0.346-0.553,0.686l1.161,6.422c-6.161,0.857-5.713,3.309-3.038,4.164c2.365,0.758,6.542-0.027,8.399-0.002
			c3.958,0.061,7.241-1.09,7.33-2.562l0.479-7.811c0.026-0.428-0.225-0.664-0.68-0.793c0.489-1.512,0.761-3.205,0.74-4.986
			L29.012,91.608z"/>
	</g>
</g>
</svg>
