<?xml version="1.0" encoding="utf-8"?>
<!-- Generator: Adobe Illustrator 15.1.0, SVG Export Plug-In . SVG Version: 6.00 Build 0)  -->
<!DOCTYPE svg PUBLIC "-//W3C//DTD SVG 1.1//EN" "http://www.w3.org/Graphics/SVG/1.1/DTD/svg11.dtd">
<svg version="1.1" id="Layer_1" xmlns="http://www.w3.org/2000/svg" xmlns:xlink="http://www.w3.org/1999/xlink" x="0px" y="0px"
	 width="34.643px" height="129.789px" viewBox="0 0 34.643 129.789" enable-background="new 0 0 34.643 129.789"
	 xml:space="preserve">
<g>
	<g>
		<polygon fill="#9484BE" points="29.751,45.463 32.327,64.537 29.442,63.023 24.75,45.571 		"/>
	</g>
	<g>
		<path fill="#005180" d="M32.952,65.43l-3.936-2.065l-4.915-18.28l6.085-0.13L32.952,65.43z M29.868,62.683l1.834,0.962
			l-2.387-17.672l-3.917,0.084L29.868,62.683z"/>
	</g>
</g>
<g>
	<g>
		<path fill="#005180" d="M5.235,35.312c0-6.86-1.985-14.468-1.014-19.163c0.333-2.068,0.571-3.301,0.571-4.561
			c0-5.902,6.055-9.994,12.545-9.994c5.789,0,11.677,4.148,12.648,9.162c0,0,0.785,2.092,0.6,5.473
			c-0.187,3.381,1.844,7.586,1.814,11.178c-0.073,8.905-5.416,13.343-5.416,13.343l-6.98,7.142l-6.208-5.329L1.066,48.75
			C1.066,48.75,5.235,40.008,5.235,35.312z"/>
	</g>
	<g>
		<path fill="#005180" d="M0,49.824l0.615-1.29c0.041-0.086,4.12-8.693,4.12-13.222c0-2.854-0.347-5.835-0.682-8.717
			c-0.464-3.984-0.901-7.747-0.321-10.548l0.138-0.85c0.255-1.552,0.423-2.578,0.423-3.609c0-6.482,6.771-10.494,13.045-10.494
			c6.117,0,12.134,4.381,13.14,9.567c0.011,0.009,0.797,2.149,0.607,5.595c-0.092,1.66,0.377,3.533,0.873,5.515
			c0.471,1.882,0.957,3.828,0.942,5.639c-0.074,9.034-5.371,13.536-5.597,13.724l-7.27,7.441l-6.314-5.42L0,49.824z M17.338,2.094
			c-5.793,0-12.045,3.63-12.045,9.494c0,1.113-0.174,2.171-0.437,3.771l-0.142,0.869c-0.551,2.665-0.122,6.35,0.332,10.251
			c0.339,2.911,0.688,5.92,0.688,8.833c0,3.721-2.478,9.757-3.637,12.38l11.773-5.723l6.102,5.238l6.653-6.807
			c0.089-0.078,5.203-4.449,5.273-12.997c0.014-1.685-0.457-3.568-0.913-5.389c-0.492-1.967-1.001-4.001-0.9-5.812
			c0.177-3.22-0.562-5.25-0.569-5.271C28.575,6.104,23.008,2.094,17.338,2.094z"/>
	</g>
</g>
<g>
	<g>
		<polygon fill="#9484BE" points="5.125,46.463 2.549,65.537 5.434,64.023 10.126,46.571 		"/>
	</g>
	<g>
		<path fill="#005180" d="M1.924,66.43l2.766-20.476l6.085,0.13l-4.915,18.28L1.924,66.43z M5.561,46.973L3.174,64.645l1.834-0.962
			l4.47-16.625L5.561,46.973z"/>
	</g>
</g>
<g>
	<g>
		<path fill="#FFFFFF" stroke="#005180" stroke-width="0.8" stroke-miterlimit="10" d="M29.986,66.008"/>
	</g>
</g>
<g>
	<g>
		<path fill="#FFFFFF" stroke="#005180" stroke-width="0.8" stroke-miterlimit="10" d="M6.337,67.195"/>
	</g>
</g>
<g>
	<g>
		<path fill="#005180" d="M0.91,79.449c-0.03,0.482-0.098,3.232,0.303,3.568l4.113,1.141c0.565-0.275,0.326-1.904,0.36-2.357
			l-1.521-3.646l1.085-12.457c0.03-0.48-0.297-2.67-0.779-2.701l0,0c-0.481-0.031-1.943,0.291-1.975,0.773l-0.16,7.088l0.358,7.455
			L0.91,79.449z"/>
	</g>
	<g>
		<path fill="#005180" d="M5.375,84.69L0.892,83.4c-0.675-0.565-0.502-3.635-0.48-3.982l0.016-0.254l1.755-1.117l-0.344-7.165
			l0.159-7.124c0.066-1.034,2.043-1.264,2.404-1.264l0.103,0.003c1.154,0.075,1.248,3.2,1.246,3.231L4.675,78.075l1.52,3.644
			l-0.009,0.12c-0.008,0.092,0,0.239,0.008,0.414c0.033,0.845,0.08,2-0.648,2.354L5.375,84.69z M1.542,82.59l3.603,0.999
			c0.088-0.326,0.06-1.035,0.049-1.295c-0.006-0.154-0.011-0.291-0.01-0.4l-1.526-3.66l1.096-12.579
			c0.025-0.409-0.221-1.766-0.438-2.155c-0.463,0.031-1.13,0.226-1.321,0.379l-0.157,6.991l0.372,7.709l-1.812,1.154
			C1.362,80.628,1.396,82.122,1.542,82.59z"/>
	</g>
</g>
<g>
	<g>
		<circle fill="#005180" cx="5.282" cy="79.57" r="1.461"/>
	</g>
	<g>
		<path fill="#005180" d="M5.282,81.531c-1.081,0-1.961-0.88-1.961-1.961s0.88-1.961,1.961-1.961s1.961,0.88,1.961,1.961
			S6.363,81.531,5.282,81.531z M5.282,78.609c-0.53,0-0.961,0.431-0.961,0.961s0.431,0.961,0.961,0.961s0.961-0.431,0.961-0.961
			S5.812,78.609,5.282,78.609z"/>
	</g>
</g>
<g>
	<g>
		<path fill="#005180" d="M29.125,79.191c0,0.482,0.107,3.23,0.529,3.541l4.178,0.875c0.546-0.311,0.204-1.92,0.209-2.375
			l-1.75-3.541l0.287-12.5c0-0.482-0.465-2.646-0.948-2.646l0,0c-0.483,0-1.923,0.414-1.923,0.896L30,70.525l0.832,7.416
			L29.125,79.191z"/>
	</g>
	<g>
		<path fill="#005180" d="M33.915,84.136l-4.558-1.001c-0.712-0.524-0.732-3.595-0.732-3.943v-0.254l1.678-1.229l-0.8-7.128
			l-0.296-7.119c0-1.037,2.012-1.417,2.423-1.417c1.157,0,1.448,3.115,1.448,3.146L32.794,77.58l1.748,3.538l-0.001,0.119
			c-0.001,0.093,0.016,0.239,0.034,0.414c0.088,0.84,0.208,1.99-0.496,2.391L33.915,84.136z M29.955,82.284l3.658,0.767
			c0.068-0.332-0.006-1.037-0.032-1.296c-0.017-0.152-0.029-0.289-0.036-0.397l-1.757-3.555l0.29-12.623
			c0-0.41-0.333-1.756-0.574-2.126c-0.397,0.048-1.099,0.283-1.294,0.464l0.29,6.987l0.861,7.669l-1.733,1.269
			C29.65,80.337,29.779,81.826,29.955,82.284z"/>
	</g>
</g>
<g>
	<g>
		<circle fill="#005180" cx="30.586" cy="79.57" r="1.461"/>
	</g>
	<g>
		<path fill="#005180" d="M30.586,81.531c-1.081,0-1.961-0.88-1.961-1.961s0.88-1.961,1.961-1.961s1.961,0.88,1.961,1.961
			S31.667,81.531,30.586,81.531z M30.586,78.609c-0.53,0-0.961,0.431-0.961,0.961s0.431,0.961,0.961,0.961s0.961-0.431,0.961-0.961
			S31.116,78.609,30.586,78.609z"/>
	</g>
</g>
<g>
	<g>
		<path fill="#9484BE" d="M24.75,68.201l-7.007,1.203l-7.569-1.021c-0.35,0.635-2.232,2.193-2.232,7.309
			c0,4.875,9.344,54.004,9.344,54.004V77.506h1.192l0.639,52.189c0,0,8.237-47.455,8.243-54.412
			C27.363,70.373,25.219,68.943,24.75,68.201z"/>
	</g>
	<g>
		<path fill="#005180" d="M16.794,129.789c-0.382-2.008-9.353-49.231-9.353-54.098c0-4.491,1.4-6.347,2.073-7.239
			c0.097-0.128,0.176-0.228,0.222-0.311l0.165-0.3l7.833,1.057l7.26-1.246l0.179,0.282c0.069,0.109,0.184,0.234,0.32,0.391
			c0.77,0.876,2.369,2.698,2.366,6.958c-0.006,6.921-7.914,52.559-8.251,54.498l-0.992-0.08l-0.633-51.695h-0.198v51.689
			L16.794,129.789z M10.414,68.92c-0.031,0.042-0.065,0.087-0.101,0.135c-0.607,0.806-1.872,2.48-1.872,6.637
			c0,3.826,5.939,35.853,8.344,48.656V77.006h2.187l0.577,47.205c2.151-12.642,7.306-43.492,7.311-48.928
			c0.003-3.884-1.376-5.454-2.117-6.298c-0.076-0.086-0.146-0.166-0.207-0.24l-6.783,1.165l-0.075-0.011L10.414,68.92z"/>
	</g>
</g>
<g>
	<g>
		<polygon fill="#005180" points="23.363,104.312 18.805,104.312 19.193,129.252 		"/>
	</g>
	<g>
		<path fill="#005180" d="M19.687,129.334l-0.993-0.074l-0.396-25.447h5.657L19.687,129.334z M19.312,104.812l0.295,18.931
			l3.165-18.931H19.312z"/>
	</g>
</g>
<g>
	<g>
		<polygon fill="#005180" points="12.575,104.312 17.201,104.312 17.201,129.252 		"/>
	</g>
	<g>
		<path fill="#005180" d="M16.71,129.343l-4.736-25.53h5.728v25.439L16.71,129.343z M13.177,104.812l3.524,19.002v-19.002H13.177z"
			/>
	</g>
</g>
<g>
	<g>
		<path fill="#9484BE" d="M25.596,42.316c-0.648-0.385-1.334-0.529-1.949-0.475c-0.652-1.684-3.512-2.351-6.184-2.126
			c-2.672-0.225-5.531,0.442-6.184,2.126c-0.616-0.055-1.301,0.09-1.95,0.475c-1.446,0.859-4.606,3.123-4.022,4.33
			c0.135,0.279,0.741,1.37,1.518,2.891C6.691,51.201,6.641,54,7.322,57.011c0.879,4.364,2.457,7.325,3.095,10.79l0.028,0.008
			c-0.053,0.137-0.107,0.273-0.164,0.418l7.182,1.389l7.18-1.389c-0.056-0.145-0.11-0.281-0.164-0.418l0.029-0.008
			c0.639-3.465,2.216-6.426,3.094-10.79c0.684-3.012,0.633-5.811,0.499-7.475c0.776-1.521,1.382-2.611,1.518-2.891
			C30.202,45.439,27.043,43.175,25.596,42.316z"/>
	</g>
	<g>
		<path fill="#005180" d="M17.463,70.124l-0.095-0.018l-7.771-1.503l0.312-0.798c-0.306-1.616-0.824-3.143-1.373-4.757
			c-0.612-1.801-1.246-3.664-1.704-5.939c-0.663-2.927-0.652-5.656-0.518-7.471c-0.447-0.873-0.833-1.595-1.099-2.091
			c-0.181-0.338-0.306-0.574-0.359-0.685c-0.884-1.827,3.358-4.467,4.217-4.977c0.597-0.354,1.251-0.545,1.896-0.556
			c0.887-1.583,3.367-2.157,5.489-2.157c0.349,0,0.699,0.015,1.047,0.044c0.264-0.029,0.614-0.044,0.963-0.044
			c2.122,0,4.603,0.574,5.489,2.157c0.646,0.011,1.299,0.202,1.894,0.555c0.86,0.511,5.103,3.149,4.218,4.978
			c-0.054,0.109-0.175,0.337-0.35,0.664c-0.265,0.497-0.655,1.227-1.108,2.111c0.136,1.814,0.146,4.542-0.521,7.483
			c-0.455,2.265-1.089,4.129-1.701,5.931c-0.548,1.613-1.066,3.14-1.372,4.755l0.309,0.797L17.463,70.124z M10.958,67.848
			l6.505,1.259l6.494-1.257l-0.148-0.38l0.268-0.071c0.322-1.6,0.829-3.092,1.364-4.667c0.603-1.772,1.226-3.605,1.671-5.819
			c0.66-2.908,0.631-5.593,0.491-7.336l-0.012-0.141l0.064-0.126c0.484-0.948,0.902-1.729,1.182-2.253
			c0.166-0.31,0.281-0.526,0.332-0.629c0.271-0.562-1.589-2.352-3.828-3.682c-0.526-0.312-1.108-0.456-1.65-0.406l-0.374,0.033
			l-0.136-0.351c-0.429-1.106-2.322-1.849-4.713-1.849c-0.32,0-0.644,0.013-0.963,0.04c-0.403-0.027-0.727-0.04-1.047-0.04
			c-2.391,0-4.284,0.743-4.713,1.849l-0.136,0.351l-0.374-0.033c-0.539-0.049-1.124,0.095-1.651,0.407
			c-2.239,1.331-4.1,3.12-3.827,3.682c0.051,0.105,0.17,0.329,0.341,0.648c0.28,0.523,0.694,1.297,1.172,2.233l0.064,0.126
			l-0.012,0.141c-0.139,1.744-0.167,4.431,0.487,7.325c0.448,2.223,1.071,4.055,1.673,5.826c0.536,1.578,1.045,3.073,1.367,4.675
			l0.232,0.064L10.958,67.848z"/>
	</g>
</g>
<g>
	<g>
		<path fill="#FEDEC1" d="M10.174,31.829l7.129-0.354v-0.016l0.16,0.008l0.158-0.008v0.016l7.129,0.354c0,0-2.654,3.715-2.666,4.756
			c-0.01,1.041,1.207,5.061,1.207,5.061l-5.602,11.458L11.9,42.458c0,0,0.95-4.832,0.939-5.873S10.174,31.829,10.174,31.829z"/>
	</g>
	<g>
		<path fill="#005180" d="M17.708,53.975L11.48,42.522l0.027-0.142c0.262-1.333,0.94-4.972,0.932-5.792
			c-0.006-0.631-1.519-3.027-2.591-4.527l-0.426-0.596l7.479-0.41l0.58,0.013l0.539-0.029v0.055l7.479,0.371l-0.426,0.596
			c-1.071,1.5-2.584,3.897-2.591,4.528c-0.008,0.803,0.856,3.838,1.189,4.94l0.046,0.15L17.708,53.975z M12.32,42.393l5.351,9.838
			l5.192-10.621c-0.244-0.816-1.188-4.041-1.18-5.03c0.011-0.904,1.518-3.215,2.323-4.388l-6.586-0.327l-0.099,0.009l-6.405,0.318
			c0.807,1.173,2.313,3.484,2.323,4.388C13.25,37.56,12.48,41.569,12.32,42.393z"/>
	</g>
</g>
<g>
	<g>
		<path fill="#FEDEC1" d="M5.941,27.07c1.957,6.277,11.531,11.705,11.531,11.705s9.438-5.244,11.552-11.875l0.698-8.32
			c1.135-7.721-5.047-11.271-11.271-11.271h-0.939h-0.039h-0.939c-6.225,0-12.682,3.727-11.271,11.271L5.941,27.07z"/>
	</g>
	<g>
		<path fill="#005180" d="M17.471,39.233l-0.195-0.11c-0.396-0.225-9.734-5.579-11.716-11.934l-0.696-8.578
			c-0.551-2.933,0.058-5.592,1.765-7.647c2.109-2.54,5.812-4.056,9.905-4.056h1.918c4.037,0,7.559,1.397,9.664,3.834
			c1.769,2.048,2.461,4.778,2.003,7.895l-0.695,8.296c-2.154,6.792-11.365,11.974-11.756,12.191L17.471,39.233z M16.533,7.708
			c-3.858,0-7.331,1.408-9.29,3.767c-1.572,1.893-2.106,4.259-1.588,7.031l0.685,8.532c1.721,5.487,9.771,10.464,11.135,11.274
			c1.354-0.793,9.295-5.654,11.169-11.534l0.681-8.232c0.432-2.946-0.18-5.388-1.814-7.281c-1.953-2.261-5.255-3.558-9.059-3.558
			H16.533z"/>
	</g>
</g>
<g>
	<g>
		<path fill="#005180" d="M29.952,11.189c-0.322-1.322-2.875-4.58-3.549-5.254c-0.676-0.676-1.85-3.596-1.85-3.596l-0.05,1.18
			c-1.78-1.402-4.229-1.874-7.214-1.923C7.819,1.44,4.307,11.943,4.307,11.943l0.783,2.885l0.455-2.529
			c0,0,4.047,2.031,10.307,1.914c6.262-0.117,6.262-0.117,6.262-0.117l-4.824-3.172c0,0,7.957,2.898,9.482,2.781h0.002
			c0.609,0.432,1.252,0.953,1.592,1.438c0.764,1.086,0.662,3.66,0.662,3.66l0.16-1.928V13.21c0.311-0.098,0.5-0.172,0.5-0.172
			s-0.021-0.076-0.063-0.207c0.201,0.195,0.329,0.312,0.328,0.295C29.948,13.005,30.274,12.509,29.952,11.189z"/>
	</g>
	<g>
		<path fill="#005180" d="M29.525,18.844l-0.998-0.061c0.026-0.67-0.026-2.578-0.571-3.353c-0.234-0.335-0.696-0.756-1.34-1.223
			c-1.016-0.028-3.512-0.776-5.7-1.498l2.821,1.855l-8.407,0.152c-4.713,0-8.09-1.163-9.406-1.704l-0.735,4.087l-1.404-5.173
			l0.048-0.144c0.036-0.107,3.685-10.69,13.249-10.69l0.217,0.002c2.99,0.049,5.12,0.516,6.745,1.497L24.152,0l0.865,2.153
			c0.439,1.092,1.3,2.989,1.739,3.429c0.642,0.641,3.317,3.996,3.681,5.489c0.294,1.2,0.102,1.823,0.02,2.088l0.017,0.516
			l-0.523-0.047c-0.095,0-0.167-0.017-0.246-0.063c-0.006,0.002-0.011,0.004-0.017,0.006v3.303L29.525,18.844z M13.434,8.987
			l4.026,1.467c2.104,0.766,7.859,2.754,9.214,2.754h0.158l0.228,0.088c0.748,0.528,1.295,1.012,1.629,1.442l-0.001-1.895l0.35-0.11
			c0.01-0.003,0.019-0.006,0.027-0.008l-0.528-1.646l1.055,1.023c-0.011-0.213-0.046-0.475-0.124-0.794
			c-0.284-1.166-2.706-4.309-3.417-5.019c-0.326-0.327-0.73-1.056-1.087-1.79l-0.001,0.018l-0.768-0.605
			c-1.526-1.202-3.658-1.762-6.912-1.815l-0.201-0.002c-8.266,0-11.8,8.666-12.251,9.87l0.161,0.59l0.18-1.002l0.598,0.298
			c0.037,0.019,3.803,1.866,9.562,1.866l5.159-0.092L13.434,8.987z"/>
	</g>
</g>
<g>
	<g>
		<path fill="#005180" d="M17.689,26.559c-0.808,0-1.441-0.797-1.441-1.816h0.801c0,0.541,0.299,1.016,0.641,1.016
			s0.642-0.475,0.642-1.016h0.801C19.132,25.761,18.498,26.559,17.689,26.559z"/>
	</g>
</g>
<g>
	<g>
		<path fill="#9484BE" d="M29.689,23.042c0,0.553-0.101,1.01-0.652,1.01l-11.348-1.01l-11.352,1.01c-0.553,0-0.518-0.457-0.518-1.01
			l-1.509-5.884c0-0.553,0.447-1,1-1h24.302c0.552,0,1,0.447,1,1L29.689,23.042z"/>
	</g>
	<g>
		<path fill="#005180" d="M29.037,24.551l-0.044-0.002l-11.348-1.01l-11.264,1.01c-0.003,0-0.007,0-0.011,0
			c-0.337,0-0.575-0.09-0.751-0.266c-0.303-0.305-0.302-0.734-0.3-1.15l-1.509-5.976c0-0.827,0.673-1.5,1.5-1.5h24.302
			c0.827,0,1.5,0.673,1.5,1.5l-0.93,5.961C30.189,24.29,29.562,24.551,29.037,24.551z M4.814,17.105l1.506,5.936
			c-0.001,0.255-0.002,0.496,0.029,0.562l11.296-1.061l11.409,1.007c0.046-0.001,0.062-0.01,0.062-0.01
			c0-0.001,0.072-0.08,0.072-0.5l0.93-5.961c-0.006-0.198-0.23-0.422-0.506-0.422H5.312C5.054,16.658,4.841,16.854,4.814,17.105z"/>
	</g>
</g>
<g>
	<g>
		<path fill="#FFFFFF" d="M7.921,20.104c0,1.621,1.315,2.938,2.938,2.938c1.623,0,2.938-1.316,2.938-2.938
			c0-1.623-1.314-1.818-2.938-1.818C9.236,18.286,7.921,18.481,7.921,20.104z"/>
	</g>
	<g>
		<path fill="#005180" d="M10.858,23.441c-1.84,0-3.338-1.497-3.338-3.337c0-2.218,2.172-2.218,3.338-2.218s3.338,0,3.338,2.218
			C14.196,21.944,12.698,23.441,10.858,23.441z M10.858,18.686c-1.921,0-2.537,0.345-2.537,1.418c0,1.399,1.138,2.538,2.537,2.538
			s2.537-1.138,2.537-2.538C13.396,19.03,12.779,18.686,10.858,18.686z"/>
	</g>
</g>
<g>
	<g>
		<path fill="#005180" d="M7.921,20.104c0,1.004,0.813,1.818,1.818,1.818c1.004,0,1.818-0.814,1.818-1.818
			c0-1.005-0.814-1.302-1.818-1.302C8.734,18.802,7.921,19.099,7.921,20.104z"/>
	</g>
	<g>
		<path fill="#005180" d="M9.739,22.322c-1.224,0-2.219-0.995-2.219-2.218c0-0.636,0.289-1.702,2.219-1.702s2.219,1.066,2.219,1.702
			C11.958,21.327,10.963,22.322,9.739,22.322z M9.739,19.202c-1.418,0-1.418,0.632-1.418,0.902c0,0.782,0.636,1.418,1.418,1.418
			s1.418-0.636,1.418-1.418C11.157,19.834,11.157,19.202,9.739,19.202z"/>
	</g>
</g>
<g>
	<g>
		<path fill="#FFFFFF" d="M21.109,20.104c0,1.621,1.315,2.938,2.938,2.938c1.623,0,2.938-1.316,2.938-2.938
			c0-1.623-1.166-1.302-2.789-1.302C22.573,18.802,21.109,18.481,21.109,20.104z"/>
	</g>
	<g>
		<path fill="#005180" d="M24.047,23.441c-1.84,0-3.338-1.497-3.338-3.337c0-1.728,1.469-1.728,2.174-1.728
			c0.2,0,0.41,0.006,0.626,0.012c0.45,0.015,0.942,0.013,1.369,0c0.201-0.006,0.393-0.012,0.572-0.012
			c1.005,0,1.935,0.209,1.935,1.728C27.385,21.944,25.887,23.441,24.047,23.441z M22.883,19.176c-1.091,0-1.373,0.191-1.373,0.928
			c0,1.399,1.138,2.538,2.537,2.538s2.537-1.138,2.537-2.538c0-0.806-0.255-0.928-1.134-0.928c-0.172,0-0.354,0.006-0.548,0.012
			c-0.442,0.014-0.951,0.014-1.417,0C23.277,19.183,23.075,19.176,22.883,19.176z"/>
	</g>
</g>
<g>
	<g>
		<path fill="#005180" d="M21.109,20.104c0,1.004,0.813,1.818,1.818,1.818c1.004,0,1.818-0.814,1.818-1.818
			c0-1.005-0.814-1.124-1.818-1.124C21.923,18.98,21.109,19.099,21.109,20.104z"/>
	</g>
	<g>
		<path fill="#005180" d="M22.928,22.322c-1.224,0-2.219-0.995-2.219-2.218c0-1.524,1.499-1.524,2.219-1.524s2.219,0,2.219,1.524
			C25.146,21.327,24.151,22.322,22.928,22.322z M22.928,19.38c-1.214,0-1.418,0.224-1.418,0.724c0,0.782,0.636,1.418,1.418,1.418
			s1.418-0.636,1.418-1.418C24.346,19.604,24.142,19.38,22.928,19.38z"/>
	</g>
</g>
<g>
	<g>
		<g>
			<path fill="#F27A9F" d="M14.225,30.404c2.506-1.1,2.554-0.9,3.237-0.873c0.731,0.027-0.333-0.531,3.512-0.406L14.225,30.404z"/>
		</g>
		<g>
			<path fill="#F27A9F" d="M14.225,30.804c-0.173,0-0.329-0.111-0.382-0.282c-0.061-0.194,0.035-0.403,0.221-0.484
				c2.201-0.965,2.607-0.97,3.19-0.921l0.224,0.015c0.429-0.279,0.829-0.495,3.509-0.406c0.204,0.007,0.37,0.166,0.386,0.369
				c0.017,0.203-0.124,0.386-0.324,0.424l-6.749,1.279C14.274,30.802,14.249,30.804,14.225,30.804z"/>
		</g>
	</g>
	<g>
		<g>
			<path fill="#F27A9F" d="M20.974,29.937c-0.532,1.899-2.161,1.773-3.56,1.773c-1.4,0-2.003,0.504-2.64-0.506l4.479,0.045
				L20.974,29.937z"/>
		</g>
		<g>
			<path fill="#F27A9F" d="M15.809,32.236c-0.601,0-1.011-0.245-1.372-0.818c-0.078-0.124-0.083-0.28-0.012-0.408
				s0.216-0.188,0.354-0.205l4.342,0.043l1.61-1.229c0.138-0.104,0.323-0.11,0.468-0.013c0.143,0.097,0.207,0.273,0.16,0.439
				c-0.579,2.067-2.373,2.067-3.445,2.067l-0.499-0.002c-0.378,0-0.695,0.04-0.97,0.073C16.207,32.212,15.998,32.236,15.809,32.236z
				"/>
		</g>
	</g>
</g>
<g>
	<g>
		<polygon fill="#FFFFFF" points="14.598,30.886 19.191,30.886 20.816,29.562 		"/>
	</g>
</g>
<g>
	<g>
		<polygon fill="#AD6959" points="26.949,16.016 21.145,18.315 26.474,16.844 		"/>
	</g>
	<g>
		<polygon fill="#005180" points="21.251,18.701 20.997,17.943 27.866,15.223 26.738,17.186 		"/>
	</g>
</g>
<g>
	<g>
		<polygon fill="#AD6959" points="7.937,16.067 13.779,18.264 8.426,16.887 		"/>
	</g>
	<g>
		<polygon fill="#005180" points="13.68,18.651 8.167,17.233 7.008,15.29 13.92,17.89 		"/>
	</g>
</g>
<g>
	<g>
		<path fill="#005180" d="M17.277,42.683c-3.546,0-5.141-2.693-5.208-2.81l0.692-0.4c0.059,0.1,1.443,2.411,4.518,2.411
			c0.055,0,0.11-0.001,0.167-0.002c3.221-0.086,4.806-2.806,4.821-2.833l0.695,0.396c-0.073,0.128-1.828,3.139-5.495,3.237
			C17.403,42.682,17.34,42.683,17.277,42.683z"/>
	</g>
</g>
<g>
	<g>
		<circle fill="#005180" cx="21.862" cy="26.529" r="0.37"/>
	</g>
</g>
<g>
	<g>
		<path fill="#005180" d="M17.462,71.188l8.229-2.039l0,0c-0.353-0.566-0.677-1.074-0.849-1.396l-7.198,1.471l-7.775-1.25
			c-0.172,0.371-0.458,1.045-0.756,1.738L17.462,71.188z"/>
	</g>
	<g>
		<path fill="#005180" d="M17.479,71.698l-9.075-1.604l0.405-0.945c0.241-0.562,0.462-1.078,0.604-1.386l0.159-0.344l8.06,1.296
			l7.475-1.527l0.176,0.329c0.136,0.255,0.371,0.63,0.638,1.058l0.558,0.895L17.479,71.698z M9.82,69.328l7.624,1.349l7.457-1.848
			c-0.116-0.188-0.223-0.361-0.314-0.515l-6.933,1.416l-0.09-0.014l-7.397-1.189C10.066,68.756,9.947,69.032,9.82,69.328z"/>
	</g>
</g>
<g opacity="0.07">
	<g>
		<path d="M16.946,1.514c-0.056-0.002,0.892-0.007,0.836-0.009c-0.147-0.005-0.295-0.02-0.443-0.02
			c-0.018,0-0.034,0.002-0.052,0.002c-0.749-0.012-1.457,0.049-2.134,0.16c-5.247,0.747-9.749,4.134-10.297,8.86
			c-0.374,0.806-0.549,1.326-0.549,1.326L4.67,13.17c-0.102,0.793-0.258,1.694-0.447,2.87c-0.972,4.695,1.014,12.303,1.014,19.163
			c0,4.696-4.169,13.438-4.169,13.438l4.014-1.951L2.839,63.287c-0.193,0.107-0.332,0.232-0.341,0.375l-0.16,7.088l0.358,7.453
			l-1.785,1.139c-0.03,0.482-0.098,3.232,0.303,3.568l4.113,1.139c0.565-0.273,0.326-1.902,0.36-2.355l-0.324-0.777
			c0.769-0.043,1.381-0.674,1.381-1.453c0-0.807-0.654-1.461-1.461-1.461c-0.377,0-0.717,0.146-0.976,0.381l-0.141-0.336
			L5.252,65.59c0.015-0.236-0.057-0.879-0.189-1.48l0.372-0.195l1.887-7.019c0.001,0.003,0.002,0.006,0.002,0.008
			c0.879,4.363,2.457,7.324,3.095,10.791l0.028,0.008c-0.03,0.078-0.063,0.16-0.095,0.24l-0.482-0.076
			c-0.358,0.773-1.217,2.859-1.635,3.729c-2.224,4.623,1.55,16.766,1.55,16.766c0.809,4.783,1.799,10.361,2.792,15.844l0.004,0.021
			c2.347,12.961,4.706,25.363,4.706,25.363V88.217l0.529,0.01l0.131,0.002L16.946,1.514z"/>
	</g>
</g>
</svg>
