<?xml version="1.0" encoding="utf-8"?>
<!-- Generator: Adobe Illustrator 15.1.0, SVG Export Plug-In . SVG Version: 6.00 Build 0)  -->
<!DOCTYPE svg PUBLIC "-//W3C//DTD SVG 1.1//EN" "http://www.w3.org/Graphics/SVG/1.1/DTD/svg11.dtd">
<svg version="1.1" id="Layer_1" xmlns="http://www.w3.org/2000/svg" xmlns:xlink="http://www.w3.org/1999/xlink" x="0px" y="0px"
	 width="75.104px" height="144.639px" viewBox="0 0 75.104 144.639" enable-background="new 0 0 75.104 144.639"
	 xml:space="preserve">
<g>
	<g>
		<path fill="#C78672" d="M15.846,14.993l1.366-9.395c0,0,7.045-5.125,14.125-5s12.75,5.787,12.75,5.787l0.772,8.557L15.846,14.993z
			"/>
	</g>
	<g>
		<path fill="#005180" d="M15.268,15.494l1.479-10.176l0.171-0.124c0.286-0.208,7.089-5.098,14.163-5.098l0.265,0.002
			c7.199,0.127,12.857,5.696,13.095,5.933l0.128,0.128l0.838,9.281L15.268,15.494z M17.676,5.884l-1.252,8.608l27.889-0.049
			l-0.707-7.826c-0.87-0.813-6.059-5.409-12.277-5.519l-0.247-0.002C24.933,1.096,18.768,5.134,17.676,5.884z"/>
	</g>
</g>
<g>
	<g>
		<path fill="#005180" d="M45.982,92.288c-0.07-6.758-3.355-12.023-7.336-11.758c-1.912,0.125-3.632,1.512-4.9,3.658h-7.065
			c-1.344-2.373-3.255-3.799-5.367-3.658c-3.98,0.258-7.152,5.955-7.084,12.707l0.371,35.791c0.069,6.762,3.356,12.029,7.336,11.768
			c3.982-0.268,7.152-5.959,7.083-12.711l-0.366-35.434h2.921c-0.004,0.195-0.014,0.389-0.012,0.586l0.371,35.791
			c0.069,6.762,3.356,12.029,7.336,11.768c3.982-0.268,7.152-5.959,7.083-12.711L45.982,92.288z"/>
	</g>
	<g>
		<path fill="#005180" d="M38.986,141.305C38.986,141.305,38.986,141.305,38.986,141.305c-4.165-0.001-7.482-5.392-7.553-12.272
			l-0.371-35.791c0-0.03,0-0.061,0-0.091h-1.904l0.361,34.929c0.072,7.002-3.314,12.93-7.55,13.215
			c-4.308,0.284-7.797-5.205-7.869-12.262l-0.371-35.791c-0.071-7.01,3.316-12.937,7.552-13.211
			c2.141-0.146,4.196,1.166,5.687,3.657h6.497c1.392-2.234,3.212-3.53,5.149-3.657c4.272-0.265,7.795,5.2,7.868,12.252l0.37,35.797
			c0.072,7.002-3.314,12.93-7.55,13.215C39.196,141.301,39.092,141.305,38.986,141.305z M28.148,92.151h3.936l-0.016,0.71
			c-0.003,0.123-0.007,0.246-0.006,0.371l0.371,35.791c0.063,6.22,3.003,11.281,6.552,11.282c0.001,0,0.001,0,0.001,0
			c0.084,0,0.167-0.003,0.25-0.009c3.715-0.249,6.683-5.726,6.616-12.207l-0.37-35.797c-0.065-6.364-3.156-11.5-6.803-11.264
			c-1.668,0.108-3.267,1.321-4.503,3.413l-0.146,0.246H26.39l-0.145-0.254c-1.306-2.307-3.044-3.536-4.898-3.405
			c-3.715,0.24-6.683,5.715-6.617,12.203l0.371,35.791c0.064,6.367,3.171,11.516,6.803,11.273c3.715-0.249,6.683-5.726,6.616-12.207
			L28.148,92.151z"/>
	</g>
</g>
<g>
	<g>
		<path fill="#D7E4F5" d="M36.849,34.521h-6.132h-0.841h-6.132c-6.575,0-11.904,9.81-11.904,21.912l3.052,17.789
			c0,12.098,0.9,12.951,7.476,12.951l7.509,0.127v0.016l0.42-0.008l0.421,0.008v-0.016l7.509-0.127
			c6.575,0,7.476-0.854,7.476-12.951l3.052-17.789C48.753,44.33,43.424,34.521,36.849,34.521z"/>
	</g>
	<g>
		<path fill="#005180" d="M29.376,87.825v-0.034l-7.018-0.118c-7.146,0-7.967-1.383-7.967-13.451l-3.045-17.704
			c-0.007-12.442,5.558-22.497,12.397-22.497h13.104c6.84,0,12.404,10.054,12.404,22.412l-3.059,17.874
			c0.007,11.983-0.813,13.366-7.969,13.366l-7.519,0.143l-0.421-0.008L29.376,87.825z M23.744,35.021
			c-6.288,0-11.404,9.605-11.404,21.412l3.045,17.704c0.007,12.075,0.797,12.536,6.982,12.536l7.929,0.134l7.921-0.134
			c6.194,0,6.984-0.461,6.984-12.451l3.059-17.873c-0.007-11.722-5.123-21.328-11.411-21.328H23.744z"/>
	</g>
</g>
<g>
	<g>
		<path fill="#F8A376" d="M7.7,82.182c-0.81,0.223-1.566-0.771-1.689-2.223c-0.124-1.451,0.431-2.807,1.24-3.029
			c0.808-0.221,1.563,0.773,1.688,2.223C9.063,80.604,8.509,81.959,7.7,82.182z"/>
	</g>
	<g>
		<path fill="#005180" d="M7.473,82.614c-0.949,0-1.731-1.103-1.86-2.62c-0.142-1.659,0.531-3.174,1.532-3.449
			c1.048-0.295,2.047,0.88,2.193,2.574c0.142,1.658-0.531,3.174-1.531,3.449C7.696,82.598,7.584,82.614,7.473,82.614z M7.476,77.299
			c-0.039,0-0.079,0.006-0.119,0.017c-0.54,0.148-1.062,1.257-0.947,2.609c0.107,1.273,0.707,2.009,1.185,1.871
			c0.541-0.148,1.062-1.257,0.947-2.609C8.44,78.021,7.91,77.299,7.476,77.299z"/>
	</g>
</g>
<g>
	<g>
		<path fill="#F8A376" d="M43.368,17.792c-0.775,2.131-0.875,4.576,0.848,5.02c2.227,0.574,0.934-2.514,1.131-3.6
			c0.402-2.232,2.008-3.309,1.402-3.859C45.47,14.187,44.144,15.659,43.368,17.792z"/>
	</g>
	<g>
		<path fill="#005180" d="M44.705,23.282C44.705,23.282,44.705,23.282,44.705,23.282c-0.177,0-0.375-0.028-0.589-0.083
			c-0.587-0.151-1.048-0.516-1.331-1.054c-0.528-1.003-0.451-2.681,0.207-4.49c0.72-1.979,1.749-3.114,2.824-3.114
			c0.423,0,0.827,0.173,1.202,0.516c0.545,0.496,0.161,1.126-0.246,1.794c-0.376,0.616-0.844,1.384-1.032,2.431
			c-0.045,0.25,0.02,0.718,0.083,1.17c0.13,0.935,0.264,1.901-0.219,2.456C45.389,23.156,45.086,23.282,44.705,23.282z
			 M45.816,15.342c-0.688,0-1.501,1.015-2.072,2.587c-0.573,1.576-0.67,3.049-0.251,3.843c0.181,0.343,0.449,0.556,0.822,0.652
			c0.149,0.038,0.28,0.058,0.39,0.058l0,0c0.21,0,0.272-0.072,0.296-0.099c0.243-0.28,0.12-1.17,0.029-1.82
			c-0.074-0.539-0.146-1.048-0.077-1.422c0.215-1.194,0.747-2.068,1.136-2.706c0.174-0.285,0.411-0.674,0.395-0.79
			C46.257,15.445,46.033,15.342,45.816,15.342z"/>
	</g>
</g>
<g>
	<g>
		<path fill="#F8A376" d="M17.335,18.837c0.777,2.133,0.877,4.578-0.844,5.021c-2.229,0.574-0.936-2.514-1.131-3.6
			c-0.404-2.234-2.01-3.309-1.404-3.859C15.235,15.231,16.562,16.706,17.335,18.837z"/>
	</g>
	<g>
		<path fill="#005180" d="M16.002,24.329c-0.382,0-0.685-0.126-0.9-0.374c-0.483-0.555-0.349-1.522-0.219-2.458
			c0.063-0.452,0.129-0.919,0.084-1.167c-0.189-1.048-0.658-1.815-1.034-2.432c-0.407-0.667-0.791-1.297-0.246-1.794
			c0.375-0.342,0.78-0.516,1.203-0.516c1.075,0,2.104,1.135,2.821,3.113c0.659,1.809,0.737,3.489,0.21,4.492
			c-0.284,0.539-0.743,0.903-1.33,1.054C16.377,24.301,16.179,24.329,16.002,24.329z M14.89,16.388c-0.218,0-0.44,0.103-0.664,0.307
			c-0.021,0.113,0.217,0.502,0.391,0.786c0.389,0.638,0.922,1.511,1.138,2.707c0.067,0.375-0.003,0.882-0.078,1.42
			c-0.091,0.651-0.215,1.542,0.029,1.822c0.036,0.042,0.249,0.153,0.687,0.042c0.372-0.096,0.641-0.309,0.821-0.652
			c0.418-0.795,0.321-2.269-0.254-3.845C16.389,17.402,15.576,16.388,14.89,16.388z"/>
	</g>
</g>
<g>
	<g>
		<path fill="#F8A376" d="M44.859,18.692c0-6.396-5.015-12.307-11.425-12.307h-6.099c-6.41,0-11.49,5.91-11.49,12.307V24
			c0,0.354,0.019,0.702,0.05,1.046c0.499,6.35,8.419,15.013,14.487,15.013h1.079c6.115,0,12.961-8.788,13.358-15.149
			c0.023-0.299,0.039-0.602,0.039-0.909V18.692z"/>
	</g>
	<g>
		<path fill="#005180" d="M31.462,40.458h-1.079c-6.473,0-14.397-9.168-14.886-15.381c-0.032-0.351-0.052-0.711-0.052-1.077v-5.308
			c0-6.888,5.445-12.707,11.891-12.707h6.099c6.41,0,11.825,5.819,11.825,12.707V24c0,0.318-0.017,0.631-0.041,0.94
			C44.813,31.426,37.806,40.458,31.462,40.458z M27.336,6.786c-6.012,0-11.09,5.453-11.09,11.907V24c0,0.341,0.018,0.678,0.048,1.01
			C16.8,31.447,24.7,39.659,30.383,39.659h1.079c5.971,0,12.573-8.596,12.959-14.774c0.023-0.295,0.038-0.587,0.038-0.884v-5.308
			c0-6.454-5.049-11.907-11.024-11.907H27.336z"/>
	</g>
</g>
<g>
	<g>
		<path fill="#005180" d="M32.906,25.981h-5.047c-1.346,0-2.44-1.092-2.44-2.435c0-0.619,0.297-1.061,0.584-1.489
			c0.322-0.479,0.655-0.975,0.645-1.825l0.801-0.01c0.013,1.099-0.428,1.754-0.781,2.28c-0.25,0.373-0.447,0.667-0.447,1.043
			c0,0.902,0.735,1.635,1.64,1.635h5.047c0.904,0,1.64-0.733,1.64-1.635c0-0.458-0.285-0.955-0.587-1.48
			c-0.336-0.583-0.683-1.187-0.683-1.838h0.801c0,0.438,0.279,0.924,0.575,1.439c0.341,0.593,0.694,1.207,0.694,1.879
			C35.347,24.889,34.252,25.981,32.906,25.981z"/>
	</g>
</g>
<g>
	<g>
		<ellipse fill="#FFFFFF" cx="22.371" cy="17.341" rx="3.985" ry="3.975"/>
	</g>
	<g>
		<path fill="#005180" d="M22.371,21.715c-2.418,0-4.386-1.962-4.386-4.375c0-2.413,1.968-4.375,4.386-4.375
			s4.385,1.963,4.385,4.375C26.756,19.753,24.789,21.715,22.371,21.715z M22.371,13.765c-1.977,0-3.585,1.604-3.585,3.576
			c0,1.971,1.608,3.575,3.585,3.575s3.584-1.604,3.584-3.575C25.955,15.369,24.348,13.765,22.371,13.765z"/>
	</g>
</g>
<g>
	<g>
		<ellipse fill="#FFFFFF" cx="38.268" cy="17.341" rx="3.985" ry="3.975"/>
	</g>
	<g>
		<path fill="#005180" d="M38.27,21.715c-2.419,0-4.387-1.962-4.387-4.375c0-2.413,1.968-4.375,4.387-4.375
			c2.417,0,4.384,1.963,4.384,4.375C42.653,19.753,40.687,21.715,38.27,21.715z M38.27,13.765c-1.978,0-3.586,1.604-3.586,3.576
			c0,1.971,1.608,3.575,3.586,3.575c1.976,0,3.583-1.604,3.583-3.575C41.853,15.369,40.245,13.765,38.27,13.765z"/>
	</g>
</g>
<g>
	<g>
		<path fill="#C78672" d="M27.377,12.005c-0.053,0.49-0.494,0.893-0.985,0.898l-7.045,0.083c-0.489,0.007-0.843-0.388-0.789-0.876
			l0,0c0.053-0.491,0.493-0.893,0.984-0.898l7.042-0.084C27.075,11.122,27.43,11.515,27.377,12.005L27.377,12.005z"/>
	</g>
	<g>
		<path fill="#005180" d="M19.334,13.486c-0.376,0-0.716-0.149-0.959-0.419c-0.241-0.269-0.355-0.638-0.314-1.011
			c0.08-0.744,0.729-1.335,1.476-1.344l7.042-0.084l0,0c0.395,0,0.736,0.149,0.979,0.42c0.245,0.272,0.357,0.631,0.316,1.011
			c-0.08,0.745-0.729,1.336-1.477,1.345L19.334,13.486z M26.595,11.628l-7.047,0.084c-0.237,0.003-0.468,0.214-0.493,0.452
			c-0.011,0.094,0.013,0.177,0.065,0.236c0.051,0.057,0.125,0.087,0.214,0.087v0.5l0.006-0.5l7.046-0.083
			c0.237-0.003,0.469-0.214,0.494-0.452c0.01-0.094-0.013-0.176-0.065-0.235C26.762,11.658,26.687,11.628,26.595,11.628z"/>
	</g>
</g>
<g>
	<g>
		<path fill="#C78672" d="M42.248,12.005c-0.053,0.49-0.494,0.893-0.985,0.898l-7.045,0.083c-0.489,0.007-0.843-0.388-0.789-0.876
			l0,0c0.053-0.491,0.493-0.893,0.984-0.898l7.042-0.084C41.946,11.122,42.301,11.515,42.248,12.005L42.248,12.005z"/>
	</g>
	<g>
		<path fill="#005180" d="M34.205,13.486c-0.376,0-0.716-0.149-0.959-0.419c-0.241-0.269-0.355-0.638-0.314-1.011
			c0.08-0.744,0.729-1.335,1.476-1.344l7.042-0.084l0,0c0.395,0,0.736,0.149,0.979,0.42c0.245,0.272,0.357,0.631,0.316,1.011
			c-0.08,0.745-0.729,1.336-1.477,1.345L34.205,13.486z M41.466,11.628l-7.047,0.084c-0.237,0.003-0.468,0.214-0.493,0.452
			c-0.011,0.094,0.013,0.177,0.065,0.236c0.051,0.057,0.125,0.087,0.214,0.087v0.5l0.006-0.5l7.046-0.083
			c0.237-0.003,0.469-0.214,0.494-0.452c0.01-0.094-0.013-0.176-0.065-0.235C41.633,11.658,41.558,11.628,41.466,11.628z"/>
	</g>
</g>
<g>
	<g>
		
			<rect x="30.433" y="26.231" transform="matrix(0.0293 0.9996 -0.9996 0.0293 59.7437 -1.8677)" fill="#005180" width="0.8" height="7.19"/>
	</g>
</g>
<g>
	<g>
		<circle fill="#005180" cx="22.371" cy="17.341" r="2.352"/>
	</g>
</g>
<g>
	<g>
		<ellipse fill="#005180" cx="38.269" cy="17.341" rx="2.352" ry="2.347"/>
	</g>
</g>
<g>
	<g>
		<g>
			<path fill="#D7E4F5" d="M15.798,38.466c-2.721-0.541-6.015,1.361-7.354,4.244L2.356,55.812c-1.135,1.09-1.895,3.26-1.855,5.728
				l0.283,18.747c0.053,3.477-0.014,7.254,1.923,7.156l2.421-0.047c5.231,0.418,1.727-5.961,1.676-9.436l2.953-13.847
				c-0.008-0.52-0.109-1.092-0.269-1.685c0.647-0.632,1.196-1.374,1.582-2.202l7.23-15.562C19.642,41.78,18.52,39.005,15.798,38.466
				z"/>
		</g>
		<g>
			<path fill="#005180" d="M2.635,87.944c-2.249,0-2.297-3.589-2.343-7.06L0.001,61.546c-0.039-2.485,0.702-4.782,1.94-6.028
				l6.05-13.02c1.244-2.68,4.126-4.625,6.853-4.625c0.358,0,0.713,0.034,1.052,0.102c1.346,0.267,2.408,1.045,2.991,2.192
				c0.682,1.343,0.634,3.059-0.133,4.706l-7.23,15.562c-0.359,0.773-0.857,1.493-1.48,2.143c0.137,0.568,0.207,1.07,0.214,1.526
				l0.001,0.056L7.305,78.007c0.023,0.909,0.303,2.084,0.572,3.221c0.522,2.203,1.062,4.481,0.05,5.762
				c-0.484,0.613-1.269,0.925-2.33,0.925c-0.001,0-0.001,0-0.001,0c-0.16,0-0.329-0.007-0.508-0.021L2.635,87.944z M14.844,38.874
				c-2.356,0-4.856,1.702-5.946,4.046L2.703,56.172c-1.069,1.026-1.737,3.13-1.702,5.359l0.291,19.339
				c0.036,2.706,0.08,6.073,1.343,6.073v0.5l0.047-0.501l2.437-0.048c0.2,0.014,0.343,0.02,0.478,0.02h0.001
				c0.75,0,1.256-0.178,1.546-0.545c0.712-0.9,0.207-3.031-0.239-4.911c-0.287-1.212-0.585-2.466-0.6-3.492l-0.001-0.056
				l2.953-13.846c-0.013-0.428-0.097-0.935-0.25-1.507L8.93,62.274l0.209-0.205c0.634-0.618,1.131-1.31,1.479-2.055l7.23-15.562
				c0.636-1.368,0.689-2.764,0.147-3.832c-0.441-0.868-1.256-1.459-2.294-1.665C15.426,38.901,15.138,38.874,14.844,38.874z"/>
		</g>
	</g>
	<g>
		<g>
			<path fill="#D7E4F5" d="M72.912,37.688l-2.027-1.324c-4.089-3.289-4.781,3.955-6.694,6.855l-8.938,8.547l-4.208-9.057
				c-1.339-2.883-4.633-4.785-7.354-4.244c-2.722,0.539-3.844,3.314-2.503,6.197l7.23,15.562c1.341,2.883,4.631,4.783,7.354,4.242
				c1.346-0.266,2.298-1.08,2.757-2.182c0.583-0.545,1.139-1.199,1.63-1.945l10.316-15.656
				C72.387,41.782,74.568,38.698,72.912,37.688z"/>
		</g>
		<g>
			<path fill="#005180" d="M54.816,65.06L54.816,65.06c-2.725,0-5.605-1.944-6.852-4.623l-7.23-15.563
				c-0.767-1.647-0.814-3.362-0.133-4.706c0.583-1.147,1.646-1.926,2.992-2.192c0.338-0.067,0.692-0.102,1.051-0.102
				c2.727,0,5.608,1.945,6.853,4.625l3.914,8.423l8.392-8.024c0.492-0.765,0.923-1.893,1.34-2.984
				c0.918-2.404,1.868-4.889,3.85-4.889c0.69,0,1.412,0.311,2.206,0.949l1.987,1.295c0.4,0.244,0.662,0.605,0.766,1.067
				c0.333,1.495-1.153,3.742-2.728,6.122L60.577,60.616c-0.48,0.73-1.028,1.39-1.63,1.963c-0.56,1.254-1.648,2.097-3.078,2.379
				C55.53,65.025,55.176,65.06,54.816,65.06z M44.645,38.874c-0.294,0-0.582,0.027-0.856,0.082
				c-1.039,0.206-1.854,0.797-2.295,1.665c-0.542,1.067-0.488,2.464,0.147,3.831l7.23,15.563c1.091,2.343,3.591,4.044,5.945,4.044
				c0.294,0,0.583-0.027,0.858-0.082c1.13-0.223,1.979-0.892,2.393-1.884l0.12-0.173c0.574-0.536,1.097-1.16,1.554-1.855
				L70.39,43.907c1.325-2.002,2.826-4.272,2.585-5.352c-0.043-0.194-0.143-0.33-0.323-0.439l-2.04-1.333
				c-0.641-0.512-1.173-0.757-1.619-0.757c-1.293,0-2.118,2.159-2.915,4.246c-0.444,1.164-0.904,2.367-1.47,3.224l-0.071,0.086
				l-9.443,9.03l-4.502-9.69C49.501,40.576,47.001,38.874,44.645,38.874z"/>
		</g>
	</g>
</g>
<g>
	<g>
		<path fill="#F8A376" d="M74.041,36.503l-2.293-1.324c-4.624-3.289-5.406,3.955-7.57,6.855l-0.204,0.173
			c1.403,1.223,3.341,2.41,5.951,3.117l1.36-1.825C73.447,40.597,75.914,37.513,74.041,36.503z"/>
	</g>
	<g>
		<path fill="#005180" d="M70.083,45.781L69.82,45.71c-2.345-0.635-4.399-1.712-6.109-3.202l-0.352-0.306l0.56-0.474
			c0.516-0.708,0.992-1.812,1.497-2.981c1.021-2.364,2.077-4.809,4.191-4.809c0.732,0,1.509,0.299,2.372,0.913l2.262,1.304
			c0.44,0.237,0.721,0.594,0.822,1.054c0.324,1.473-1.332,3.687-3.086,6.03L70.083,45.781z M64.564,42.183
			c1.485,1.213,3.233,2.114,5.204,2.683l1.568-2.104c1.496-1.999,3.19-4.264,2.945-5.378c-0.051-0.229-0.188-0.396-0.431-0.528
			l-2.304-1.33c-0.745-0.528-1.388-0.785-1.94-0.785c-1.588,0-2.538,2.199-3.457,4.326C65.667,40.185,65.168,41.34,64.564,42.183z"
			/>
	</g>
</g>
<g>
	<g>
		<path fill="#F8A376" d="M63.966,37.757c0.777-0.316,1.646,0.582,1.939,2.01c0.293,1.424-0.099,2.836-0.875,3.151
			s-1.645-0.584-1.938-2.008C62.798,39.483,63.189,38.073,63.966,37.757z"/>
	</g>
	<g>
		<path fill="#005180" d="M64.713,43.381c-0.895,0-1.723-0.982-2.013-2.39c-0.336-1.63,0.153-3.213,1.114-3.605
			c1.004-0.406,2.141,0.639,2.482,2.3c0.336,1.629-0.155,3.212-1.116,3.603C65.03,43.35,64.872,43.381,64.713,43.381z
			 M64.285,38.093c-0.058,0-0.112,0.011-0.169,0.034c-0.519,0.211-0.906,1.373-0.633,2.702c0.257,1.242,0.923,1.91,1.396,1.718
			c0.519-0.211,0.907-1.372,0.634-2.7C65.287,38.75,64.711,38.093,64.285,38.093z"/>
	</g>
</g>
<g>
	<g>
		<path fill="#F8A376" d="M0.677,80.438c0.053,3.475-0.014,7.252,1.923,7.154l2.421-0.047c5.056,0.404,1.961-5.531,1.701-9.066
			H0.647L0.677,80.438z"/>
	</g>
	<g>
		<path fill="#005180" d="M2.526,87.994c-2.149,0-2.196-3.537-2.241-6.959l-0.044-2.956h6.853L7.12,78.45
			c0.064,0.867,0.304,1.882,0.559,2.955c0.515,2.179,1.048,4.431,0.065,5.673c-0.537,0.679-1.42,0.977-2.756,0.866L2.526,87.994z
			 M1.054,78.879l0.031,2.145c0.038,2.893,0.081,6.17,1.442,6.17v0.4l0.052-0.401l2.434-0.048c0.193,0.014,0.339,0.02,0.477,0.02
			c0.784,0,1.316-0.19,1.627-0.583c0.742-0.938,0.255-2.999-0.217-4.992c-0.217-0.92-0.441-1.867-0.541-2.71H1.054z"/>
	</g>
</g>
<g>
	<g>
		<path fill="#C78672" d="M27.34,139.872c0,2.357-3.47,4.268-7.749,4.268c-4.28,0-7.751-1.129-7.751-1.129
			c0-2.355,3.471-7.404,7.751-7.404C23.87,135.606,27.34,137.516,27.34,139.872z"/>
	</g>
	<g>
		<path fill="#005180" d="M19.591,144.639c-4.31,0-7.761-1.106-7.905-1.153l-0.346-0.112v-0.363c0-2.671,3.735-7.904,8.251-7.904
			c4.626,0,8.249,2.094,8.249,4.766C27.84,142.545,24.217,144.639,19.591,144.639z M12.369,142.645
			c0.999,0.28,3.873,0.994,7.222,0.994c3.93,0,7.249-1.726,7.249-3.768c0-2.041-3.319-3.766-7.249-3.766
			C15.71,136.106,12.697,140.471,12.369,142.645z"/>
	</g>
</g>
<g>
	<g>
		<path fill="#C78672" d="M33.253,139.872c0,2.357,3.47,4.268,7.749,4.268c4.28,0,7.751-1.129,7.751-1.129
			c0-2.355-3.471-7.404-7.751-7.404C36.723,135.606,33.253,137.516,33.253,139.872z"/>
	</g>
	<g>
		<path fill="#005180" d="M41.002,144.639c-4.626,0-8.249-2.094-8.249-4.768c0-2.672,3.623-4.766,8.249-4.766
			c4.516,0,8.251,5.233,8.251,7.904v0.363l-0.346,0.112C48.763,143.533,45.312,144.639,41.002,144.639z M41.002,136.106
			c-3.93,0-7.249,1.725-7.249,3.766c0,2.042,3.319,3.768,7.249,3.768c3.355,0,6.225-0.714,7.222-0.993
			C47.896,140.471,44.883,136.106,41.002,136.106z"/>
	</g>
</g>
<g>
	<g>
		<polygon fill="#F27A9F" points="26.721,40.059 29.253,42.981 33.253,43.631 34.946,39.832 		"/>
	</g>
	<g>
		<path fill="#005180" d="M33.553,44.186l-4.559-0.74l-3.343-3.858l10.075-0.277L33.553,44.186z M29.512,42.517l3.441,0.559
			l1.213-2.722l-6.376,0.176L29.512,42.517z"/>
	</g>
</g>
<g>
	<g>
		<polygon fill="#F27A9F" points="30.833,78.479 25.819,68.964 29.253,42.981 33.253,43.631 35.706,68.989 		"/>
	</g>
	<g>
		<path fill="#005180" d="M30.839,79.562l-5.536-10.506l0.021-0.158l3.501-26.493l4.89,0.794l2.504,25.888L30.839,79.562z
			 M26.336,68.872l4.491,8.524l4.367-8.504l-2.402-24.829l-3.111-0.505L26.336,68.872z"/>
	</g>
</g>
<g opacity="0.07">
	<g>
		<path d="M28.73,92.045h2.385V0c-6.978,0.021-13.826,4.992-13.826,4.992l-1.366,9.395l0.576-0.001
			c-0.161,0.517-0.287,1.044-0.381,1.58c-0.64-0.651-1.37-0.826-2.085-0.173c-0.605,0.551,1,1.625,1.404,3.859
			c0.172,0.958-0.811,3.471,0.485,3.655v0.086c0,0.354,0.019,0.702,0.05,1.046c0.253,3.216,2.411,7.021,5.267,9.997
			c-1.636,0.667-3.146,1.949-4.451,3.714c-0.28-0.127-0.585-0.226-0.913-0.291c-2.721-0.541-6.015,1.361-7.354,4.244L2.434,55.205
			c-1.135,1.09-1.895,3.26-1.855,5.728l0.256,16.939H0.725l0.029,1.961c0.053,3.475-0.014,7.252,1.923,7.154l2.421-0.047
			c1.353,0.107,2.11-0.248,2.506-0.879c0.742-0.945,0.472-2.668,0.061-4.475c0.038-0.004,0.075,0,0.113-0.01
			c0.809-0.223,1.363-1.578,1.239-3.029c-0.125-1.449-0.881-2.445-1.688-2.223c-0.088,0.023-0.171,0.066-0.253,0.117l2.759-12.936
			c-0.008-0.52-0.109-1.092-0.269-1.685c0.647-0.632,1.196-1.374,1.582-2.202l1.037-2.232l2.784,16.227
			c0,5.725,0.203,8.93,1.111,10.721c-1.128,2.244-1.806,5.15-1.773,8.295l0.371,35.793c0.03,2.914,0.659,5.545,1.683,7.582
			c-2.624,1.592-4.443,4.697-4.443,6.4c0,0,3.471,1.129,7.751,1.129c4.279,0,7.749-1.91,7.749-4.268c0-0.74-0.343-1.436-0.945-2.043
			c1.635-2.352,2.665-5.871,2.625-9.744L28.73,92.045z"/>
	</g>
</g>
</svg>
