<?xml version="1.0" encoding="utf-8"?>
<!-- Generator: Adobe Illustrator 15.1.0, SVG Export Plug-In . SVG Version: 6.00 Build 0)  -->
<!DOCTYPE svg PUBLIC "-//W3C//DTD SVG 1.1//EN" "http://www.w3.org/Graphics/SVG/1.1/DTD/svg11.dtd">
<svg version="1.1" id="Layer_1" xmlns="http://www.w3.org/2000/svg" xmlns:xlink="http://www.w3.org/1999/xlink" x="0px" y="0px"
	 width="55.786px" height="131.686px" viewBox="0 0 55.786 131.686" enable-background="new 0 0 55.786 131.686"
	 xml:space="preserve">
<g>
	<g>
		<polygon fill="#005180" points="20.322,80.277 22.234,128.248 29.267,95.244 29.894,92.299 30.433,80.396 		"/>
	</g>
	<g>
		<path fill="#005180" d="M21.961,131.447l-2.056-51.575l10.946,0.129l-0.558,12.316l-0.635,3.01L21.961,131.447z M20.738,80.683
			l1.769,44.366l6.996-32.833l0.512-11.424L20.738,80.683z"/>
	</g>
</g>
<g>
	<g>
		<path fill="#F8A376" d="M32.237,72.072c-0.246-4.375-1.14-5.008-2.829-9.477c0.385-1.67,1.193-8.847,2.305-12.472
			c0.416-1.352,1.096-7.369,1.096-7.369s-5.385-6.533-5.4-7.469c-0.014-0.939,0.149-2.51,0.149-2.51l-6.269,0.705h-0.436
			l-6.21-1.383c0,0,0.104,2.248,0.091,3.188c-0.016,0.936-6.316,7.347-6.316,7.347s0,3.454,1.319,8.246
			c0.067-0.063,2.095,8.197,2.849,11.717c-3.75,4.785-3.209,6.141-3.859,9.201c-1.617,7.738,3.645,18.789,3.645,18.789l16.21,0.215
			C28.581,90.801,32.808,82.223,32.237,72.072z"/>
	</g>
	<g>
		<path fill="#005180" d="M28.828,91.204l-16.711-0.222l-0.107-0.225c-0.217-0.456-5.301-11.262-3.675-19.043
			c0.127-0.6,0.208-1.132,0.285-1.638c0.32-2.101,0.573-3.767,3.536-7.58c-0.704-3.249-2.322-9.86-2.706-11.219H9.433l-0.081-0.293
			c-1.319-4.789-1.334-8.209-1.334-8.352v-0.164l0.115-0.117c2.951-3.003,6.078-6.477,6.203-7.093
			c0.012-0.896-0.091-3.12-0.092-3.142l-0.024-0.523l6.721,1.497l0.349-0.009l6.718-0.758l-0.051,0.495
			c-0.001,0.015-0.161,1.558-0.147,2.462c0.083,0.584,2.765,4.133,5.309,7.22l0.108,0.131l-0.019,0.168
			c-0.028,0.247-0.688,6.07-1.111,7.442c-0.739,2.412-1.343,6.411-1.783,9.33c-0.201,1.332-0.362,2.401-0.488,2.994
			c0.443,1.165,0.827,2.056,1.167,2.845c0.913,2.118,1.463,3.396,1.646,6.64c0.57,10.138-3.654,18.841-3.697,18.928L28.828,91.204z
			 M12.628,90.189l15.699,0.208c0.648-1.418,4.018-9.282,3.51-18.303c-0.174-3.102-0.674-4.262-1.581-6.368
			c-0.354-0.821-0.755-1.753-1.223-2.989l-0.043-0.113l0.027-0.118c0.122-0.53,0.29-1.644,0.502-3.054
			c0.444-2.944,1.053-6.977,1.81-9.446c0.362-1.177,0.948-6.148,1.062-7.129c-1.699-2.066-5.368-6.635-5.384-7.585
			c-0.009-0.63,0.057-1.517,0.105-2.064l-5.779,0.65l-0.48,0.002l-5.788-1.28c0.03,0.726,0.078,2.021,0.068,2.69
			c-0.016,0.97-4.327,5.476-6.313,7.501c0.021,0.729,0.172,3.874,1.302,7.979l-0.018,0.005c0.196,0.458,0.479,1.618,1.195,4.55
			c0.547,2.244,1.275,5.309,1.677,7.185l0.039,0.184L12.9,62.843c-2.942,3.754-3.184,5.343-3.49,7.355
			c-0.079,0.52-0.163,1.066-0.293,1.682C7.671,78.799,11.904,88.588,12.628,90.189z"/>
	</g>
</g>
<g>
	<g>
		<path fill="#9484BE" d="M9.642,10.303c0,0-1.818,0.918-1.817,5.168c0.001,4.252,1.031,9.413,2.188,11.491
			s21.214,4.183,22.68,0.346s2.744-10.021,1.775-13.919c-0.969-3.899-4.016-5.256-4.016-5.256l-15.148-1.16L9.642,10.303z"/>
	</g>
	<g>
		<path fill="#005180" d="M24.241,29.843c-0.001,0-0.001,0-0.002,0c-5.334,0-13.664-1.046-14.576-2.686
			c-1.233-2.216-2.237-7.458-2.238-11.686c-0.001-4.445,1.954-5.483,2.037-5.525l5.747-3.381l15.406,1.203
			c0.132,0.059,3.237,1.482,4.241,5.524c0.98,3.944-0.241,10.104-1.79,14.158C32.311,29.428,27.85,29.843,24.241,29.843z
			 M15.398,7.381l-5.553,3.267c-0.033,0.019-1.621,0.926-1.62,4.823c0.001,4.043,0.979,9.216,2.137,11.297
			c0.488,0.877,7.037,2.274,13.877,2.275c0,0,0.001,0,0.002,0c4.609,0,7.628-0.702,8.078-1.877
			c1.554-4.067,2.657-10.072,1.761-13.68c-0.835-3.363-3.325-4.751-3.734-4.959L15.398,7.381z"/>
	</g>
</g>
<g>
	<g>
		<path fill="#F8A376" d="M9.755,18.715c0.695,1.916,0.785,4.115-0.758,4.514c-2,0.516-0.84-2.26-1.016-3.238
			c-0.363-2.006-1.803-2.973-1.26-3.469C7.871,15.473,9.06,16.797,9.755,18.715z"/>
	</g>
	<g>
		<path fill="#005180" d="M8.559,23.692c-0.442,0-0.7-0.19-0.839-0.35c-0.446-0.513-0.324-1.392-0.207-2.242
			c0.056-0.404,0.114-0.821,0.075-1.039c-0.169-0.933-0.586-1.619-0.921-2.169c-0.358-0.588-0.728-1.196-0.215-1.666
			c0.345-0.315,0.717-0.474,1.107-0.474c0.983,0,1.92,1.03,2.572,2.827c0.286,0.787,0.875,2.759,0.183,4.072
			c-0.26,0.493-0.681,0.827-1.217,0.965C8.902,23.667,8.721,23.692,8.559,23.692z M7.56,16.552c-0.184,0-0.375,0.089-0.568,0.265
			c0.004,0.077,0.209,0.413,0.358,0.659c0.35,0.576,0.83,1.364,1.025,2.443c0.062,0.344-0.002,0.804-0.07,1.291
			c-0.08,0.578-0.19,1.369,0.018,1.607c0.027,0.032,0.208,0.119,0.574,0.024c0.321-0.083,0.553-0.267,0.709-0.563
			c0.372-0.704,0.284-2.018-0.227-3.427C8.873,17.455,8.159,16.552,7.56,16.552z"/>
	</g>
</g>
<g>
	<g>
		<path fill="#F8A376" d="M33.129,18.391c-0.695,1.916-0.785,4.115,0.758,4.514c2,0.516,0.84-2.26,1.016-3.238
			c0.363-2.006,1.803-2.973,1.26-3.469C35.014,15.149,33.825,16.473,33.129,18.391z"/>
	</g>
	<g>
		<path fill="#005180" d="M34.326,23.368C34.326,23.368,34.326,23.368,34.326,23.368c-0.162,0-0.343-0.026-0.539-0.076
			c-0.536-0.138-0.957-0.472-1.217-0.965c-0.692-1.313-0.103-3.286,0.183-4.072c0.651-1.796,1.588-2.827,2.572-2.827
			c0.39,0,0.763,0.159,1.107,0.474c0.514,0.469,0.144,1.077-0.214,1.666c-0.335,0.551-0.752,1.236-0.921,2.17
			c-0.039,0.217,0.019,0.635,0.075,1.039c0.118,0.85,0.24,1.729-0.207,2.242C35.026,23.178,34.768,23.368,34.326,23.368z
			 M35.325,16.228c-0.599,0-1.313,0.902-1.82,2.299c-0.511,1.409-0.599,2.723-0.227,3.427c0.156,0.296,0.388,0.48,0.709,0.563
			c0.13,0.034,0.244,0.05,0.339,0.05l0,0c0.17,0,0.218-0.054,0.235-0.075c0.208-0.238,0.098-1.029,0.018-1.607
			c-0.068-0.487-0.132-0.947-0.07-1.291c0.195-1.08,0.675-1.868,1.025-2.444c0.149-0.246,0.354-0.582,0.349-0.687
			C35.7,16.317,35.509,16.228,35.325,16.228z"/>
	</g>
</g>
<g>
	<g>
		<polygon fill="#005180" points="22.392,80.918 15.811,128.475 12.031,94.941 11.695,91.949 12.318,80.051 		"/>
	</g>
	<g>
		<path fill="#005180" d="M15.771,131.686l-4.473-39.691l0.643-12.377l10.906,0.938L15.771,131.686z M12.696,80.484L12.094,91.97
			l3.757,33.294l6.086-43.983L12.696,80.484z"/>
	</g>
</g>
<g>
	<g>
		<polygon fill="#F27A9F" points="32.843,42.217 39.869,59.374 35.299,59.629 25.377,45.337 		"/>
	</g>
	<g>
		<path fill="#005180" d="M35.098,60.042L24.767,45.159l8.294-3.466l7.391,18.049L35.098,60.042z M25.988,45.516L35.5,59.217
			l3.785-0.212l-6.66-16.264L25.988,45.516z"/>
	</g>
</g>
<g>
	<g>
		<polyline fill="#9484BE" points="30.79,29.098 31.823,34.76 29.241,31.145 30.79,36.26 27.557,32.776 26.897,29.725 
			32.543,24.676 		"/>
	</g>
	<g>
		<path fill="#005180" d="M31.674,37.802l-4.485-4.834l-0.733-3.386l5.82-5.204l0.533,0.597l-4.568,4.084l2.866,4.013l-0.712-3.901
			l0.787-0.144l1.354,7.423l-2.209-3.094L31.674,37.802z M27.925,32.584l1.98,2.134l-1.703-5.624l-0.865,0.773L27.925,32.584z"/>
	</g>
</g>
<g>
	<g>
		<path fill="#9484BE" d="M9.788,23.604c0,0,0.209,1.18,0.236,4.051s0,4.346,0,4.346l1.385-3.58v4.639l1.549-2.592l-1.549,5.115
			l3.234-3.484l0.66-3.053L9.788,23.604z"/>
	</g>
	<g>
		<path fill="#005180" d="M10.524,37.124l1.107-3.658l-0.623,1.042v-3.945l-1.427,3.688l0.042-2.258c0-0.004,0.027-1.475,0-4.334
			c-0.027-2.79-0.229-3.974-0.23-3.985l-0.215-1.232l5.102,5.033l0.003-0.005l-0.002,0.007l1.459,1.439l-0.73,3.375L10.524,37.124z
			 M14.02,28.341l-1.727,5.701l1.982-2.135l0.59-2.73L14.02,28.341z M11.809,26.277v5.333l2.049-3.429l-3.55-3.502
			c0.052,0.664,0.104,1.637,0.116,2.972c0.008,0.847,0.011,1.573,0.012,2.176L11.809,26.277z"/>
	</g>
</g>
<g>
	<g>
		<path fill="#F8A376" d="M10.258,25.625c1.957,6.277,11.154,11.758,11.154,11.758s9.08-5.127,11.193-11.758l1.057-8.438
			c1.135-7.721-5.047-11.271-11.271-11.271h-0.939h-0.039h-0.939c-6.225,0-12.682,3.727-11.271,11.271L10.258,25.625z"/>
	</g>
	<g>
		<path fill="#005180" d="M21.407,37.846l-0.199-0.119c-0.381-0.227-9.352-5.632-11.332-11.982l-1.072-8.507
			c-0.552-2.951,0.056-5.61,1.763-7.665c2.109-2.54,5.812-4.056,9.905-4.056h1.918c4.037,0,7.559,1.397,9.664,3.834
			c1.769,2.048,2.461,4.778,2.003,7.895l-1.055,8.429c-2.152,6.775-11.017,11.844-11.394,12.056L21.407,37.846z M20.473,6.316
			c-3.858,0-7.331,1.408-9.29,3.767c-1.572,1.893-2.106,4.259-1.588,7.031l1.061,8.461c1.717,5.488,9.418,10.5,10.762,11.341
			c1.34-0.8,8.939-5.551,10.807-11.413l1.041-8.366c0.431-2.93-0.181-5.371-1.816-7.264c-1.953-2.261-5.254-3.558-9.059-3.558
			H20.473z"/>
	</g>
</g>
<g>
	<g>
		<circle fill="#FFFFFF" cx="15.303" cy="18.637" r="3.895"/>
	</g>
	<g>
		<path fill="#005180" d="M15.303,22.932c-2.368,0-4.294-1.926-4.294-4.294c0-2.367,1.926-4.292,4.294-4.292
			s4.294,1.926,4.294,4.292C19.598,21.005,17.671,22.932,15.303,22.932z M15.303,15.145c-1.927,0-3.495,1.567-3.495,3.493
			c0,1.927,1.568,3.495,3.495,3.495s3.495-1.568,3.495-3.495C18.798,16.711,17.23,15.145,15.303,15.145z"/>
	</g>
</g>
<g>
	<g>
		<circle fill="#005180" cx="14.226" cy="18.637" r="2.817"/>
	</g>
	<g>
		<path fill="#005180" d="M14.225,21.855c-1.773,0-3.216-1.444-3.216-3.218c0-1.773,1.443-3.216,3.216-3.216
			c1.774,0,3.218,1.443,3.218,3.216C17.443,20.412,16,21.855,14.225,21.855z M14.225,16.221c-1.333,0-2.417,1.084-2.417,2.417
			c0,1.333,1.084,2.418,2.417,2.418c1.333,0,2.418-1.085,2.418-2.418C16.644,17.305,15.559,16.221,14.225,16.221z"/>
	</g>
</g>
<g>
	<g>
		<circle fill="#FFFFFF" cx="27.233" cy="18.637" r="3.895"/>
	</g>
	<g>
		<path fill="#005180" d="M27.233,22.932c-2.368,0-4.294-1.926-4.294-4.294c0-2.367,1.926-4.292,4.294-4.292
			s4.294,1.926,4.294,4.292C31.527,21.005,29.601,22.932,27.233,22.932z M27.233,15.145c-1.927,0-3.495,1.567-3.495,3.493
			c0,1.927,1.568,3.495,3.495,3.495s3.495-1.568,3.495-3.495C30.728,16.711,29.16,15.145,27.233,15.145z"/>
	</g>
</g>
<g>
	<g>
		<circle fill="#005180" cx="26.156" cy="18.637" r="2.817"/>
	</g>
	<g>
		<path fill="#005180" d="M26.157,21.855c-1.774,0-3.218-1.444-3.218-3.218c0-1.773,1.444-3.216,3.218-3.216
			c1.773,0,3.216,1.443,3.216,3.216C29.373,20.412,27.93,21.855,26.157,21.855z M26.157,16.221c-1.333,0-2.418,1.084-2.418,2.417
			c0,1.333,1.085,2.418,2.418,2.418c1.333,0,2.417-1.085,2.417-2.418C28.573,17.305,27.489,16.221,26.157,16.221z"/>
	</g>
</g>
<g>
	<g>
		<path fill="#005180" d="M21.403,25.562c-1.396,0-2-1.046-2.446-2.177c-0.171-0.437,0.115-0.78,0.392-1.113
			c0.397-0.476,0.997-1.196,1.027-2.719l0.8,0.016c-0.036,1.804-0.772,2.688-1.213,3.216c-0.102,0.123-0.242,0.291-0.258,0.352
			c0.413,1.013,0.825,1.626,1.698,1.626c0.751,0,1.322-0.556,1.696-1.653c-0.013-0.047-0.162-0.231-0.271-0.365
			c-0.427-0.527-1.143-1.41-1.196-3.171l0.8-0.024c0.045,1.492,0.607,2.186,1.018,2.692c0.287,0.354,0.558,0.688,0.406,1.128
			C23.366,24.804,22.518,25.562,21.403,25.562z"/>
	</g>
</g>
<g>
	<g>
		<path stroke="#005180" stroke-width="0.8" stroke-miterlimit="10" d="M9.006,24.303"/>
	</g>
</g>
<g>
	<g>
		<path fill="#9484BE" d="M32.606,25.625c0,0,0.229,2.051-0.062,4.477c-0.289,2.428-0.824,4.094-0.824,4.094l-1.268-4.562
			L32.606,25.625z"/>
	</g>
	<g>
		<path fill="#005180" d="M31.691,35.59l-1.668-6.005l2.838-5.28l0.142,1.275c0.01,0.086,0.23,2.125-0.063,4.569
			c-0.29,2.438-0.818,4.099-0.84,4.168L31.691,35.59z M30.88,29.681l0.825,2.97c0.151-0.681,0.319-1.571,0.441-2.597
			c0.136-1.137,0.156-2.196,0.139-2.988L30.88,29.681z"/>
	</g>
</g>
<g>
	<g>
		<path fill="#89566E" d="M23.167,29.555c-0.348,1.482-1.002,0.893-1.766,0.893c-0.762,0-1.418,0.59-1.766-0.893H23.167z"/>
	</g>
	<g>
		<path fill="#005180" d="M22.334,30.963c-0.155,0-0.321-0.028-0.495-0.06c-0.279-0.053-0.598-0.053-0.877,0
			c-0.173,0.032-0.339,0.06-0.495,0.06c-0.819,0-1.09-0.751-1.223-1.317l-0.115-0.491h4.541l-0.115,0.491
			C23.423,30.212,23.152,30.963,22.334,30.963z M21.401,30.048c0.203,0,0.399,0.034,0.585,0.069
			c0.122,0.022,0.239,0.047,0.348,0.047c0.065,0,0.167,0,0.277-0.208H20.19c0.11,0.208,0.212,0.208,0.278,0.208
			c0.109,0,0.226-0.024,0.349-0.047C21.003,30.082,21.199,30.048,21.401,30.048z"/>
	</g>
</g>
<g>
	<g>
		<path fill="#9484BE" d="M9.657,18.637c0,0-0.104-2.574,0.66-3.66S13.37,12.6,13.37,12.6l-2.906-1.146l-0.969,0.734v4.521
			L9.657,18.637z"/>
	</g>
	<g>
		<path fill="#005180" d="M9.258,18.671l-0.162-1.928l-0.001-4.754l1.306-0.99l3.896,1.537l-0.73,0.412
			c-0.022,0.013-2.22,1.26-2.922,2.259c-0.562,0.8-0.615,2.736-0.587,3.414L9.258,18.671z M9.895,12.387v2.508
			c0.03-0.052,0.062-0.101,0.095-0.148c0.535-0.76,1.717-1.585,2.482-2.071l-1.946-0.768L9.895,12.387z"/>
	</g>
</g>
<g>
	<g>
		<path fill="#9484BE" d="M34.064,10.721c-0.322-1.322-2.875-4.58-3.549-5.254c-0.676-0.676-1.85-3.596-1.85-3.596l-0.05,1.18
			c-1.78-1.402-4.229-1.874-7.214-1.923C11.931,0.972,8.418,11.475,8.418,11.475l0.783,2.885l0.455-2.529
			c0,0,4.047,2.031,10.307,1.914c6.262-0.117,6.262-0.117,6.262-0.117l-4.824-3.172c0,0,7.957,2.898,9.482,2.781h0.002
			c0.609,0.432,1.252,0.953,1.592,1.438c0.764,1.086,0.662,3.66,0.662,3.66l0.16-1.928v-3.664c0.311-0.098,0.5-0.172,0.5-0.172
			s-0.021-0.076-0.063-0.207c0.201,0.195,0.329,0.312,0.328,0.295C34.06,12.538,34.386,12.042,34.064,10.721z"/>
	</g>
	<g>
		<path fill="#005180" d="M33.538,18.368l-0.798-0.049c0.026-0.679-0.028-2.616-0.589-3.415c-0.244-0.348-0.723-0.784-1.388-1.264
			c-1.081-0.014-4.09-0.952-6.436-1.74l3.199,2.104l-8.083,0.146c-4.843,0-8.266-1.23-9.482-1.744l-0.679,3.772L8,11.463
			l0.039-0.115C8.075,11.242,11.7,0.727,21.193,0.727l0.216,0.002c3.061,0.05,5.212,0.54,6.838,1.572L28.344,0l0.692,1.722
			c0.318,0.792,1.255,2.956,1.761,3.462c0.637,0.637,3.295,3.966,3.655,5.442c0.287,1.174,0.101,1.778,0.021,2.036l0.013,0.413
			l-0.424-0.015c-0.09,0-0.153-0.017-0.234-0.074c-0.036,0.013-0.079,0.028-0.129,0.045v3.375L33.538,18.368z M18.316,8.906
			l3.221,1.173c2.108,0.768,7.878,2.761,9.248,2.761h0.127l0.202,0.07c0.807,0.57,1.375,1.086,1.69,1.535
			c0.033,0.047,0.065,0.097,0.095,0.148l0-2.144l0.28-0.088c0.043-0.014,0.084-0.027,0.123-0.04l-0.437-1.36l0.938,0.911
			c0.009-0.255-0.017-0.598-0.129-1.057c-0.288-1.18-2.728-4.351-3.443-5.066c-0.373-0.372-0.851-1.29-1.241-2.124l-0.009,0.223
			l-0.614-0.483c-1.545-1.217-3.695-1.784-6.973-1.837l-0.203-0.001c-8.402,0-11.949,8.866-12.355,9.965l0.285,1.05l0.235-1.308
			l0.478,0.239c0.038,0.019,3.82,1.876,9.606,1.876l5.483-0.098L18.316,8.906z"/>
	</g>
</g>
<g>
	<g>
		<polygon fill="#F27A9F" points="8.461,42.485 0.614,57.595 4.773,58.209 15.037,45.958 		"/>
	</g>
	<g>
		<path fill="#005180" d="M4.936,58.638L0,57.909l8.292-15.966l7.369,3.892L4.936,58.638z M1.228,57.282l3.382,0.5l9.802-11.701
			l-5.781-3.053L1.228,57.282z"/>
	</g>
</g>
<g>
	<g>
		<polygon fill="#F8A376" points="34.487,56.168 54.025,44.231 37.067,63.035 		"/>
	</g>
	<g>
		<path fill="#005180" d="M37.067,63.436c-0.025,0-0.05-0.003-0.074-0.008c-0.137-0.025-0.251-0.121-0.3-0.252l-2.58-6.867
			c-0.067-0.18,0.002-0.382,0.166-0.482L53.816,43.89c0.169-0.103,0.389-0.067,0.516,0.086c0.127,0.153,0.123,0.375-0.011,0.523
			L37.364,63.303C37.287,63.388,37.179,63.436,37.067,63.436z M34.978,56.337l2.232,5.942l14.674-16.271L34.978,56.337z"/>
	</g>
</g>
<g>
	<g>
		<path fill="#89566E" d="M23.338,28.346c-0.381-1.217-1.086-0.459-1.924-0.459c-0.834,0-1.568-0.758-1.949,0.459H23.338z"/>
	</g>
	<g>
		<path fill="#005180" d="M23.883,28.746h-4.962l0.163-0.52c0.202-0.646,0.565-0.973,1.079-0.973c0.222,0,0.441,0.061,0.654,0.12
			c0.402,0.112,0.801,0.11,1.196,0c0.208-0.059,0.423-0.12,0.642-0.12c0.762,0,0.991,0.732,1.066,0.973L23.883,28.746z"/>
	</g>
</g>
<g>
	<g>
		<path fill="#F27A9F" d="M29.408,63.477c0.385-1.67,1.963-6.323,3.216-11.545c1.069-4.456,0.185-8.296,0.185-8.296
			s-3.361-4.08-4.777-6.252c-1.555,1.379-3.772,2.894-6.293,3.219c-3.357,0.434-6.335-1.721-7.848-3.084
			c-1.717,2.172-5.473,5.994-5.473,5.994s-0.939,4.255,0.38,9.047c1.08,4.418,3.034,7.396,3.788,10.917
			c-3.75,4.785-3.209,6.141-3.859,9.199c-1.617,7.74,3.645,18.791,3.645,18.791l16.21,0.215c0,0,4.228-8.578,3.656-18.729
			C31.991,68.578,31.097,67.945,29.408,63.477z"/>
	</g>
	<g>
		<path fill="#005180" d="M28.828,92.085l-16.711-0.222l-0.107-0.225c-0.217-0.456-5.301-11.262-3.675-19.045
			c0.127-0.6,0.208-1.131,0.285-1.637c0.32-2.101,0.573-3.765,3.535-7.578c-0.371-1.63-1.006-3.167-1.677-4.792
			c-0.744-1.799-1.513-3.66-2.068-5.933c-1.327-4.821-0.421-9.051-0.382-9.229l0.025-0.112l0.081-0.082
			c0.037-0.038,3.76-3.832,5.444-5.962l0.265-0.335l0.317,0.286c1.379,1.243,4.29,3.4,7.529,2.985
			c2.476-0.32,4.672-1.874,6.079-3.122l0.347-0.308l0.253,0.389c1.388,2.128,4.718,6.175,4.751,6.216l0.081,0.165
			c0.037,0.161,0.894,3.983-0.185,8.479c-0.781,3.256-1.69,6.297-2.354,8.518c-0.377,1.262-0.68,2.275-0.833,2.907
			c0.443,1.164,0.826,2.054,1.166,2.842c0.913,2.118,1.463,3.396,1.646,6.64c0.571,10.138-3.654,18.841-3.697,18.928L28.828,92.085z
			 M12.628,91.07l15.699,0.208c0.648-1.418,4.018-9.282,3.51-18.303c-0.174-3.102-0.674-4.262-1.581-6.368
			c-0.354-0.821-0.755-1.753-1.223-2.989l-0.043-0.113l0.027-0.118c0.148-0.645,0.469-1.717,0.874-3.073
			c0.661-2.212,1.566-5.241,2.342-8.476c0.945-3.939,0.322-7.43,0.203-8.024c-0.452-0.55-3.076-3.763-4.487-5.831
			c-2.033,1.717-4.155,2.758-6.161,3.016c-3.306,0.433-6.269-1.556-7.849-2.905c-1.66,2.026-4.606,5.054-5.153,5.613
			c-0.13,0.688-0.765,4.529,0.396,8.746c0.544,2.224,1.301,4.057,2.033,5.829c0.71,1.719,1.381,3.342,1.76,5.111l0.039,0.184
			L12.9,63.724c-2.942,3.753-3.184,5.342-3.49,7.354c-0.079,0.52-0.163,1.067-0.293,1.682C7.672,79.676,11.905,89.469,12.628,91.07z
			"/>
	</g>
</g>
<g>
	<g>
		<path fill="#FEBE14" d="M12.504,62.85c0.008,0.041,0.021,0.088,0.029,0.127c-3.919,5-3.393,6.451-4.072,9.648
			C6.772,80.711,12.27,92.26,12.27,92.26s4.306,1.381,9.056,1.379c5.839-0.004,7.884-1.154,7.884-1.154s4.418-8.963,3.821-19.57
			c-0.258-4.572-1.268-5.268-3.033-9.938c0.009-0.037,0.024-0.086,0.034-0.127c0,0-4.131,2.701-9.419,2.725
			C15.325,65.596,12.504,62.85,12.504,62.85z"/>
	</g>
	<g>
		<path fill="#005180" d="M21.326,94.139h-0.011c-4.769,0-9.02-1.346-9.198-1.402l-0.206-0.066l-0.093-0.195
			c-0.227-0.478-5.551-11.795-3.846-19.952c0.129-0.61,0.214-1.154,0.295-1.673c0.348-2.228,0.624-3.994,3.732-8.002l-0.251-1.319
			l1.104,0.962c0.027,0.026,2.736,2.584,7.699,2.584c5.141-0.022,9.167-2.617,9.207-2.644l1.05-0.687l-0.287,1.205
			c0.479,1.255,0.897,2.208,1.268,3.053c0.968,2.204,1.552,3.535,1.74,6.884c0.597,10.616-3.827,19.729-3.872,19.819l-0.068,0.14
			l-0.135,0.075C29.367,92.97,27.228,94.135,21.326,94.139z M12.63,91.847c0.907,0.267,4.657,1.292,8.686,1.292v0.5l0.01-0.5
			c4.794-0.003,6.975-0.798,7.508-1.029c0.568-1.226,4.238-9.569,3.698-19.167c-0.179-3.169-0.704-4.366-1.658-6.539
			c-0.344-0.783-0.728-1.658-1.165-2.781c-1.349,0.753-4.835,2.434-9.094,2.452c-4.22,0-6.901-1.646-7.955-2.444
			c-2.829,3.685-3.084,5.32-3.405,7.374c-0.083,0.535-0.171,1.097-0.305,1.725C7.434,79.987,11.924,90.292,12.63,91.847z"/>
	</g>
</g>
<g>
	<g>
		<polygon fill="#F8A376" points="0.614,57.955 10.817,76.34 6.475,56.178 		"/>
	</g>
	<g>
		<path fill="#005180" d="M10.817,76.74c-0.142,0-0.277-0.076-0.35-0.206L0.264,58.149c-0.059-0.106-0.066-0.232-0.021-0.345
			c0.045-0.112,0.139-0.197,0.254-0.232l5.861-1.776c0.106-0.034,0.222-0.019,0.319,0.038c0.096,0.057,0.165,0.151,0.188,0.261
			l4.342,20.162c0.042,0.193-0.065,0.389-0.25,0.458C10.912,76.731,10.864,76.74,10.817,76.74z M1.204,58.194l8.654,15.594
			L6.175,56.687L1.204,58.194z"/>
	</g>
</g>
<g>
	<g>
		<path fill="#F8A376" d="M13.918,75.689c0.198,0.322,0.099,0.742-0.222,0.939L11.644,77.9c-0.32,0.199-0.741,0.1-0.939-0.221
			L8.9,74.766c-0.198-0.32-0.1-0.74,0.221-0.938l2.055-1.273c0.32-0.197,0.74-0.098,0.939,0.221L13.918,75.689z"/>
	</g>
	<g>
		<path fill="#005180" d="M11.285,78.403c-0.377,0-0.722-0.192-0.921-0.513L8.56,74.977c-0.153-0.247-0.2-0.537-0.133-0.818
			s0.238-0.52,0.484-0.671l2.054-1.272c0.496-0.304,1.184-0.141,1.489,0.349l1.805,2.915c0.313,0.51,0.155,1.179-0.352,1.491
			l-2.052,1.271C11.684,78.347,11.487,78.403,11.285,78.403z M11.533,72.854c-0.052,0-0.103,0.015-0.147,0.042l-2.054,1.272
			c-0.064,0.04-0.109,0.102-0.126,0.174C9.188,74.415,9.2,74.491,9.24,74.555l1.804,2.914c0.08,0.128,0.26,0.174,0.388,0.092
			l2.054-1.271c0.133-0.082,0.173-0.257,0.091-0.39l-1.803-2.913C11.723,72.903,11.632,72.854,11.533,72.854z"/>
	</g>
</g>
<g>
	<g>
		<circle fill="#F8A376" cx="11.432" cy="72.453" r="1.461"/>
	</g>
	<g>
		<path fill="#005180" d="M11.432,74.314c-1.026,0-1.861-0.835-1.861-1.861s0.834-1.861,1.861-1.861s1.861,0.835,1.861,1.861
			S12.458,74.314,11.432,74.314z M11.432,71.393c-0.585,0-1.061,0.476-1.061,1.061s0.476,1.061,1.061,1.061s1.061-0.476,1.061-1.061
			S12.017,71.393,11.432,71.393z"/>
	</g>
</g>
<g>
	<g>
		<path fill="#F8A376" d="M55.285,48.479c0.198,0.32,0.099,0.74-0.222,0.939L53.01,50.69c-0.32,0.198-0.741,0.1-0.939-0.221
			l-1.805-2.914c-0.198-0.32-0.1-0.741,0.221-0.939l2.055-1.271c0.32-0.199,0.74-0.1,0.939,0.221L55.285,48.479z"/>
	</g>
	<g>
		<path fill="#005180" d="M52.651,51.192c-0.378,0-0.722-0.192-0.921-0.513l-1.804-2.914c-0.152-0.246-0.2-0.536-0.134-0.817
			c0.066-0.282,0.238-0.521,0.484-0.673l2.055-1.271c0.492-0.304,1.184-0.142,1.49,0.35l1.804,2.915
			c0.313,0.506,0.156,1.174-0.351,1.49l-2.054,1.271C53.049,51.136,52.853,51.192,52.651,51.192z M52.9,45.642
			c-0.052,0-0.102,0.014-0.147,0.042l-2.056,1.272c-0.064,0.04-0.108,0.102-0.126,0.175c-0.017,0.074-0.005,0.149,0.035,0.214
			l1.804,2.914c0.08,0.128,0.26,0.17,0.389,0.091l2.053-1.271c0.132-0.083,0.174-0.257,0.092-0.389l-1.804-2.914
			C53.089,45.692,52.999,45.642,52.9,45.642z"/>
	</g>
</g>
<g>
	<g>
		<circle fill="#F8A376" cx="52.798" cy="45.242" r="1.461"/>
	</g>
	<g>
		<path fill="#005180" d="M52.798,47.103c-1.026,0-1.861-0.834-1.861-1.861s0.834-1.861,1.861-1.861s1.861,0.834,1.861,1.861
			S53.825,47.103,52.798,47.103z M52.798,44.181c-0.585,0-1.061,0.476-1.061,1.061s0.476,1.061,1.061,1.061s1.061-0.476,1.061-1.061
			S53.383,44.181,52.798,44.181z"/>
	</g>
</g>
<g opacity="0.07">
	<g>
		<path d="M21.058,0.739C12.337,1.3,8.381,10.802,8.381,10.802l0.076,0.281c-0.362,0.789-0.671,1.967-0.67,3.715
			c0,0.243,0.005,0.491,0.011,0.739c-0.363-0.1-0.74-0.029-1.113,0.312c-0.543,0.496,0.896,1.463,1.26,3.469
			c0.168,0.935-0.875,3.499,0.77,3.281c0.363,1.548,0.801,2.863,1.26,3.688c0.005,0.225,0.01,0.445,0.013,0.694
			c0.027,2.871,0,4.346,0,4.346l1.385-3.58v4.639l1.549-2.592l-1.549,5.115l3.233-3.483h0.001c0.001,0.009,0.104,2.249,0.091,3.187
			c-0.015,0.865-5.399,6.408-6.206,7.234l-0.066-0.035l-7.848,15.11l0.798,0.118l-0.798,0.241l7.925,14.281
			c-0.024,0.129-0.049,0.256-0.077,0.391c-1.362,6.518,1.946,15.283,3.28,18.438l-0.047,0.887l0.336,2.992l3.78,33.533L20.369,94.6
			L21.058,0.739z M9.406,67.348c-0.1,0.266-0.181,0.521-0.252,0.771L6.438,55.505H6.437l2.5-2.983
			c1.03,3.795,2.646,6.556,3.441,9.625C10.548,64.516,9.792,66.029,9.406,67.348z"/>
	</g>
</g>
</svg>
