<?xml version="1.0" encoding="utf-8"?>
<!-- Generator: Adobe Illustrator 15.1.0, SVG Export Plug-In . SVG Version: 6.00 Build 0)  -->
<!DOCTYPE svg PUBLIC "-//W3C//DTD SVG 1.1//EN" "http://www.w3.org/Graphics/SVG/1.1/DTD/svg11.dtd">
<svg version="1.1" id="Layer_1" xmlns="http://www.w3.org/2000/svg" xmlns:xlink="http://www.w3.org/1999/xlink" x="0px" y="0px"
	 width="463.64px" height="231.937px" viewBox="0 0 463.64 231.937" enable-background="new 0 0 463.64 231.937"
	 xml:space="preserve">
<g opacity="0.07">
	<g>
		<ellipse cx="29.294" cy="225.724" rx="29.294" ry="6.213"/>
	</g>
</g>
<g opacity="0.07">
	<g>
		<ellipse cx="425.007" cy="225.724" rx="37.159" ry="6.213"/>
	</g>
</g>
<g>
	<g>
		<path d="M368.131,99.998c0,0-0.725-1.268-0.07,1.336s1.347,5.404,2.167,6.754s6.737-0.817,6.987-1.9
			c0.25-1.084,0.686-1.635,0.686-1.635s-2.103-6.404-3.603-6.969C372.798,97.02,368.131,99.998,368.131,99.998z"/>
	</g>
</g>
<g>
	<g>
		<g>
			<path fill="#9484BE" d="M222.082,180.919c-41.789,0-75.786-33.998-75.786-75.787s33.998-75.787,75.786-75.787
				c41.79,0,75.789,33.998,75.789,75.787S263.872,180.919,222.082,180.919z"/>
		</g>
	</g>
	<g>
		<g>
			<path fill="#005180" d="M222.082,29.845c41.581,0,75.289,33.707,75.289,75.287s-33.708,75.287-75.289,75.287
				c-41.58,0-75.286-33.707-75.286-75.287S180.502,29.845,222.082,29.845 M222.082,28.845c-42.064,0-76.286,34.222-76.286,76.287
				c0,42.064,34.222,76.287,76.286,76.287c42.066,0,76.289-34.223,76.289-76.287C298.371,63.067,264.148,28.845,222.082,28.845
				L222.082,28.845z"/>
		</g>
	</g>
</g>
<g>
	<g>
		<path fill="#F27A9F" d="M10.039,70.404c2.056-4.054,0.366-8.832,1.673-15.15c0.448-2.784,0.771-4.442,0.771-6.138
			c0-7.942,8.146-13.45,16.882-13.45c7.79,0,15.713,5.583,17.021,12.33c0,0,1.058,2.815,0.808,7.365
			c-0.251,4.55,0.255,10.73,2.441,15.043c2.86,5.635,1.872,7.737,0.768,10.176c-1.104,2.439-2.281,3.575-2.281,3.575L32.951,97.97
			H24.58L11.555,84.155c0,0-1.179-1.136-2.283-3.575C8.169,78.141,7.179,76.039,10.039,70.404z"/>
	</g>
	<g>
		<path fill="#005180" d="M33.106,98.37h-8.699L11.264,84.429c-0.037-0.035-1.233-1.204-2.356-3.685
			c-1.118-2.472-2.151-4.757,0.775-10.522c1.096-2.162,1.084-4.576,1.071-7.371c-0.011-2.262-0.023-4.825,0.567-7.68l0.192-1.181
			c0.343-2.09,0.57-3.471,0.57-4.876c0-8.555,8.971-13.85,17.282-13.85c8.109,0,16.084,5.795,17.413,12.654
			c0.026,0.054,1.066,2.882,0.814,7.463c-0.118,2.139-0.293,9.53,2.399,14.84c2.928,5.769,1.893,8.054,0.797,10.474
			c-1.145,2.528-2.339,3.697-2.39,3.746L33.106,98.37z M24.753,97.57h8.043l15.054-13.711c0.002-0.002,1.132-1.116,2.187-3.444
			c1.081-2.385,1.995-4.403-0.76-9.83c-2.783-5.488-2.605-13.057-2.484-15.246c0.242-4.4-0.772-7.175-0.783-7.203
			c-1.279-6.572-8.894-12.07-16.646-12.07c-7.927,0-16.482,4.99-16.482,13.05c0,1.47-0.231,2.876-0.581,5.006l-0.195,1.195
			c-0.577,2.79-0.564,5.309-0.554,7.531c0.014,2.898,0.026,5.402-1.157,7.737c-2.753,5.423-1.84,7.44-0.784,9.777
			c1.078,2.381,2.209,3.495,2.221,3.505L24.753,97.57z"/>
	</g>
</g>
<g>
	<g>
		<path fill="#FEDEC1" d="M14.628,58.684c0.936,2.579,1.057,5.538-1.02,6.075c-2.692,0.693-1.131-3.041-1.367-4.359
			c-0.489-2.699-2.427-4-1.696-4.668C12.091,54.321,13.691,56.103,14.628,58.684z"/>
	</g>
	<g>
		<path fill="#005180" d="M13.018,65.244c-0.436,0-0.781-0.142-1.025-0.423c-0.56-0.643-0.4-1.794-0.245-2.908
			c0.077-0.554,0.156-1.127,0.1-1.442c-0.232-1.281-0.801-2.216-1.259-2.967c-0.474-0.778-0.92-1.512-0.314-2.067
			c0.438-0.399,0.908-0.602,1.397-0.602c1.261,0,2.476,1.354,3.332,3.713c0.787,2.169,0.882,4.177,0.254,5.369
			c-0.335,0.637-0.856,1.05-1.549,1.229C13.457,65.211,13.224,65.244,13.018,65.244z M11.672,55.635
			c-0.283,0-0.572,0.132-0.857,0.393c-0.121,0.11,0.173,0.593,0.458,1.061c0.466,0.765,1.104,1.813,1.362,3.241
			c0.079,0.441-0.005,1.05-0.095,1.694c-0.118,0.849-0.265,1.905,0.056,2.273c0.085,0.097,0.375,0.215,0.913,0.076
			c0.471-0.122,0.812-0.393,1.042-0.828c0.517-0.981,0.402-2.791-0.298-4.724C13.55,56.885,12.537,55.635,11.672,55.635z"/>
	</g>
</g>
<g>
	<g>
		<path fill="#FEDEC1" d="M44.436,58.248c-0.936,2.578-1.057,5.539,1.021,6.074c2.691,0.693,1.13-3.041,1.367-4.357
			c0.489-2.699,2.426-4,1.695-4.668C46.973,53.884,45.371,55.667,44.436,58.248z"/>
	</g>
	<g>
		<path fill="#005180" d="M46.046,64.807C46.046,64.807,46.046,64.807,46.046,64.807c-0.207,0-0.438-0.033-0.69-0.098
			c-0.693-0.178-1.215-0.592-1.55-1.228c-0.629-1.192-0.534-3.2,0.253-5.37c0.855-2.359,2.069-3.713,3.332-3.713
			c0.489,0,0.959,0.203,1.397,0.603c0.607,0.555,0.16,1.29-0.313,2.068c-0.457,0.751-1.025,1.686-1.258,2.967
			c-0.057,0.314,0.023,0.888,0.1,1.442c0.154,1.113,0.314,2.264-0.245,2.906C46.827,64.665,46.482,64.807,46.046,64.807z
			 M47.391,55.198c-0.866,0-1.878,1.25-2.58,3.186c-0.701,1.933-0.815,3.743-0.298,4.724c0.229,0.435,0.57,0.706,1.042,0.827
			c0.187,0.048,0.352,0.072,0.491,0.072l0,0c0.262,0,0.366-0.084,0.421-0.148c0.32-0.367,0.174-1.423,0.056-2.271
			c-0.089-0.645-0.174-1.253-0.094-1.694c0.259-1.428,0.896-2.476,1.362-3.241c0.284-0.467,0.578-0.951,0.457-1.061
			C47.963,55.331,47.674,55.198,47.391,55.198z"/>
	</g>
</g>
<g>
	<g>
		<polygon fill="#005180" points="47.457,96.837 50.591,121.097 47.192,120.486 42.18,95.373 		"/>
	</g>
	<g>
		<path fill="#005180" d="M51.058,121.587l-4.204-0.756L41.66,94.813l6.16,1.709L51.058,121.587z M47.531,120.14l2.593,0.467
			l-3.03-23.455l-4.395-1.22L47.531,120.14z"/>
	</g>
</g>
<g>
	<g>
		<polygon fill="#005180" points="12.509,96.125 9.35,121.812 12.587,119.733 18.079,96.193 		"/>
	</g>
	<g>
		<path fill="#005180" d="M8.849,122.609l3.307-26.889l6.426,0.079l-5.642,24.183L8.849,122.609z M12.862,96.529l-3.012,24.486
			l2.384-1.531l5.342-22.897L12.862,96.529z"/>
	</g>
</g>
<g>
	<g>
		<path fill="#FFFFFF" stroke="#005180" stroke-width="0.8" stroke-miterlimit="10" d="M46.385,122.351"/>
	</g>
</g>
<g>
	<g>
		<path fill="#FFFFFF" stroke="#005180" stroke-width="0.8" stroke-miterlimit="10" d="M14.56,123.949"/>
	</g>
</g>
<g>
	<g>
		<path fill="#FEDEC1" d="M7.256,140.44c-0.041,0.649-0.131,4.349,0.407,4.802l5.536,1.533c0.761-0.369,0.438-2.561,0.484-3.171
			l-2.045-4.907l1.459-16.764c0.041-0.646-0.4-3.594-1.049-3.635l0,0c-0.647-0.042-2.614,0.39-2.658,1.041l-0.215,9.538
			l0.482,10.031L7.256,140.44z"/>
	</g>
	<g>
		<path fill="#005180" d="M13.238,147.201l-5.833-1.653c-0.806-0.679-0.551-5.088-0.549-5.133l0.013-0.203l2.378-1.516l-0.471-9.799
			l0.214-9.566c0.072-1.081,2.356-1.435,2.963-1.435l0.121,0.003c0.503,0.032,0.857,0.618,1.147,1.901
			c0.178,0.783,0.301,1.752,0.275,2.158l-1.451,16.675l2.044,4.905l-0.007,0.096c-0.01,0.131,0,0.341,0.01,0.59
			c0.042,1.061,0.101,2.513-0.719,2.911L13.238,147.201z M7.897,144.891l5.215,1.444c0.25-0.353,0.201-1.586,0.181-2.079
			c-0.009-0.23-0.017-0.432-0.013-0.581l-2.049-4.915l1.468-16.862c0.043-0.684-0.399-2.971-0.743-3.22
			c-0.763,0.018-2.059,0.427-2.169,0.702l-0.211,9.506l0.493,10.235l-2.425,1.545C7.581,141.989,7.641,144.385,7.897,144.891z"/>
	</g>
</g>
<g>
	<g>
		<circle fill="#FEDEC1" cx="13.14" cy="140.602" r="1.966"/>
	</g>
	<g>
		<path fill="#005180" d="M13.14,142.968c-1.305,0-2.366-1.062-2.366-2.366s1.061-2.366,2.366-2.366s2.366,1.062,2.366,2.366
			S14.444,142.968,13.14,142.968z M13.14,139.037c-0.863,0-1.566,0.702-1.566,1.565s0.703,1.565,1.566,1.565
			s1.566-0.702,1.566-1.565S14.003,139.037,13.14,139.037z"/>
	</g>
</g>
<g>
	<g>
		<path fill="#FEDEC1" d="M66.686,109.388c0.5-0.412,3.263-2.876,3.225-3.58l-2.667-5.088c-0.79-0.301-2.168,1.432-2.645,1.816
			l-2.182,4.848l-13.228,10.399c-0.5,0.413-2.352,2.747-1.938,3.249l0,0c0.414,0.502,2.076,1.643,2.577,1.229l7.105-6.366
			l6.991-7.211L66.686,109.388z"/>
	</g>
	<g>
		<path fill="#005180" d="M49.537,122.75c-0.863,0-2.225-1.017-2.594-1.463c-0.752-0.912,1.792-3.647,1.991-3.812l13.158-10.345
			l2.254-4.905c0.103-0.083,0.248-0.233,0.423-0.41c0.733-0.746,1.822-1.772,2.615-1.469l0.142,0.054l2.783,5.386
			c0.057,1.055-3.335,3.882-3.37,3.91l-0.157,0.129l-2.731-0.696l-6.83,7.044l-7.125,6.386
			C49.939,122.69,49.755,122.75,49.537,122.75z M64.927,102.782l-2.263,4.917l-13.228,10.399c-0.554,0.458-1.898,2.315-1.844,2.742
			c0.307,0.348,1.454,1.11,1.945,1.11c0.036,0,0.05-0.005,0.051-0.006l7.08-6.347l7.132-7.358l2.786,0.71
			c1.007-0.857,2.715-2.54,2.909-3.073l-2.501-4.772c-0.5,0.1-1.27,0.882-1.653,1.272C65.179,102.54,65.038,102.683,64.927,102.782z
			"/>
	</g>
</g>
<g>
	<g>
		<g>
			<path fill="#005180" d="M40.914,91.085c-0.977-0.525-2.01-0.717-2.933-0.639c-1.901-4.05-14.717-4.457-16.498-0.31
				c-0.917-0.073-1.937,0.121-2.905,0.639c-2.154,1.157-6.86,4.202-5.99,5.827c0.592,1.102,7.141,11.455,8.739,18.841
				c0.27,1.24,0.304,5.046,0.057,6.618c-0.076,0.48-0.611,1.816-1.386,3.582l9.911,1.639l9.429-1.979
				c-0.767-1.606-1.264-2.854-1.301-3.465c-0.192-3.049,0.116-5.049,0.393-6.395c1.954-9.552,8.451-17.537,9.027-18.606
				C48.328,95.215,43.069,92.243,40.914,91.085z"/>
		</g>
		<g>
			<path fill="#005180" d="M29.918,127.69l-0.074-0.013l-10.419-1.723l0.207-0.472c1.042-2.374,1.312-3.205,1.357-3.483
				c0.239-1.521,0.208-5.27-0.053-6.471c-1.378-6.369-6.504-15.017-8.188-17.858c-0.256-0.432-0.435-0.733-0.512-0.878
				c-1.238-2.312,5.393-5.96,6.153-6.369c0.9-0.481,1.9-0.728,2.851-0.699c1.165-2.141,4.835-2.912,7.968-2.912
				c3.608,0,7.716,0.999,9.007,3.221c0.966-0.036,1.981,0.212,2.888,0.701c1.839,0.987,3.338,1.907,4.455,2.732
				c2.006,1.483,2.742,2.647,2.251,3.562c-0.104,0.192-0.347,0.54-0.716,1.066c-1.818,2.596-6.648,9.493-8.272,17.431
				c-0.279,1.356-0.574,3.297-0.385,6.289c0.021,0.352,0.257,1.212,1.262,3.318l0.219,0.459L29.918,127.69z M20.57,125.333
				l9.331,1.542l8.86-1.859c-0.729-1.569-1.087-2.577-1.123-3.153c-0.194-3.086,0.112-5.095,0.4-6.5
				c1.657-8.101,6.556-15.096,8.4-17.729c0.327-0.467,0.585-0.835,0.667-0.986c0.251-0.468-0.505-1.417-2.022-2.539
				c-1.085-0.803-2.552-1.701-4.358-2.671c-0.855-0.46-1.819-0.671-2.709-0.593l-0.277,0.023l-0.119-0.252
				c-0.831-1.769-4.289-3.004-8.411-3.004c-3.769,0-6.657,1.053-7.357,2.683l-0.113,0.264l-0.286-0.022
				c-0.882-0.072-1.833,0.137-2.685,0.593c-3.246,1.744-6.362,4.284-5.826,5.285c0.075,0.14,0.248,0.431,0.496,0.848
				c1.701,2.87,6.876,11.602,8.282,18.097c0.28,1.29,0.315,5.147,0.061,6.765C21.733,122.412,21.555,123.058,20.57,125.333z"/>
		</g>
	</g>
</g>
<g>
	<g>
		<path fill="#2EB4E8" d="M39.338,125.303l-9.429,1.979l-10.187-1.684c-0.471,1.044-2.096,2.469-2.096,6.937
			c0,8.017,11.667,93.89,11.667,93.89v-85.823h1.604l0.859,85.823c0,0,9.935-82.459,10.423-93.89
			C42.317,129.3,39.969,126.523,39.338,125.303z"/>
	</g>
	<g>
		<path fill="#005180" d="M28.897,226.479c-0.477-3.507-11.67-85.991-11.67-93.943c0-3.667,1.093-5.4,1.746-6.437
			c0.158-0.251,0.295-0.465,0.385-0.664l0.126-0.28l10.416,1.721l9.653-2.026l0.14,0.271c0.125,0.243,0.323,0.55,0.554,0.912
			c0.915,1.431,2.446,3.826,2.332,6.521c-0.483,11.315-10.326,93.096-10.425,93.921l-0.797-0.044l-0.855-85.427h-0.808v85.423
			L28.897,226.479z M19.945,126.042c-0.085,0.149-0.185,0.31-0.295,0.484c-0.646,1.024-1.623,2.574-1.623,6.01
			c0,6.671,8.237,68.398,10.867,87.938v-80.272h2.399l0.801,80.036c2.309-19.346,9.281-78.265,9.686-87.719
			c0.104-2.442-1.287-4.617-2.207-6.057c-0.168-0.264-0.319-0.501-0.441-0.707l-9.214,1.935l-0.074-0.013L19.945,126.042z"/>
	</g>
</g>
<g>
	<g>
		<polygon fill="#005180" points="36.189,184.683 31.338,184.683 31.715,222.237 		"/>
	</g>
	<g>
		<path fill="#005180" d="M32.112,222.284l-0.797-0.043l-0.381-37.958h5.706L32.112,222.284z M31.742,185.083l0.311,30.938
			l3.687-30.938H31.742z"/>
	</g>
</g>
<g>
	<g>
		<polygon fill="#005180" points="24.44,184.683 29.294,184.683 28.728,222.237 		"/>
	</g>
	<g>
		<path fill="#005180" d="M28.33,222.282l-4.338-37.999H29.7l-0.573,37.96L28.33,222.282z M24.889,185.083l3.533,30.943
			l0.466-30.943H24.889z"/>
	</g>
</g>
<g>
	<g>
		<path fill="#FEDEC1" d="M19.723,76.354l9.594-0.476v-0.021l0.215,0.01l0.214-0.01v0.021l9.593,0.476c0,0-3.571,4.999-3.588,6.399
			c-0.013,1.401,1.625,6.811,1.625,6.811l-7.539,11.807l-7.789-10.713c0,0,1.278-6.503,1.264-7.904
			C23.296,81.353,19.723,76.354,19.723,76.354z"/>
	</g>
	<g>
		<path fill="#005180" d="M29.857,102.08l-8.237-11.328l0.034-0.171c0.013-0.064,1.271-6.479,1.256-7.823
			c-0.01-0.928-2.16-4.278-3.513-6.171l-0.426-0.596l10.363-0.533l0.215,0.01l0.596-0.029v0.059l9.944,0.493l-0.425,0.596
			c-1.353,1.894-3.502,5.243-3.514,6.172c-0.01,1.098,1.157,5.202,1.608,6.69l0.053,0.176L29.857,102.08z M22.473,90.563
			l7.342,10.098l7.125-11.158c-0.288-0.964-1.601-5.438-1.589-6.753c0.015-1.229,2.26-4.61,3.244-6.032l-9.134-0.453l-0.124,0.013
			l-8.87,0.44c0.984,1.422,3.231,4.803,3.244,6.031C23.724,84.062,22.68,89.501,22.473,90.563z"/>
	</g>
</g>
<g>
	<g>
		<path fill="#FEDEC1" d="M14.224,61.614c0,12.448,11.944,22.541,15.477,22.541c3.701,0,15.476-10.093,15.476-22.541
			c0-19.219-6.929-22.542-15.476-22.542C21.152,39.072,14.224,40.544,14.224,61.614z"/>
	</g>
	<g>
		<path fill="#005180" d="M29.7,84.555c-3.89,0-15.876-10.322-15.876-22.941c0-21.216,7.19-22.942,15.876-22.942
			c8.246,0,15.875,2.779,15.875,22.942C45.576,74.233,33.59,84.555,29.7,84.555z M29.7,39.472c-8.542,0-15.077,1.63-15.077,22.142
			c0,12.46,12.025,22.141,15.077,22.141c3.693,0,15.076-9.962,15.076-22.141C44.776,42.154,37.53,39.472,29.7,39.472z"/>
	</g>
</g>
<g>
	<g>
		<circle fill="#FFFFFF" cx="37.284" cy="57.66" r="3.953"/>
	</g>
	<g>
		<path fill="#005180" d="M37.283,62.014c-2.4,0-4.352-1.953-4.352-4.354c0-2.4,1.952-4.352,4.352-4.352
			c2.4,0,4.353,1.952,4.353,4.352C41.636,60.061,39.684,62.014,37.283,62.014z M37.283,54.107c-1.958,0-3.552,1.594-3.552,3.552
			c0,1.96,1.594,3.554,3.552,3.554c1.959,0,3.553-1.594,3.553-3.554C40.836,55.701,39.242,54.107,37.283,54.107z"/>
	</g>
</g>
<g>
	<g>
		<circle fill="#FFFFFF" cx="22.388" cy="57.66" r="3.954"/>
	</g>
	<g>
		<path fill="#005180" d="M22.388,62.014c-2.401,0-4.354-1.953-4.354-4.354c0-2.4,1.953-4.352,4.354-4.352s4.354,1.952,4.354,4.352
			C26.742,60.061,24.789,62.014,22.388,62.014z M22.388,54.107c-1.96,0-3.554,1.594-3.554,3.552c0,1.96,1.594,3.554,3.554,3.554
			s3.554-1.594,3.554-3.554C25.942,55.701,24.348,54.107,22.388,54.107z"/>
	</g>
</g>
<g>
	<g>
		<circle fill="#005180" cx="38.606" cy="58.67" r="2.446"/>
	</g>
	<g>
		<path fill="#005180" d="M38.606,61.518c-1.569,0-2.846-1.277-2.846-2.847s1.277-2.847,2.846-2.847s2.846,1.277,2.846,2.847
			S40.176,61.518,38.606,61.518z M38.606,56.623c-1.128,0-2.046,0.918-2.046,2.047s0.918,2.047,2.046,2.047s2.046-0.918,2.046-2.047
			S39.735,56.623,38.606,56.623z"/>
	</g>
</g>
<g>
	<g>
		<circle fill="#005180" cx="23.603" cy="58.67" r="2.34"/>
	</g>
	<g>
		<path fill="#005180" d="M23.604,61.409c-1.511,0-2.741-1.229-2.741-2.739s1.229-2.739,2.741-2.739c1.51,0,2.739,1.229,2.739,2.739
			S25.114,61.409,23.604,61.409z M23.604,56.731c-1.07,0-1.941,0.87-1.941,1.939s0.871,1.939,1.941,1.939
			c1.069,0,1.939-0.87,1.939-1.939S24.673,56.731,23.604,56.731z"/>
	</g>
</g>
<g>
	<g>
		<path fill="#005180" d="M29.755,66.401c-0.993,0-1.8-1.035-1.8-2.306h0.8c0,0.816,0.458,1.506,1,1.506
			c0.544,0,1.003-0.69,1.003-1.506h0.8C31.558,65.367,30.749,66.401,29.755,66.401z"/>
	</g>
</g>
<g>
	<g>
		<polygon fill="#AD6959" points="41.475,51.205 33.091,51.751 40.524,52.07 		"/>
	</g>
	<g>
		<polygon fill="#005180" points="40.672,52.477 33.074,52.151 33.065,51.353 42.589,50.731 		"/>
	</g>
</g>
<g>
	<g>
		<polygon fill="#AD6959" points="17.316,50.621 25.655,51.638 18.217,51.539 		"/>
	</g>
	<g>
		<polygon fill="#005180" points="25.65,52.038 18.047,51.937 16.231,50.085 25.704,51.241 		"/>
	</g>
</g>
<g>
	<g>
		<path fill="#F27A9F" d="M12.977,46.057c1.601-6.454,8.056-10.392,16.444-10.392c7.782,0,14.357,4.361,16.664,10.392h-1.514
			l0.65,1.897c0,0,0,0.531-4.863,0.709c-2.155,0.076-7.059,1.068-12.675,1.243l0.451-3.85L24.88,49.91
			c-0.474,0.005-0.616,0-1.07-0.01c-5.851-0.11-9.817-1.592-9.817-1.592s0.017-0.972,0.2-2.251H12.977z"/>
	</g>
	<g>
		<path fill="#005180" d="M27.232,50.321l0.351-2.991l-2.516,2.978l-0.509,0.004c-0.218,0-0.373-0.003-0.626-0.009L23.801,50.3
			c-5.851-0.11-9.784-1.556-9.949-1.617l-0.265-0.099l0.005-0.283c0-0.036,0.015-0.789,0.144-1.844h-1.271l0.123-0.496
			c1.636-6.597,8.086-10.695,16.833-10.695c7.754,0,14.602,4.279,17.038,10.648l0.208,0.543h-1.535l0.49,1.498
			c0,0.32,0,0.917-5.249,1.109c-0.795,0.028-1.975,0.184-3.468,0.381c-2.402,0.317-5.692,0.752-9.209,0.862L27.232,50.321z
			 M14.403,48.026c0.983,0.323,4.56,1.382,9.414,1.474l0.132,0.003c0.246,0.005,0.396,0.009,0.609,0.009l0.135-0.001l3.993-4.727
			l-0.551,4.707c3.302-0.13,6.385-0.538,8.665-0.839c1.515-0.2,2.711-0.358,3.544-0.388c2.967-0.108,4.032-0.346,4.398-0.473
			l-0.731-2.133h1.479c-2.493-5.761-8.868-9.592-16.069-9.592c-8.136,0-14.181,3.661-15.922,9.592h1.155l-0.065,0.457
			C14.469,46.947,14.421,47.651,14.403,48.026z"/>
	</g>
</g>
<g>
	<g>
		<path fill="#BFD852" d="M446.123,164.158c-0.09-7.832-4.389-13.937-9.596-13.628c-2.502,0.144-4.752,1.751-6.411,4.239h-9.243
			c-1.758-2.75-4.259-4.402-7.021-4.239c-5.207,0.298-9.356,6.901-9.268,14.728l0.485,41.488c0.091,7.838,4.391,13.943,9.597,13.641
			c5.21-0.311,9.357-6.907,9.267-14.734l-0.479-41.071h3.822c-0.006,0.226-0.018,0.448-0.016,0.677l0.485,41.488
			c0.091,7.838,4.391,13.943,9.598,13.641c5.209-0.311,9.356-6.907,9.267-14.734L446.123,164.158z"/>
	</g>
	<g>
		<path fill="#005180" d="M436.973,220.797C436.973,220.797,436.973,220.797,436.973,220.797c-5.308-0.001-9.536-6.171-9.628-14.047
			l-0.485-41.488c0-0.095,0.001-0.188,0.003-0.281h-3.005l0.476,40.666c0.093,8.025-4.233,14.816-9.644,15.139
			c-5.474,0.334-9.927-5.965-10.021-14.035l-0.485-41.488c-0.091-8.034,4.235-14.822,9.646-15.132
			c2.75-0.17,5.354,1.357,7.261,4.238h8.814c1.787-2.594,4.124-4.096,6.601-4.238c0.133-0.008,0.267-0.012,0.4-0.012
			c5.303,0,9.527,6.165,9.618,14.034l0.486,41.494c0.092,8.025-4.234,14.816-9.644,15.139
			C437.234,220.793,437.104,220.797,436.973,220.797z M423.049,164.18h4.637l-0.017,0.617c-0.005,0.151-0.011,0.303-0.009,0.457
			l0.485,41.486c0.086,7.434,3.963,13.256,8.827,13.256l0,0c0.115,0,0.23-0.003,0.347-0.01c4.989-0.297,8.978-6.726,8.89-14.33
			l-0.486-41.494c-0.088-7.607-4.185-13.528-9.172-13.233c-2.275,0.131-4.442,1.573-6.102,4.062l-0.119,0.179h-9.676l-0.118-0.185
			c-1.757-2.749-4.124-4.204-6.661-4.056c-4.989,0.285-8.978,6.711-8.891,14.323l0.485,41.488
			c0.088,7.609,4.144,13.529,9.173,13.246c4.99-0.297,8.979-6.726,8.89-14.33L423.049,164.18z"/>
	</g>
</g>
<g>
	<g>
		<path fill="#2EB4E8" d="M434.175,90.339h-8.021h-1.1h-8.022c-8.602,0-15.573,12.834-15.573,28.666l3.992,23.271
			c0,15.826,1.177,16.943,9.779,16.943l9.824,0.168v0.018l0.55-0.01l0.55,0.01v-0.018l9.824-0.168c8.601,0,9.779-1.117,9.779-16.943
			l3.991-23.271C449.748,103.173,442.777,90.339,434.175,90.339z"/>
	</g>
	<g>
		<path fill="#005180" d="M424.653,159.813v-0.031l-9.431-0.161c-9.126,0-10.173-1.783-10.173-17.344l-3.986-23.204
			c-0.006-16.094,7.16-29.133,15.968-29.133h17.144c8.808,0,15.974,13.039,15.974,29.066l-3.997,23.339
			c0.006,15.493-1.041,17.276-10.174,17.276l-9.831,0.186l-0.55-0.01L424.653,159.813z M425.597,158.996l0.156,0.003v-0.004
			l10.218-0.175c8.326,0,9.386-0.92,9.386-16.543l3.997-23.339c-0.006-15.519-6.812-28.199-15.179-28.199h-17.144
			c-8.366,0-15.173,12.68-15.173,28.266l3.986,23.204c0.006,15.69,1.065,16.61,9.385,16.61l10.225,0.179L425.597,158.996z"/>
	</g>
</g>
<g>
	<g>
		<path fill="#2EB4E8" d="M392.682,120.625c-0.67,4.105,1.722,7.205,5.342,6.921l0,0c3.62-0.282,7.093-3.839,7.763-7.943
			l3.607-22.156c0.67-4.107-1.725-7.207-5.344-6.924l0,0c-3.617,0.28-7.094,3.841-7.762,7.945L392.682,120.625z"/>
	</g>
	<g>
		<path fill="#005180" d="M397.567,127.964L397.567,127.964c-1.585,0-3-0.637-3.982-1.794c-1.181-1.388-1.653-3.433-1.298-5.609
			l3.606-22.157c0.695-4.272,4.34-7.986,8.125-8.28c1.808-0.143,3.387,0.502,4.471,1.776c1.181,1.389,1.654,3.434,1.299,5.611
			l-3.607,22.156c-0.696,4.27-4.342,7.982-8.126,8.277C397.89,127.958,397.728,127.964,397.567,127.964z M404.504,90.905
			c-0.139,0-0.279,0.006-0.423,0.017c-3.439,0.267-6.759,3.681-7.398,7.611l-3.606,22.157c-0.317,1.944,0.09,3.754,1.118,4.963
			c0.841,0.988,2.007,1.512,3.373,1.512l0,0c0.14,0,0.281-0.006,0.425-0.017c3.438-0.269,6.758-3.682,7.399-7.609l3.607-22.156
			c0.317-1.945-0.091-3.754-1.119-4.964C407.038,91.428,405.871,90.905,404.504,90.905z"/>
	</g>
</g>
<g>
	<g>
		<path fill="#C78672" d="M442.704,68.453c-1.015,2.788-1.144,5.987,1.108,6.567c2.914,0.751,1.222-3.288,1.48-4.709
			c0.526-2.921,2.626-4.329,1.834-5.049C445.453,63.736,443.719,65.664,442.704,68.453z"/>
	</g>
	<g>
		<path fill="#005180" d="M444.452,75.612L444.452,75.612c-0.229,0-0.486-0.037-0.765-0.108c-0.771-0.199-1.353-0.659-1.726-1.368
			c-0.688-1.307-0.586-3.495,0.272-5.855c0.938-2.579,2.276-4.058,3.672-4.058c0.547,0,1.071,0.225,1.558,0.668
			c0.699,0.635,0.201,1.453-0.326,2.318c-0.492,0.808-1.104,1.814-1.353,3.189c-0.061,0.33,0.025,0.944,0.107,1.539
			c0.169,1.217,0.344,2.476-0.281,3.193C445.334,75.451,444.944,75.612,444.452,75.612z M445.906,65.224
			c-0.908,0-1.981,1.334-2.732,3.399c-0.752,2.068-0.878,4.002-0.327,5.047c0.239,0.455,0.597,0.738,1.091,0.865
			c0.196,0.051,0.37,0.077,0.515,0.077l0,0c0.257,0,0.354-0.078,0.405-0.137c0.326-0.374,0.163-1.544,0.045-2.399
			c-0.098-0.704-0.19-1.368-0.102-1.854c0.281-1.558,0.976-2.699,1.483-3.532c0.231-0.38,0.549-0.9,0.519-1.048
			C446.493,65.361,446.196,65.224,445.906,65.224z"/>
	</g>
</g>
<g>
	<g>
		<path fill="#C78672" d="M408.646,69.821c1.018,2.79,1.147,5.989-1.104,6.569c-2.915,0.751-1.223-3.289-1.478-4.709
			c-0.529-2.924-2.63-4.328-1.838-5.05C405.9,65.103,407.635,67.033,408.646,69.821z"/>
	</g>
	<g>
		<path fill="#005180" d="M406.902,76.982c-0.492,0-0.883-0.162-1.16-0.481c-0.625-0.719-0.449-1.979-0.279-3.198
			c0.083-0.593,0.168-1.206,0.109-1.534c-0.249-1.376-0.862-2.382-1.355-3.189c-0.528-0.865-1.026-1.681-0.327-2.318
			c0.486-0.444,1.011-0.669,1.558-0.669c1.396,0,2.733,1.479,3.669,4.058c0.861,2.359,0.964,4.549,0.276,5.856
			c-0.373,0.708-0.954,1.168-1.726,1.368C407.389,76.946,407.131,76.982,406.902,76.982z M405.447,66.592
			c-0.29,0-0.587,0.138-0.884,0.408c-0.043,0.158,0.274,0.679,0.507,1.059c0.508,0.833,1.204,1.973,1.486,3.533
			c0.087,0.486-0.006,1.148-0.104,1.849c-0.119,0.856-0.283,2.029,0.043,2.403c0.081,0.092,0.375,0.201,0.921,0.061
			c0.494-0.127,0.851-0.41,1.091-0.865c0.55-1.046,0.423-2.98-0.331-5.049C407.427,67.927,406.356,66.592,405.447,66.592z"/>
	</g>
</g>
<g>
	<g>
		<path fill="#005180" d="M429.473,54.484c8.387,0,15.183,6.779,15.183,15.148v6.943c0,8.366-6.007,21.008-14.392,21.008h-8.542
			c-8.384,0-15.022-12.642-15.022-21.008v-6.943c0-8.369,6.796-15.148,15.181-15.148H429.473z"/>
	</g>
	<g>
		<path fill="#005180" d="M430.264,97.983h-8.542c-8.8,0-15.423-12.987-15.423-21.408v-6.943c0-8.573,6.99-15.548,15.581-15.548
			h7.593c8.593,0,15.583,6.975,15.583,15.548v6.943C445.056,85.196,438.844,97.983,430.264,97.983z M421.88,54.884
			c-8.15,0-14.78,6.616-14.78,14.749v6.943c0,8.138,6.551,20.608,14.622,20.608h8.542c8.116,0,13.991-12.31,13.991-20.608v-6.943
			c0-8.132-6.631-14.749-14.782-14.749H421.88z"/>
	</g>
</g>
<g>
	<g>
		<path fill="#C78672" d="M429.709,53.532c8.385,0,14.946,7.731,14.946,16.101v6.943c0,8.366-6.796,15.146-15.183-1.265h-7.593
			c-8.385,16.411-15.181,9.631-15.181,1.265v-6.943c0-8.369,6.646-16.101,15.03-16.101H429.709z"/>
	</g>
	<g>
		<path fill="#005180" d="M412.056,85.847c-1.722,0-3.264-1.03-4.341-2.9c-0.978-1.698-1.516-3.96-1.516-6.371v-6.943
			c0-8.999,7.112-16.601,15.53-16.601h7.979c8.373,0,15.446,7.602,15.446,16.601v6.943c0,5.285-2.519,9.271-5.857,9.271
			c-2.258,0-5.839-1.75-10.13-10.036h-6.983C417.895,84.096,414.314,85.846,412.056,85.847
			C412.057,85.847,412.057,85.847,412.056,85.847z M421.729,54.032c-7.876,0-14.53,7.144-14.53,15.601v6.943
			c0,2.238,0.491,4.323,1.383,5.872c0.63,1.095,1.744,2.399,3.474,2.399c0.001,0,0.001,0,0.001,0c1.64,0,5.038-1.269,9.378-9.763
			l0.14-0.272h8.204l0.14,0.272c4.341,8.495,7.74,9.763,9.38,9.763c3.155,0,4.857-4.262,4.857-8.271v-6.943
			c0-8.457-6.615-15.601-14.446-15.601H421.729z"/>
	</g>
</g>
<g>
	<g>
		<path fill="#005180" d="M429.018,75.12h-6.603c-1.692,0-3.069-1.374-3.069-3.062c0-0.773,0.378-1.336,0.744-1.881
			c0.432-0.643,0.878-1.308,0.863-2.458l0.801-0.01c0.017,1.399-0.547,2.239-1,2.914c-0.34,0.506-0.607,0.906-0.607,1.435
			c0,1.248,1.018,2.262,2.269,2.262h6.603c1.251,0,2.269-1.015,2.269-2.262c0-0.633-0.381-1.297-0.785-2
			c-0.431-0.75-0.877-1.524-0.877-2.343h0.801c0,0.605,0.374,1.256,0.77,1.945c0.438,0.763,0.893,1.552,0.893,2.399
			C432.087,73.747,430.71,75.12,429.018,75.12z"/>
	</g>
</g>
<g>
	<g>
		<ellipse fill="#FFFFFF" cx="415.235" cy="67.863" rx="5.213" ry="5.201"/>
	</g>
	<g>
		<path fill="#005180" d="M415.235,73.464c-3.096,0-5.614-2.513-5.614-5.601c0-3.087,2.519-5.599,5.614-5.599
			c3.095,0,5.613,2.512,5.613,5.599C420.849,70.951,418.33,73.464,415.235,73.464z M415.235,63.063
			c-2.654,0-4.813,2.153-4.813,4.799c0,2.647,2.159,4.801,4.813,4.801s4.812-2.154,4.812-4.801
			C420.048,65.216,417.89,63.063,415.235,63.063z"/>
	</g>
</g>
<g>
	<g>
		<ellipse fill="#FFFFFF" cx="436.032" cy="67.863" rx="5.212" ry="5.201"/>
	</g>
	<g>
		<path fill="#005180" d="M436.033,73.464c-3.096,0-5.614-2.513-5.614-5.601c0-3.087,2.519-5.599,5.614-5.599
			c3.094,0,5.611,2.512,5.611,5.599C441.645,70.951,439.127,73.464,436.033,73.464z M436.033,63.063
			c-2.654,0-4.813,2.153-4.813,4.799c0,2.647,2.159,4.801,4.813,4.801c2.652,0,4.811-2.154,4.811-4.801
			C440.844,65.216,438.686,63.063,436.033,63.063z"/>
	</g>
</g>
<g>
	<g>
		<path fill="#005180" d="M421.784,60.884c-0.069,0.64-0.646,1.167-1.29,1.174l-9.216,0.109c-0.641,0.008-1.103-0.507-1.032-1.146
			l0,0c0.068-0.643,0.645-1.168,1.288-1.175l9.212-0.11C421.389,59.728,421.853,60.241,421.784,60.884L421.784,60.884z"/>
	</g>
	<g>
		<path fill="#005180" d="M411.264,62.567c-0.419,0-0.799-0.165-1.067-0.465c-0.271-0.302-0.395-0.702-0.348-1.125
			c0.09-0.849,0.829-1.522,1.682-1.531l9.211-0.11c0,0,0,0,0.001,0c0.439,0,0.819,0.165,1.089,0.464
			c0.271,0.302,0.396,0.702,0.351,1.126c-0.092,0.85-0.831,1.522-1.684,1.531L411.264,62.567z M420.761,60.136l-9.222,0.11
			c-0.438,0.005-0.849,0.379-0.896,0.817c-0.021,0.195,0.031,0.375,0.148,0.505c0.115,0.128,0.282,0.199,0.472,0.199v0.4l0.01-0.4
			l9.216-0.109c0.439-0.005,0.85-0.379,0.897-0.817c0.021-0.195-0.033-0.375-0.15-0.506
			C421.12,60.207,420.951,60.136,420.761,60.136z"/>
	</g>
</g>
<g>
	<g>
		<path fill="#005180" d="M441.238,60.884c-0.068,0.64-0.646,1.167-1.289,1.174l-9.217,0.109c-0.639,0.008-1.102-0.507-1.032-1.146
			l0,0c0.069-0.643,0.646-1.168,1.289-1.175l9.212-0.11C440.844,59.728,441.309,60.241,441.238,60.884L441.238,60.884z"/>
	</g>
	<g>
		<path fill="#005180" d="M430.718,62.567c-0.418,0-0.797-0.165-1.065-0.464c-0.271-0.302-0.396-0.702-0.35-1.125
			c0.092-0.85,0.83-1.523,1.683-1.532l9.211-0.11c0,0,0,0,0.001,0c0.44,0,0.821,0.166,1.09,0.466
			c0.271,0.302,0.396,0.702,0.349,1.126c-0.089,0.834-0.844,1.521-1.683,1.53L430.718,62.567z M440.216,60.136l-9.222,0.11
			c-0.438,0.005-0.849,0.379-0.896,0.818c-0.021,0.195,0.032,0.374,0.149,0.505c0.115,0.128,0.282,0.199,0.471,0.199v0.4l0.01-0.4
			l9.217-0.109c0.439-0.005,0.85-0.378,0.896-0.816c0.021-0.196-0.031-0.375-0.148-0.506
			C440.576,60.207,440.407,60.136,440.216,60.136z"/>
	</g>
</g>
<g>
	<g>
		<g>
			<line fill="#D7E4F5" x1="420.925" y1="81.321" x2="430.327" y2="81.038"/>
		</g>
	</g>
	<g>
		<g>
			<polygon fill="#D7E4F5" points="425.716,85.458 420.906,80.667 430.309,80.383 430.346,81.691 			"/>
		</g>
	</g>
</g>
<g>
	<g>
		<circle fill="#005180" cx="414.333" cy="68.765" r="3.076"/>
	</g>
	<g>
		<path fill="#005180" d="M414.333,72.236c-1.916,0-3.476-1.557-3.476-3.471c0-1.914,1.56-3.47,3.476-3.47
			c1.917,0,3.477,1.557,3.477,3.47C417.81,70.679,416.25,72.236,414.333,72.236z M414.333,66.095c-1.476,0-2.675,1.198-2.675,2.67
			c0,1.473,1.199,2.671,2.675,2.671s2.676-1.198,2.676-2.671C417.009,67.293,415.809,66.095,414.333,66.095z"/>
	</g>
</g>
<g>
	<g>
		<path fill="#005180" d="M438.208,68.765c0,1.697-1.38,3.071-3.076,3.071c-1.701,0-3.078-1.374-3.078-3.071
			c0-1.695,1.377-3.07,3.078-3.07C436.828,65.695,438.208,67.07,438.208,68.765z"/>
	</g>
	<g>
		<path fill="#005180" d="M435.132,72.236c-1.918,0-3.479-1.557-3.479-3.471c0-1.914,1.561-3.47,3.479-3.47
			c1.917,0,3.477,1.557,3.477,3.47C438.608,70.679,437.049,72.236,435.132,72.236z M435.132,66.095c-1.477,0-2.678,1.198-2.678,2.67
			c0,1.473,1.201,2.671,2.678,2.671c1.476,0,2.676-1.198,2.676-2.671C437.808,67.293,436.607,66.095,435.132,66.095z"/>
	</g>
</g>
<g>
	<g>
		<path fill="#2EB4E8" d="M462.205,117.683c1.753,3.772,0.288,7.402-3.272,8.107l0,0c-3.564,0.707-7.868-1.779-9.623-5.551
			l-9.458-20.358c-1.755-3.771-0.287-7.401,3.273-8.108l0,0c3.56-0.707,7.869,1.782,9.621,5.554L462.205,117.683z"/>
	</g>
	<g>
		<path fill="#005180" d="M457.683,126.311c-3.471,0-7.145-2.482-8.735-5.902l-9.458-20.359c-0.97-2.083-1.034-4.246-0.179-5.933
			c0.727-1.43,2.053-2.402,3.736-2.737c0.427-0.084,0.873-0.127,1.326-0.127c3.473,0,7.146,2.483,8.735,5.905l9.459,20.356
			c0.97,2.086,1.034,4.25,0.177,5.937c-0.727,1.429-2.052,2.399-3.733,2.732C458.583,126.268,458.137,126.311,457.683,126.311z
			 M444.373,92.053c-0.401,0-0.795,0.038-1.17,0.113c-1.438,0.285-2.566,1.107-3.179,2.314c-0.744,1.466-0.675,3.374,0.189,5.233
			l9.458,20.358c1.467,3.152,4.836,5.439,8.011,5.439c0.401,0,0.796-0.037,1.172-0.112c1.437-0.284,2.563-1.104,3.176-2.31
			c0.746-1.466,0.677-3.375-0.188-5.236l-9.459-20.357C450.919,94.342,447.55,92.053,444.373,92.053z"/>
	</g>
</g>
<g>
	<g>
		<path fill="#C78672" d="M462.768,150.41c-0.069,4.546,0.018,9.488-2.516,9.359l-3.168-0.061
			c-6.844,0.547-2.258-7.796-2.191-12.342l-3.864-18.116c0.066-4.544,5.124-11.966,7.654-11.834l0,0
			c2.531,0.13,4.526,3.921,4.455,8.466L462.768,150.41z"/>
	</g>
	<g>
		<path fill="#005180" d="M460.348,160.272l-0.121-0.004l-3.152-0.06c-0.18,0.017-0.397,0.025-0.603,0.025
			c-1.34,0-2.325-0.387-2.929-1.15c-1.277-1.616-0.58-4.559,0.096-7.404c0.356-1.503,0.725-3.056,0.753-4.265l-3.864-18.115
			l0.001-0.056c0.067-4.609,5.131-12.329,8.087-12.329c2.934,0.148,5.099,4.09,5.022,8.976l-0.381,25.302
			C463.195,155.861,463.137,160.272,460.348,160.272z M457.044,159.21l3.218,0.059l0.086,0.503v-0.5c1.802,0,1.859-4.3,1.909-8.094
			l0.381-25.304c0.066-4.2-1.757-7.845-3.98-7.959h-0.001c-2.235,0-7.024,7.059-7.127,11.287l3.864,18.115l-0.001,0.056
			c-0.02,1.327-0.406,2.958-0.781,4.536c-0.62,2.614-1.262,5.317-0.284,6.554C454.809,159.073,455.691,159.315,457.044,159.21z"/>
	</g>
</g>
<g>
	<g>
		<path fill="#C78672" d="M453.719,152.89c1.061,0.291,2.05-1.012,2.211-2.909c0.163-1.896-0.563-3.669-1.623-3.961
			c-1.056-0.291-2.045,1.012-2.207,2.908C451.938,150.826,452.661,152.599,453.719,152.89z"/>
	</g>
	<g>
		<path fill="#005180" d="M454.016,153.431L454.016,153.431c-0.144,0-0.288-0.021-0.429-0.059c-1.298-0.357-2.17-2.328-1.985-4.487
			c0.169-1.974,1.182-3.406,2.409-3.406c0.144,0,0.288,0.021,0.429,0.059c1.301,0.358,2.174,2.329,1.988,4.486
			C456.26,151.998,455.246,153.431,454.016,153.431z M454.011,146.479c-0.577,0-1.281,0.953-1.413,2.492
			c-0.152,1.78,0.539,3.24,1.254,3.437c0.643,0.184,1.437-0.787,1.58-2.469c0.152-1.779-0.54-3.239-1.258-3.437
			C454.119,146.487,454.064,146.479,454.011,146.479z"/>
	</g>
</g>
<g>
	<g>
		<path fill="#005180" d="M406.623,221.338c-8.062,1.122-7.474,4.329-3.975,5.448c3.094,0.99,8.558-0.035,10.988-0.002l0,0
			c5.178,0.078,9.474-1.426,9.589-3.354l0.628-10.218c0.117-1.93-3.979-0.958-9.158-1.032l0,0c-5.176-0.078-9.475-1.168-9.592,0.757
			L406.623,221.338z"/>
	</g>
	<g>
		<path fill="#005180" d="M406.26,227.619C406.26,227.619,406.26,227.619,406.26,227.619c-1.563,0-2.784-0.147-3.733-0.451
			c-1.771-0.566-2.812-1.623-2.715-2.756c0.08-0.933,1.021-2.594,6.345-3.409l-1.446-7.993c0.086-1.605,2.06-1.605,2.902-1.605
			c0.845,0,1.834,0.073,2.979,0.158c1.241,0.093,2.647,0.197,4.109,0.219l0.583,0.005c1.266,0,2.468-0.057,3.529-0.106
			c0.88-0.041,1.677-0.078,2.364-0.078c1.515,0,2.31,0.188,2.745,0.651c0.243,0.258,0.354,0.59,0.33,0.985l-0.628,10.218
			c-0.127,2.127-4.256,3.732-9.603,3.732l-0.505-0.004c-0.714,0-1.667,0.082-2.77,0.178
			C409.353,227.482,407.77,227.619,406.26,227.619z M407.612,212.204c-1.818,0-2.087,0.384-2.109,0.759l1.588,8.715l-0.413,0.058
			c-4.354,0.605-5.989,1.815-6.069,2.745c-0.062,0.719,0.807,1.492,2.162,1.926c0.868,0.278,2.01,0.413,3.488,0.413
			c0.001,0,0.001,0,0.001,0c1.476,0,3.04-0.135,4.42-0.255c1.121-0.097,2.089-0.18,2.838-0.18l0.505,0.003
			c5.159,0,8.718-1.541,8.804-2.979l0.628-10.219c0.014-0.223-0.054-0.324-0.114-0.389c-0.337-0.357-1.396-0.399-2.162-0.399
			c-0.677,0-1.461,0.037-2.327,0.078c-1.069,0.05-2.282,0.106-3.566,0.106l-0.595-0.004c-1.486-0.022-2.905-0.128-4.157-0.222
			C409.403,212.276,408.428,212.204,407.612,212.204z"/>
	</g>
</g>
<g>
	<g>
		<path fill="#005180" d="M406.699,65.372c0,0-0.573-4.333-1.642-7.195s-2.288-3.692-2.288-3.692s2.735-1.704,4.823-2.276
			s6.214-3.516,6.214-3.516s6.894-3.855,15.888-3.447c8.994,0.409,16.573,5.327,16.573,5.327s-4.19,1.963-2.791,4.334
			c1.401,2.371,2.791,4.83,2.791,4.83l-1.963,4.99c0,0-3.602-6.593-5.194-7.492c-1.591-0.9-3.881-1.975-7.97-2.029
			c-4.088-0.053-6.622,3.054-6.622,3.054s2.147-2.755-2.729-3.054s-9.88,1.104-11.139,2.486
			C409.392,59.076,406.699,65.372,406.699,65.372z"/>
	</g>
	<g>
		<path fill="#005180" d="M406.494,66.869l-0.191-1.445c-0.006-0.042-0.58-4.322-1.62-7.108c-0.998-2.675-2.13-3.495-2.141-3.503
			l-0.493-0.347l0.509-0.321c0.114-0.071,2.81-1.742,4.93-2.323c1.996-0.547,6.046-3.426,6.087-3.456
			c0.105-0.062,7.118-3.931,16.139-3.521c8.998,0.409,16.695,5.341,16.772,5.391l0.604,0.392l-0.651,0.306
			c-0.023,0.011-2.337,1.112-2.778,2.543c-0.129,0.42-0.076,0.821,0.162,1.226c1.403,2.374,2.795,4.836,2.795,4.836l0.094,0.166
			l-2.346,5.963l-0.41-0.75c-0.987-1.806-3.815-6.644-5.04-7.336c-1.677-0.949-3.912-1.926-7.778-1.978c-0.001,0-0.002,0-0.002,0
			c-3.891,0-6.281,2.877-6.306,2.907l-0.626-0.498c0.006-0.008,0.592-0.781,0.312-1.394c-0.256-0.562-1.232-0.923-2.749-1.016
			c-4.761-0.296-9.682,1.107-10.818,2.356c-1.2,1.32-3.854,7.506-3.88,7.569L406.494,66.869z M403.436,54.552
			c0.481,0.508,1.278,1.559,1.997,3.484c0.708,1.898,1.196,4.392,1.453,5.915c0.864-1.931,2.524-5.491,3.47-6.53
			c1.334-1.466,5.859-2.658,10.087-2.658c0.456,0,0.915,0.013,1.372,0.041c1.883,0.116,3.037,0.616,3.431,1.488
			c0.088,0.196,0.131,0.393,0.142,0.585c1.15-0.923,3.098-2.075,5.651-2.075l0.107,0.001c4.048,0.054,6.397,1.083,8.162,2.081
			c1.369,0.773,3.908,5.09,4.935,6.906l1.583-4.025c-0.334-0.589-1.509-2.655-2.693-4.658c-0.354-0.601-0.434-1.23-0.236-1.87
			c0.383-1.238,1.745-2.203,2.566-2.688c-1.939-1.128-8.421-4.573-15.786-4.908c-8.784-0.395-15.608,3.361-15.674,3.397
			c-0.134,0.098-4.172,2.968-6.304,3.552C406.187,53.008,404.29,54.054,403.436,54.552z"/>
	</g>
</g>
<g>
	<g>
		<path fill="#005180" d="M445.129,221.338c8.06,1.122,7.475,4.329,3.975,5.448c-3.094,0.99-8.559-0.035-10.988-0.002l0,0
			c-5.178,0.078-9.473-1.426-9.59-3.354l-0.627-10.218c-0.118-1.93,3.979-0.958,9.157-1.032l0,0
			c5.178-0.078,9.474-1.168,9.592,0.757L445.129,221.338z"/>
	</g>
	<g>
		<path fill="#005180" d="M445.492,227.619c-1.51,0-3.093-0.137-4.489-0.257c-1.103-0.096-2.055-0.178-2.769-0.178l-0.505,0.004
			c-5.346,0-9.474-1.604-9.604-3.732l-0.627-10.218c-0.024-0.396,0.087-0.728,0.33-0.985c0.435-0.463,1.23-0.651,2.745-0.651
			c0.688,0,1.484,0.037,2.363,0.078c1.062,0.05,2.265,0.106,3.529,0.106l0.583-0.005c1.463-0.021,2.869-0.126,4.11-0.219
			c1.146-0.085,2.134-0.158,2.979-0.158c0.842,0,2.814,0,2.907,1.51l-1.451,8.089c5.324,0.815,6.265,2.478,6.345,3.41
			c0.098,1.133-0.943,2.188-2.715,2.755C448.276,227.471,447.056,227.619,445.492,227.619z M438.234,226.384
			c0.748,0,1.717,0.083,2.837,0.18c1.381,0.12,2.945,0.255,4.421,0.255c1.479,0,2.62-0.135,3.489-0.413
			c1.354-0.434,2.224-1.207,2.162-1.925c-0.08-0.931-1.717-2.141-6.069-2.746l-0.413-0.058l1.593-8.811
			c-0.028-0.279-0.297-0.663-2.114-0.663c-0.815,0-1.791,0.072-2.92,0.156c-1.252,0.094-2.671,0.199-4.158,0.222l-0.595,0.004
			c-1.283,0-2.496-0.057-3.566-0.106c-0.865-0.041-1.649-0.078-2.326-0.078c-0.768,0-1.826,0.042-2.162,0.399
			c-0.061,0.064-0.128,0.166-0.114,0.389l0.627,10.218c0.087,1.439,3.646,2.98,8.805,2.98L438.234,226.384z"/>
	</g>
</g>
<g>
	<g>
		<g>
			<path fill="#D7E4F5" d="M68.66,112.841c-0.186,0.584-0.827,0.901-1.436,0.707l-7.078-2.27c-0.606-0.195-0.943-0.825-0.758-1.41
				L64.222,94.8c0.187-0.585,0.829-0.902,1.434-0.707l7.08,2.27c0.607,0.194,0.944,0.825,0.757,1.409L68.66,112.841z"/>
		</g>
		<g>
			<path fill="#005180" d="M67.589,113.98c-0.162,0-0.323-0.025-0.479-0.075l-7.078-2.27c-0.799-0.257-1.248-1.101-1.001-1.88
				l4.833-15.07c0.243-0.764,1.116-1.205,1.906-0.949l7.079,2.27c0.396,0.126,0.717,0.397,0.905,0.761
				c0.18,0.351,0.214,0.749,0.095,1.12l-4.832,15.069C68.823,113.568,68.249,113.98,67.589,113.98z M65.292,94.411
				c-0.331,0-0.617,0.202-0.713,0.503l-4.833,15.069c-0.122,0.386,0.109,0.808,0.516,0.938l7.078,2.27
				c0.4,0.127,0.844-0.086,0.964-0.464l4.833-15.07c0.058-0.181,0.041-0.375-0.048-0.548c-0.096-0.186-0.261-0.324-0.466-0.39
				l-7.08-2.27C65.459,94.424,65.375,94.411,65.292,94.411z"/>
		</g>
	</g>
	<g>
		<g>
			<path fill="#2EB4E8" d="M68.209,110.427c-0.146,0.453-0.635,0.7-1.095,0.553l-5.384-1.727c-0.46-0.146-0.715-0.633-0.569-1.085
				l3.743-11.675c0.146-0.453,0.635-0.7,1.095-0.554l5.383,1.727c0.461,0.147,0.714,0.634,0.569,1.087L68.209,110.427z"/>
		</g>
		<g>
			<path fill="#005180" d="M67.385,111.397c-0.13,0-0.26-0.02-0.385-0.061l-5.384-1.727c-0.319-0.102-0.58-0.322-0.733-0.619
				c-0.151-0.292-0.179-0.625-0.078-0.938l3.743-11.674c0.204-0.636,0.919-1.004,1.565-0.797l5.384,1.727
				c0.655,0.209,1.019,0.908,0.812,1.558l-3.743,11.674C68.4,111.054,67.926,111.397,67.385,111.397z M65.729,96.273
				c-0.215,0-0.403,0.135-0.468,0.335l-3.743,11.674c-0.039,0.122-0.028,0.251,0.031,0.365c0.061,0.119,0.166,0.207,0.295,0.248
				l5.385,1.727c0.255,0.08,0.542-0.062,0.623-0.311l3.742-11.673c0.081-0.255-0.065-0.532-0.327-0.616l-5.383-1.727
				C65.834,96.281,65.782,96.273,65.729,96.273z"/>
		</g>
	</g>
	<g>
		<g>
			<circle fill="#005180" cx="64.049" cy="111.283" r="0.594"/>
		</g>
	</g>
</g>
<g>
	<g>
		<circle fill="#FEDEC1" cx="62.047" cy="105.132" r="1.965"/>
	</g>
	<g>
		<path fill="#005180" d="M62.047,107.498c-1.304,0-2.365-1.061-2.365-2.366s1.061-2.366,2.365-2.366
			c1.305,0,2.366,1.061,2.366,2.366S63.352,107.498,62.047,107.498z M62.047,103.566c-0.863,0-1.565,0.703-1.565,1.566
			s0.702,1.566,1.565,1.566c0.863,0,1.566-0.703,1.566-1.566S62.91,103.566,62.047,103.566z"/>
	</g>
</g>
<g>
	<g>
		<path fill="#FEDEC1" d="M70.257,109.325c-0.151,0.475-0.659,0.736-1.134,0.584l-1.61-0.517c-0.475-0.152-0.736-0.66-0.584-1.135
			l1.769-5.516c0.152-0.476,0.66-0.736,1.135-0.585l1.61,0.517c0.475,0.152,0.735,0.66,0.584,1.135L70.257,109.325z"/>
	</g>
	<g>
		<path fill="#005180" d="M69.399,110.352c-0.135,0-0.269-0.021-0.398-0.062l-1.61-0.517c-0.684-0.22-1.062-0.954-0.843-1.638
			l1.769-5.516c0.214-0.67,0.963-1.061,1.637-0.844l1.611,0.517c0.683,0.219,1.061,0.954,0.843,1.637l-1.77,5.517
			C70.465,109.988,69.967,110.352,69.399,110.352z M69.557,102.514c-0.219,0-0.412,0.141-0.479,0.35l-1.769,5.516
			c-0.084,0.264,0.062,0.547,0.325,0.632l1.61,0.517c0.264,0.084,0.548-0.067,0.631-0.325l1.77-5.517
			c0.084-0.264-0.062-0.547-0.325-0.632l-1.61-0.517C69.66,102.522,69.609,102.514,69.557,102.514z"/>
	</g>
</g>
<g>
	<g>
		<path fill="#C78672" d="M372.669,111.989c-3.753-2.571-7.917-5.229-6.411-7.272l1.803-2.604c3.328-6.005,7.745,2.43,11.497,4.997
			l17.231,6.796c3.751,2.566,7.138,10.884,5.631,12.921l0,0c-1.508,2.037-5.77,1.604-9.521-0.969L372.669,111.989z"/>
	</g>
	<g>
		<path fill="#005180" d="M399.262,128.61c-2.054,0-4.477-0.854-6.646-2.341l-20.864-14.301c-3.062-2.089-5.954-4.062-6.279-5.977
			c-0.097-0.567,0.032-1.096,0.383-1.572l1.794-2.592c0.846-1.531,1.903-2.329,3.117-2.329c1.977,0,3.966,2.126,5.89,4.182
			c1.055,1.128,2.146,2.293,3.139,2.985l17.276,6.827c2.877,1.968,5.521,7.137,6.096,10.546c0.238,1.415,0.122,2.453-0.345,3.084
			C402.112,128.082,400.848,128.61,399.262,128.61z M370.767,100.498c-0.835,0-1.576,0.607-2.269,1.856l-1.829,2.647
			c-0.197,0.268-0.261,0.525-0.211,0.823c0.255,1.496,3.231,3.526,5.857,5.318l20.866,14.303c2.007,1.376,4.223,2.165,6.08,2.165
			c0.893,0,2.095-0.188,2.756-1.082c0.287-0.388,0.347-1.234,0.163-2.323c-0.538-3.192-2.977-8.005-5.629-9.856l-17.276-6.827
			c-1.095-0.749-2.241-1.974-3.35-3.159C374.148,102.463,372.31,100.498,370.767,100.498z"/>
	</g>
</g>
<g>
	<g>
		<path fill="#FFFFFF" d="M25.655,71.607l0.287,1.331c0,0,2.343,3.446,4.467,1.757c2.124-1.688,3.197-1.553,3.197-2.246
			c0-0.692-2.448-1.555-2.448-1.555L25.655,71.607z"/>
	</g>
</g>
<g>
	<g>
		<path fill="#005180" d="M25.655,71.607c2.982-1.48,3.163-0.21,3.976-0.173c0.87,0.037-1.276-1.772,3.976,0.322l-4.159,0.692
			L25.655,71.607z"/>
	</g>
	<g>
		<path fill="#005180" d="M29.447,72.849c-0.029,0-0.058-0.003-0.087-0.009l-3.792-0.842c-0.166-0.037-0.29-0.174-0.31-0.342
			s0.067-0.331,0.219-0.407c1.026-0.509,1.842-0.757,2.496-0.757c0.615,0,0.995,0.217,1.273,0.376
			c0.097,0.056,0.173,0.099,0.241,0.126c0.014-0.15,0.057-0.306,0.187-0.436c0.144-0.145,0.347-0.215,0.621-0.215
			c0.364,0,1.119,0.108,3.46,1.042c0.167,0.066,0.269,0.236,0.249,0.415c-0.019,0.178-0.155,0.322-0.332,0.352l-4.159,0.692
			C29.491,72.847,29.469,72.849,29.447,72.849z M26.963,71.488l2.495,0.554l2.62-0.436c-0.87-0.307-1.468-0.462-1.783-0.462
			c-0.005,0-0.009-0.001-0.013-0.002c-0.003,0.189-0.023,0.373-0.17,0.522c-0.113,0.113-0.266,0.171-0.455,0.171
			c-0.358-0.015-0.597-0.152-0.808-0.272c-0.243-0.14-0.473-0.271-0.875-0.271C27.693,71.292,27.356,71.357,26.963,71.488z"/>
	</g>
</g>
<g>
	<g>
		<path fill="#005180" d="M33.606,72.449c-0.757,1.359-2.197,3.43-3.861,3.43c-1.667,0-3.047-1.581-3.803-2.94l3.688,1.578
			L33.606,72.449z"/>
	</g>
	<g>
		<path fill="#005180" d="M29.745,76.278c-2.229,0-3.742-2.408-4.152-3.146c-0.083-0.149-0.062-0.335,0.053-0.462
			c0.114-0.127,0.298-0.167,0.454-0.1l3.515,1.503l3.808-1.98c0.156-0.081,0.348-0.051,0.471,0.076
			c0.124,0.126,0.149,0.319,0.063,0.474C33.2,74.001,31.648,76.278,29.745,76.278z M27.027,73.837
			c0.731,0.906,1.69,1.642,2.718,1.642c1.045,0,2.032-1.025,2.729-1.99l-2.659,1.383c-0.106,0.054-0.232,0.06-0.342,0.013
			L27.027,73.837z"/>
	</g>
</g>
<g>
	<g>
		<g>
			<path fill="#D7E4F5" d="M380.248,107.174c0.199,0.583-0.129,1.223-0.733,1.43l-7.063,2.413c-0.605,0.207-1.254-0.1-1.455-0.682
				L365.859,95.3c-0.199-0.583,0.128-1.223,0.731-1.429l7.063-2.413c0.606-0.207,1.256,0.098,1.456,0.681L380.248,107.174z"/>
		</g>
		<g>
			<path fill="#005180" d="M372.065,111.457c-0.646,0-1.217-0.401-1.424-0.999l-5.137-15.037c-0.13-0.379-0.1-0.787,0.085-1.147
				c0.183-0.357,0.495-0.626,0.88-0.757l7.063-2.413c0.787-0.268,1.672,0.158,1.932,0.914l5.138,15.036
				c0.266,0.777-0.168,1.632-0.967,1.906l-7.063,2.413C372.408,111.428,372.237,111.457,372.065,111.457z M374.042,91.769
				c-0.09,0-0.18,0.015-0.267,0.045l-7.063,2.413c-0.199,0.068-0.36,0.206-0.454,0.389c-0.091,0.179-0.106,0.379-0.044,0.564
				l5.137,15.035c0.129,0.374,0.574,0.584,0.979,0.448l7.063-2.413c0.407-0.14,0.632-0.567,0.5-0.954l-5.138-15.035
				C374.654,91.966,374.368,91.769,374.042,91.769z"/>
		</g>
	</g>
	<g>
		<g>
			<path fill="#2EB4E8" d="M378.436,105.501c0.153,0.452-0.091,0.943-0.55,1.101l-5.371,1.835c-0.459,0.157-0.955-0.081-1.109-0.533
				l-3.98-11.648c-0.154-0.452,0.091-0.943,0.551-1.102l5.37-1.835c0.46-0.157,0.954,0.083,1.109,0.534L378.436,105.501z"/>
		</g>
		<g>
			<path fill="#005180" d="M372.226,108.86c-0.532,0-1.005-0.335-1.175-0.835l-3.98-11.648c-0.221-0.646,0.131-1.353,0.783-1.577
				l5.371-1.835c0.642-0.219,1.368,0.137,1.585,0.767l3.98,11.649c0.22,0.646-0.132,1.354-0.783,1.577l-5.371,1.835
				C372.503,108.837,372.365,108.86,372.226,108.86z M373.634,93.646c-0.057,0-0.112,0.01-0.167,0.028l-5.37,1.835
				c-0.262,0.09-0.404,0.371-0.317,0.625l3.98,11.648c0.086,0.249,0.376,0.39,0.634,0.299l5.371-1.835
				c0.261-0.089,0.402-0.37,0.315-0.625l-3.979-11.648C374.032,93.778,373.845,93.646,373.634,93.646z"/>
		</g>
	</g>
	<g>
		<g>
			<circle fill="#005180" cx="375.597" cy="108.682" r="0.596"/>
		</g>
	</g>
</g>
<g>
	<g>
		<path fill="#C78672" d="M380.188,111.056c-0.953,0.548-2.237-0.463-2.869-2.262c-0.63-1.796-0.371-3.696,0.581-4.242
			c0.95-0.545,2.234,0.469,2.864,2.264C381.398,108.613,381.14,110.51,380.188,111.056z"/>
	</g>
	<g>
		<path fill="#005180" d="M379.635,111.705c-1.091,0-2.211-1.103-2.787-2.745c-0.718-2.045-0.364-4.172,0.804-4.841
			c0.247-0.142,0.516-0.214,0.799-0.214c1.09,0,2.21,1.104,2.786,2.746c0.721,2.042,0.37,4.168-0.799,4.839
			C380.189,111.633,379.919,111.705,379.635,111.705z M378.45,104.905c-0.107,0-0.206,0.027-0.301,0.081
			c-0.645,0.37-0.95,1.957-0.358,3.643c0.572,1.63,1.559,2.335,2.148,1.994c0.645-0.37,0.948-1.956,0.354-3.64
			C379.814,105.618,379.004,104.905,378.45,104.905z"/>
	</g>
</g>
<g>
	<g>
		<line fill="#0084CB" x1="72.026" y1="103.808" x2="146.796" y2="103.808"/>
	</g>
	<g>
		<rect x="72.026" y="103.308" fill="#005180" width="74.77" height="1"/>
	</g>
</g>
<g>
	<g>
		<line fill="#0084CB" x1="297.371" y1="104.933" x2="365.801" y2="104.933"/>
	</g>
	<g>
		<rect x="297.371" y="104.433" fill="#005180" width="68.43" height="1"/>
	</g>
</g>
<g>
	<g>
		<rect x="8.168" y="12.936" fill="#F27A9F" width="11.555" height="3.5"/>
	</g>
	<g>
		<path fill="#005180" d="M20.223,16.936H7.668v-4.5h12.555V16.936z M8.668,15.936h10.555v-2.5H8.668V15.936z"/>
	</g>
</g>
<g>
	<g>
		<path fill="#F27A9F" d="M37.769,9.236h-7.057l-0.392,2.8c0.392-0.056,0.729-0.056,1.176-0.056c1.736,0,3.5,0.392,4.788,1.316
			c1.372,0.924,2.212,2.436,2.212,4.564c0,3.388-2.912,6.384-7.812,6.384c-2.212,0-4.061-0.504-5.068-1.036l0.756-3.192
			c0.812,0.392,2.464,0.896,4.116,0.896c1.764,0,3.64-0.84,3.64-2.772c0-1.876-1.483-3.024-5.123-3.024
			c-1.009,0-1.708,0.056-2.465,0.168l1.204-9.548h10.024V9.236z"/>
		<path fill="#005180" d="M30.685,24.744c-2.382,0-4.3-0.565-5.302-1.094l-0.342-0.181l0.988-4.174l0.561,0.271
			c0.845,0.408,2.425,0.846,3.899,0.846c1.166,0,3.14-0.479,3.14-2.272c0-0.624,0-2.524-4.623-2.524
			c-0.92,0-1.613,0.047-2.392,0.163l-0.652,0.097l1.342-10.639h10.965v4.5h-7.122l-0.245,1.75c0.188-0.006,0.38-0.006,0.594-0.006
			c2.008,0,3.812,0.5,5.08,1.41c1.579,1.063,2.42,2.785,2.42,4.97C38.996,21.281,36.141,24.744,30.685,24.744z M26.196,22.931
			c0.96,0.418,2.545,0.813,4.489,0.813c4.8,0,7.312-2.96,7.312-5.884c0-1.863-0.67-3.259-1.991-4.149
			c-1.111-0.796-2.708-1.23-4.509-1.23c-0.435,0-0.749,0-1.105,0.051l-0.658,0.094l0.544-3.889h6.992v-2.5h-9.083l-1.068,8.47
			c0.589-0.063,1.175-0.09,1.888-0.09c3.731,0,5.623,1.186,5.623,3.524c0,2.248-2.146,3.272-4.14,3.272
			c-1.357,0-2.767-0.325-3.766-0.704L26.196,22.931z"/>
	</g>
</g>
<g>
	<g>
		<path fill="#BFD852" d="M438.335,9.236h-7.057l-0.392,2.8c0.392-0.056,0.729-0.056,1.176-0.056c1.736,0,3.5,0.392,4.788,1.316
			c1.372,0.924,2.212,2.436,2.212,4.564c0,3.388-2.912,6.384-7.812,6.384c-2.212,0-4.061-0.504-5.068-1.036l0.756-3.192
			c0.812,0.392,2.464,0.896,4.116,0.896c1.764,0,3.64-0.84,3.64-2.772c0-1.876-1.483-3.024-5.123-3.024
			c-1.009,0-1.708,0.056-2.465,0.168l1.204-9.548h10.024V9.236z"/>
		<path fill="#005180" d="M431.251,24.744c-2.382,0-4.301-0.565-5.302-1.094l-0.343-0.181l0.989-4.174l0.561,0.271
			c0.844,0.408,2.425,0.846,3.898,0.846c1.166,0,3.14-0.479,3.14-2.272c0-0.624,0-2.524-4.623-2.524
			c-0.921,0-1.613,0.047-2.392,0.163l-0.651,0.097l1.342-10.639h10.965v4.5h-7.122l-0.244,1.75c0.188-0.006,0.38-0.006,0.594-0.006
			c2.008,0,3.812,0.5,5.079,1.41c1.58,1.063,2.421,2.785,2.421,4.97C439.562,21.281,436.708,24.744,431.251,24.744z M426.762,22.931
			c0.961,0.418,2.546,0.813,4.489,0.813c4.8,0,7.312-2.96,7.312-5.884c0-1.863-0.67-3.259-1.991-4.149
			c-1.111-0.796-2.708-1.23-4.509-1.23c-0.435,0-0.748,0-1.104,0.051l-0.658,0.094l0.544-3.889h6.991v-2.5h-9.084l-1.067,8.47
			c0.589-0.063,1.174-0.09,1.888-0.09c3.731,0,5.623,1.186,5.623,3.524c0,2.248-2.146,3.272-4.14,3.272
			c-1.356,0-2.768-0.325-3.767-0.704L426.762,22.931z"/>
	</g>
</g>
<g>
	<g>
		<polygon fill="#BFD852" points="420.289,12.936 416.084,12.936 416.084,8.909 412.584,8.909 412.584,12.936 408.734,12.936 
			408.734,16.436 412.584,16.436 412.584,20.463 416.084,20.463 416.084,16.436 420.289,16.436 		"/>
	</g>
	<g>
		<path fill="#005180" d="M416.584,20.963h-4.5v-4.027h-3.85v-4.5h3.85V8.409h4.5v4.027h4.205v4.5h-4.205V20.963z M413.084,19.963
			h2.5v-4.027h4.205v-2.5h-4.205V9.409h-2.5v4.027h-3.85v2.5h3.85V19.963z"/>
	</g>
</g>
<g opacity="0.07">
	<g>
		<g>
			<path d="M21.147,115.432c0.27,1.24,0.304,5.046,0.057,6.618c-0.076,0.48-0.611,1.816-1.386,3.582l9.296,1.537V35.658
				c-0.034,0.001-0.069,0.003-0.104,0.004c-7.61,0.066-13.585,3.391-15.73,8.898c-0.62,1.396-0.978,2.916-0.978,4.544
				c0,1.692-0.321,3.348-0.768,6.121c-0.386-0.013-0.779,0.14-1.17,0.495c-0.461,0.422,0.14,1.096,0.769,2.211
				c-0.486,5.017,0.479,9.004-1.274,12.461c-2.86,5.635-1.87,7.737-0.768,10.176c1.104,2.439,2.283,3.575,2.283,3.575l6.511,6.905
				c-2.148,1.225-5.759,3.679-5.576,5.226l-2.784,22.634c-0.181,0.127-0.304,0.266-0.314,0.42l-0.215,9.538l0.482,10.031
				l-2.402,1.531c-0.041,0.649-0.131,4.349,0.407,4.802l5.536,1.533c0.761-0.369,0.438-2.561,0.484-3.171l-0.437-1.046
				c1.034-0.058,1.858-0.908,1.858-1.956c0-1.085-0.881-1.966-1.966-1.966c-0.507,0-0.964,0.197-1.312,0.512l-0.188-0.451
				l1.459-16.764c0.025-0.401-0.135-1.685-0.414-2.613l3.727-15.973C18.189,107.044,20.324,111.628,21.147,115.432z"/>
		</g>
	</g>
	<g>
		<g>
			<path d="M29.114,140.59v-13.421l-9.571-1.582c-0.471,1.044-2.096,2.469-2.096,6.937c0,8.017,11.667,93.89,11.667,93.89V140.59z"
				/>
		</g>
	</g>
</g>
<g>
	<g opacity="0.07">
		<g>
			<path d="M368.061,101.333l-1.803,2.604c-1.268,1.721,1.483,3.876,4.624,6.049L368.061,101.333z"/>
		</g>
	</g>
	<g opacity="0.07">
		<g>
			<path d="M425.812,44.551c-7.018,0.585-12.005,3.362-12.005,3.362s-4.126,2.943-6.214,3.516s-4.823,2.275-4.823,2.275
				s1.22,0.831,2.288,3.693c1.068,2.861,1.642,7.195,1.642,7.195s2.692-6.296,3.952-7.682c0.502-0.551,1.605-1.104,3.053-1.553
				c-3.491,2.449-5.988,6.375-6.75,10.721c-0.837-0.854-1.791-1.082-2.728-0.227c-0.792,0.721,1.309,2.125,1.838,5.049
				c0.225,1.254-1.062,4.542,0.635,4.783v0.111c0,4.72,2.113,10.799,5.46,15.203c-1.024,0.621-2.001,1.432-2.919,2.409
				c-0.677-2.357-2.622-3.865-5.19-3.664c-3.617,0.28-7.094,3.841-7.762,7.944l-2.331,14.32l-12.965-5.113
				c-0.057-0.285-0.127-0.572-0.228-0.858c-0.63-1.796-1.914-2.81-2.864-2.265c0.162,0.314-0.686,2.414-0.926,4.713
				c-0.06,0.57,0.131,0.85,0.376,0.971c1.44-0.304,0.579,0.287,0,0c-0.396,0.084-0.95,0.229-1.753,0.486
				c-1.817,0.583-2.916,0.789-3.585,0.818c0.22,0.15,0.438,0.3,0.656,0.449l20.23,13.867c3.751,2.572,8.013,3.006,9.521,0.969
				c0.127-0.171,0.207-0.4,0.268-0.654l2.763,16.105c0,7.119,0.241,11.256,1.286,13.66c-1.376,2.559-2.192,5.814-2.152,9.321
				l0.485,41.488c0.021,1.888,0.293,3.672,0.758,5.294c-0.436,0.172-0.696,0.451-0.724,0.898l1.52,8.4
				c-8.062,1.121-7.474,4.328-3.975,5.448c3.094,0.99,8.558-0.036,10.988-0.003c5.178,0.078,9.474-1.425,9.589-3.353l0.628-10.218
				c0.034-0.559-0.294-0.869-0.89-1.037c0.641-1.979,0.996-4.194,0.969-6.524l-0.479-41.071h2.358V44.551z"/>
		</g>
	</g>
</g>
<g>
	<g>
		<polygon fill="#FFFFFF" points="205.966,61.614 205.966,144.764 270.299,151.341 270.299,67.695 		"/>
	</g>
	<g>
		<path fill="#005180" d="M270.799,151.895l-65.333-6.68V61.064l65.333,6.175V151.895z M206.466,144.313l63.333,6.475V68.15
			l-63.333-5.987V144.313z"/>
	</g>
</g>
<g>
	<g>
		<g>
			<path fill="#005180" d="M210.708,76.561l-1.648-0.144v-0.596l4.014,0.351v0.596l-1.657-0.145v4.826l-0.708-0.062V76.561z"/>
		</g>
	</g>
	<g>
		<g>
			<path fill="#005180" d="M215.292,81.788l-0.058-0.494l-0.023-0.002c-0.218,0.285-0.636,0.522-1.191,0.474
				c-0.787-0.069-1.189-0.659-1.189-1.222c0-0.941,0.837-1.383,2.341-1.243v-0.08c0-0.322-0.089-0.909-0.885-0.979
				c-0.363-0.032-0.74,0.049-1.015,0.201l-0.16-0.481c0.322-0.181,0.788-0.277,1.278-0.233c1.191,0.104,1.48,0.941,1.48,1.722v1.456
				c0,0.337,0.016,0.668,0.064,0.938L215.292,81.788z M215.187,79.792c-0.771-0.084-1.648-0.024-1.648,0.731
				c0,0.459,0.306,0.703,0.667,0.734c0.507,0.045,0.828-0.249,0.941-0.568c0.024-0.07,0.04-0.149,0.04-0.222V79.792z"/>
		</g>
	</g>
	<g>
		<g>
			<path fill="#005180" d="M217.711,79.893l0.016,0.001c0.096-0.128,0.233-0.286,0.345-0.412l1.143-1.243l0.853,0.075l-1.504,1.468
				l1.713,2.442l-0.86-0.075l-1.344-1.983l-0.36,0.371V82l-0.7-0.062v-5.71l0.7,0.062V79.893z"/>
		</g>
	</g>
	<g>
		<g>
			<path fill="#005180" d="M221.174,80.485c0.016,0.959,0.627,1.406,1.334,1.468c0.507,0.045,0.813-0.018,1.079-0.106l0.12,0.519
				c-0.249,0.089-0.675,0.182-1.295,0.126c-1.198-0.104-1.913-0.955-1.913-2.129c0-1.175,0.69-2.039,1.825-1.939
				c1.271,0.111,1.608,1.259,1.608,1.974c0,0.145-0.016,0.257-0.025,0.328L221.174,80.485z M223.248,80.16
				c0.008-0.45-0.185-1.166-0.981-1.236c-0.715-0.062-1.029,0.57-1.085,1.056L223.248,80.16z"/>
		</g>
	</g>
	<g>
		<g>
			<path fill="#005180" d="M229.406,78.39l-1.994-0.174l-0.2,1.325c0.119-0.007,0.231-0.012,0.426,0.005
				c0.401,0.036,0.804,0.159,1.126,0.38c0.409,0.27,0.748,0.749,0.748,1.408c0,1.022-0.813,1.715-1.947,1.616
				c-0.57-0.05-1.053-0.254-1.303-0.437l0.177-0.523c0.218,0.148,0.645,0.347,1.118,0.389c0.668,0.058,1.238-0.328,1.238-1.027
				c-0.008-0.676-0.457-1.197-1.504-1.289c-0.297-0.025-0.53-0.015-0.724-0.007l0.338-2.48l2.501,0.219V78.39z"/>
		</g>
	</g>
	<g>
		<g>
			<path fill="#005180" d="M232.412,83.287v-3.354l-0.548-0.049v-0.538l0.548,0.049v-0.186c0-0.547,0.121-1.035,0.45-1.32
				c0.265-0.235,0.619-0.308,0.949-0.278c0.249,0.021,0.467,0.096,0.604,0.164l-0.097,0.539c-0.104-0.058-0.25-0.11-0.451-0.128
				c-0.604-0.053-0.756,0.465-0.756,1.06v0.21l0.941,0.083v0.538l-0.941-0.083v3.354L232.412,83.287z"/>
		</g>
	</g>
	<g>
		<g>
			<path fill="#005180" d="M234.688,80.807c0-0.459-0.009-0.854-0.033-1.217l0.619,0.054l0.024,0.766l0.032,0.002
				c0.177-0.507,0.603-0.8,1.077-0.758c0.081,0.008,0.137,0.021,0.202,0.042v0.668c-0.073-0.023-0.145-0.037-0.242-0.046
				c-0.498-0.044-0.853,0.304-0.949,0.826c-0.016,0.096-0.031,0.206-0.031,0.327v2.075l-0.699-0.062V80.807z"/>
		</g>
	</g>
	<g>
		<g>
			<path fill="#005180" d="M240.758,82.038c0,1.439-0.997,1.979-1.939,1.898c-1.053-0.094-1.864-0.937-1.864-2.167
				c0-1.304,0.852-1.992,1.93-1.897C240.002,79.969,240.758,80.847,240.758,82.038z M237.669,81.808c0,0.853,0.49,1.539,1.183,1.6
				c0.676,0.06,1.182-0.533,1.182-1.41c0-0.659-0.33-1.525-1.166-1.598C238.031,80.327,237.669,81.068,237.669,81.808z"/>
		</g>
	</g>
	<g>
		<g>
			<path fill="#005180" d="M241.648,81.254c0-0.401-0.01-0.732-0.033-1.056l0.619,0.054l0.032,0.631l0.024,0.001
				c0.217-0.352,0.579-0.664,1.222-0.608c0.532,0.046,0.934,0.403,1.103,0.877l0.016,0.002c0.121-0.208,0.274-0.364,0.436-0.469
				c0.233-0.157,0.49-0.231,0.86-0.199c0.515,0.045,1.278,0.45,1.278,1.802v2.292l-0.691-0.061v-2.204
				c0-0.748-0.273-1.222-0.845-1.272c-0.402-0.035-0.716,0.235-0.836,0.57c-0.032,0.094-0.058,0.22-0.058,0.35v2.404l-0.69-0.061
				v-2.333c0-0.619-0.273-1.094-0.812-1.141c-0.442-0.039-0.765,0.287-0.876,0.632c-0.041,0.101-0.058,0.22-0.058,0.341v2.348
				l-0.69-0.061V81.254z"/>
		</g>
	</g>
	<g>
		<g>
			<path fill="#005180" d="M250.957,83.204l-0.562,1.656l-0.725-0.064l1.843-5.26l0.844,0.074l1.85,5.583l-0.748-0.065l-0.578-1.756
				L250.957,83.204z M252.734,82.812l-0.531-1.606c-0.12-0.365-0.2-0.693-0.281-1.015l-0.016-0.002
				c-0.081,0.315-0.17,0.637-0.273,0.958l-0.531,1.522L252.734,82.812z"/>
		</g>
	</g>
	<g>
		<g>
			<path fill="#005180" d="M254.952,79.547l0.707,0.062v5.711l-0.707-0.062V79.547z"/>
		</g>
	</g>
	<g>
		<g>
			<path fill="#005180" d="M257.637,80.506c0.009,0.242-0.168,0.419-0.45,0.395c-0.25-0.021-0.426-0.229-0.426-0.472
				c0-0.249,0.186-0.426,0.441-0.403C257.469,80.048,257.637,80.257,257.637,80.506z M256.85,85.423v-3.893l0.708,0.062v3.893
				L256.85,85.423z"/>
		</g>
	</g>
	<g>
		<g>
			<path fill="#005180" d="M261.505,85.686c-0.186,0.081-0.596,0.174-1.118,0.128c-1.175-0.104-1.938-0.966-1.938-2.156
				c0-1.198,0.82-1.995,2.091-1.885c0.418,0.037,0.788,0.173,0.981,0.287l-0.16,0.533c-0.17-0.111-0.436-0.224-0.821-0.257
				c-0.893-0.078-1.375,0.539-1.375,1.353c0,0.9,0.579,1.506,1.352,1.573c0.401,0.035,0.667-0.047,0.868-0.116L261.505,85.686z"/>
		</g>
	</g>
	<g>
		<g>
			<path fill="#005180" d="M262.677,84.116c0.016,0.959,0.627,1.406,1.334,1.469c0.507,0.043,0.813-0.019,1.079-0.107l0.12,0.518
				c-0.249,0.091-0.675,0.183-1.295,0.128c-1.198-0.104-1.914-0.956-1.914-2.13s0.691-2.039,1.826-1.939
				c1.271,0.111,1.608,1.259,1.608,1.975c0,0.145-0.016,0.257-0.024,0.327L262.677,84.116z M264.751,83.791
				c0.008-0.449-0.185-1.166-0.981-1.235c-0.715-0.062-1.029,0.569-1.085,1.054L264.751,83.791z"/>
		</g>
	</g>
</g>
<g>
	<g>
		<g>
			<path fill="#005180" d="M217.407,90.191c-0.335,0.09-1.001,0.231-1.784,0.163c-0.881-0.077-1.605-0.365-2.176-0.958
				c-0.5-0.528-0.811-1.331-0.811-2.236c0.009-1.735,1.199-2.898,3.149-2.728c0.672,0.059,1.199,0.252,1.449,0.394l-0.181,0.597
				c-0.311-0.163-0.699-0.312-1.285-0.361c-1.416-0.125-2.339,0.675-2.339,2.133c0,1.476,0.889,2.424,2.244,2.544
				c0.49,0.042,0.827,0.002,1-0.067v-1.735l-1.183-0.104v-0.604l1.915,0.168V90.191z"/>
		</g>
	</g>
	<g>
		<g>
			<path fill="#005180" d="M219.372,85.272c0.01,0.261-0.18,0.451-0.482,0.425c-0.269-0.024-0.457-0.247-0.457-0.508
				c0-0.268,0.198-0.456,0.474-0.433C219.192,84.782,219.372,85.004,219.372,85.272z M218.527,90.546v-4.175l0.76,0.067v4.174
				L218.527,90.546z"/>
		</g>
	</g>
	<g>
		<g>
			<path fill="#005180" d="M220.837,86.574l0.82,2.42c0.138,0.39,0.251,0.744,0.336,1.098l0.026,0.003
				c0.095-0.337,0.215-0.672,0.354-1.039l0.811-2.275l0.794,0.069l-1.64,4.031l-0.725-0.062l-1.587-4.315L220.837,86.574z"/>
		</g>
	</g>
	<g>
		<g>
			<path fill="#005180" d="M225.028,89.166c0.018,1.029,0.673,1.509,1.432,1.575c0.544,0.048,0.872-0.018,1.157-0.114l0.129,0.556
				c-0.268,0.096-0.725,0.195-1.39,0.138c-1.284-0.113-2.053-1.026-2.053-2.286s0.742-2.187,1.959-2.08
				c1.363,0.119,1.725,1.35,1.725,2.117c0,0.155-0.017,0.275-0.026,0.352L225.028,89.166z M227.254,88.817
				c0.008-0.48-0.198-1.249-1.053-1.325c-0.767-0.066-1.104,0.611-1.164,1.132L227.254,88.817z"/>
		</g>
	</g>
	<g>
		<g>
			<path fill="#005180" d="M233.859,86.919l-2.139-0.187l-0.216,1.421c0.129-0.006,0.249-0.013,0.458,0.006
				c0.431,0.038,0.862,0.171,1.207,0.407c0.439,0.289,0.803,0.805,0.803,1.513c0,1.096-0.872,1.838-2.088,1.732
				c-0.613-0.055-1.131-0.272-1.398-0.469l0.19-0.562c0.233,0.159,0.69,0.371,1.199,0.416c0.716,0.062,1.327-0.35,1.327-1.101
				c-0.008-0.726-0.49-1.285-1.612-1.384c-0.319-0.027-0.569-0.016-0.776-0.007l0.362-2.661l2.683,0.234V86.919z"/>
		</g>
	</g>
	<g>
		<g>
			<path fill="#005180" d="M237.919,86.87v1.199l1.087,0.095v0.577l-1.087-0.095v2.252c0,0.518,0.147,0.823,0.569,0.86
				c0.199,0.017,0.346,0.005,0.44-0.013l0.035,0.573c-0.147,0.047-0.38,0.07-0.674,0.045c-0.354-0.031-0.64-0.17-0.819-0.393
				c-0.215-0.242-0.293-0.621-0.293-1.111v-2.278l-0.647-0.057v-0.577l0.647,0.057v-1.002L237.919,86.87z"/>
		</g>
	</g>
	<g>
		<g>
			<path fill="#005180" d="M243.587,90.618c0,1.544-1.069,2.123-2.081,2.035c-1.129-0.1-2-1.004-2-2.323
				c0-1.398,0.914-2.137,2.07-2.036C242.775,88.399,243.587,89.34,243.587,90.618z M240.273,90.372c0,0.914,0.526,1.65,1.269,1.715
				c0.726,0.063,1.268-0.571,1.268-1.512c0-0.708-0.354-1.636-1.252-1.715C240.662,88.783,240.273,89.578,240.273,90.372z"/>
		</g>
	</g>
	<g>
		<g>
			<path fill="#005180" d="M246.395,87.249c0.328-0.041,0.846-0.049,1.371-0.001c0.751,0.064,1.234,0.237,1.597,0.562
				c0.302,0.25,0.483,0.611,0.483,1.068c0,0.561-0.372,1.02-0.984,1.19v0.018c0.553,0.188,1.2,0.701,1.2,1.563
				c0,0.5-0.199,0.862-0.493,1.122c-0.404,0.335-1.061,0.45-2.01,0.367c-0.517-0.046-0.914-0.115-1.164-0.17V87.249z
				 M247.145,89.695l0.683,0.06c0.792,0.069,1.26-0.303,1.26-0.863c0-0.683-0.519-0.995-1.277-1.062
				c-0.346-0.03-0.545-0.023-0.665-0.007V89.695z M247.145,92.483c0.147,0.037,0.362,0.064,0.631,0.087
				c0.775,0.069,1.492-0.152,1.492-0.998c0-0.794-0.681-1.183-1.502-1.254l-0.621-0.054V92.483z"/>
		</g>
	</g>
	<g>
		<g>
			<path fill="#005180" d="M254.855,91.603c0,1.544-1.069,2.124-2.08,2.035c-1.129-0.098-1.999-1.003-1.999-2.322
				c0-1.398,0.913-2.138,2.069-2.036C254.046,89.383,254.855,90.326,254.855,91.603z M251.543,91.357
				c0,0.914,0.525,1.651,1.269,1.716c0.725,0.062,1.267-0.571,1.267-1.512c0-0.707-0.353-1.636-1.25-1.715
				C251.932,89.769,251.543,90.563,251.543,91.357z"/>
		</g>
	</g>
	<g>
		<g>
			<path fill="#005180" d="M255.776,93.806c0.017-0.284,0.035-0.704,0.035-1.074v-5.048l0.749,0.064v2.623l0.019,0.003
				c0.267-0.443,0.751-0.703,1.423-0.645c1.035,0.091,1.769,1.019,1.76,2.285c0,1.492-0.939,2.152-1.872,2.071
				c-0.604-0.054-1.088-0.328-1.397-0.908l-0.025-0.003l-0.034,0.688L255.776,93.806z M256.561,92.201
				c0,0.095,0.019,0.191,0.035,0.279c0.146,0.539,0.587,0.941,1.14,0.989c0.793,0.068,1.268-0.537,1.268-1.494
				c0-0.837-0.432-1.59-1.243-1.661c-0.518-0.046-1.001,0.266-1.155,0.831c-0.018,0.083-0.044,0.184-0.044,0.305V92.201z"/>
		</g>
	</g>
</g>
<g>
	<g>
		<path fill="#F27A9F" d="M246.958,142.941c-8.184,0-14.841-7.416-14.841-16.531c0-9.113,6.657-16.528,14.841-16.528
			s14.841,7.415,14.841,16.528C261.799,135.525,255.142,142.941,246.958,142.941z M246.958,110.631
			c-7.77,0-14.091,7.078-14.091,15.778c0,8.702,6.321,15.781,14.091,15.781s14.091-7.079,14.091-15.781
			C261.049,117.709,254.728,110.631,246.958,110.631z"/>
	</g>
</g>
<g>
	<g>
		<path fill="#F27A9F" d="M247.207,145.75c-9.607,0-17.424-8.676-17.424-19.34c0-10.664,7.816-19.339,17.424-19.339
			c9.605,0,17.42,8.675,17.42,19.339C264.627,137.075,256.812,145.75,247.207,145.75z M247.207,109.072
			c-8.505,0-15.424,7.778-15.424,17.339c0,9.562,6.919,17.34,15.424,17.34c8.503,0,15.42-7.778,15.42-17.34
			C262.627,116.85,255.71,109.072,247.207,109.072z"/>
	</g>
</g>
<g>
	<g>
		<path fill="#F27A9F" d="M246.959,125.73c-0.888-0.077-1.69,0.211-2.279,0.737c0.031,0.003,0.049-0.008,0.079-0.002
			c0.216,0.035,0.459,0.16,0.73,0.376l4.397,3.467c0.037,0.028,0.059,0.056,0.092,0.084c0.138-0.349,0.223-0.726,0.223-1.135
			C250.201,127.468,248.746,125.885,246.959,125.73z M244.867,127.766c-0.3-0.234-0.497-0.455-0.589-0.658
			c-0.021-0.053-0.021-0.091-0.034-0.141c-0.331,0.484-0.53,1.072-0.53,1.723c0,1.787,1.454,3.373,3.245,3.529
			c0.973,0.085,1.835-0.281,2.431-0.908c-0.057-0.039-0.107-0.066-0.167-0.112L244.867,127.766z M253.28,124.298l-0.009-0.001
			v-2.549c0-3.526-2.857-6.634-6.383-6.941c-3.523-0.309-6.383,2.298-6.383,5.825v2.562c-0.529,0.02-0.941,0.429-0.941,0.976v8.93
			c0,0.591,0.48,1.112,1.071,1.164l12.645,1.106c0.591,0.052,1.071-0.386,1.071-0.978v-8.93
			C254.352,124.872,253.871,124.351,253.28,124.298z M250.484,131.46c-0.003,0.01-0.003,0.021-0.007,0.028
			c-0.003,0.001-0.009,0.001-0.011,0.005c-0.735,1.101-2.031,1.77-3.508,1.642c-2.294-0.202-4.162-2.231-4.162-4.525
			c0-2.293,1.868-3.993,4.162-3.794c2.293,0.2,4.158,2.229,4.158,4.522C251.117,130.138,250.88,130.861,250.484,131.46z
			 M251.155,124.113l-8.532-0.748v-2.344c0-2.361,1.908-4.1,4.266-3.895c2.357,0.207,4.267,2.281,4.267,4.642V124.113z"/>
	</g>
</g>
<g>
	<g>
		<g>
			<path fill="#2EB4E8" d="M201.803,131.933l9.166,6.798c3.761,2.792,11.801-1.674,17.956-9.968
				c6.153-8.298,8.094-17.287,4.332-20.077l-9.169-6.798L201.803,131.933z"/>
		</g>
		<g>
			<path fill="#005180" d="M213.721,140.063L213.721,140.063c-1.192,0-2.219-0.313-3.05-0.931l-9.568-7.096l22.881-30.848
				l9.571,7.095c4.044,3,2.187,12.125-4.228,20.777C224.443,135.641,218.171,140.063,213.721,140.063z M202.502,131.83l8.764,6.5
				c0.655,0.486,1.481,0.733,2.454,0.733c4.149,0,10.098-4.259,14.803-10.598c5.878-7.927,7.909-16.801,4.436-19.378l-8.767-6.5
				L202.502,131.83z"/>
		</g>
	</g>
	<g>
		<g>
			
				<ellipse transform="matrix(0.5957 -0.8032 0.8032 0.5957 -7.8146 218.2953)" fill="#D7E4F5" cx="212.945" cy="116.911" rx="18.704" ry="8.483"/>
		</g>
		<g>
			<path fill="#005180" d="M204.556,133.265c-1.192,0-2.219-0.313-3.051-0.931c-1.987-1.474-2.606-4.485-1.744-8.48
				c0.833-3.859,2.954-8.226,5.972-12.294c4.884-6.582,11.155-11.003,15.604-11.003c1.192,0,2.218,0.313,3.049,0.93
				c1.988,1.473,2.608,4.484,1.746,8.48c-0.833,3.86-2.953,8.226-5.972,12.294C215.28,128.842,209.009,133.265,204.556,133.265z
				 M221.336,101.557c-4.148,0-10.096,4.259-14.801,10.599c-2.935,3.957-4.994,8.186-5.797,11.909
				c-0.775,3.589-0.291,6.24,1.362,7.467c0.656,0.486,1.482,0.733,2.456,0.733c4.152,0,10.1-4.26,14.801-10.6
				c2.936-3.956,4.994-8.186,5.797-11.91c0.774-3.589,0.29-6.24-1.364-7.466C223.134,101.803,222.309,101.557,221.336,101.557z"/>
		</g>
	</g>
	<g>
		<g>
			<path fill="#2EB4E8" d="M185.76,76.778l-0.011,0.013c-0.099-0.076-0.188-0.163-0.291-0.239
				c-7.113-5.277-17.156-3.788-22.436,3.327c-5.275,7.113-3.786,17.156,3.326,22.434c0.103,0.077,0.211,0.139,0.314,0.212
				l-0.009,0.014l0.082,0.033c0.774,0.542,1.576,1.019,2.403,1.407c1.435,0.669,2.941,1.093,4.462,1.316l15.586,6.178
				c8.964,4.558,17.278,9.378,18.944,10.614c1.661,1.234,6.342-4.044,6.342-4.044s3.694-6.01,2.029-7.245
				c-1.665-1.234-8.691-7.792-15.651-15.049L190.448,82.67c-1.028-2.215-2.59-4.217-4.628-5.822L185.76,76.778z"/>
		</g>
		<g>
			<path fill="#005180" d="M208.744,122.774L208.744,122.774c-0.349,0-0.655-0.097-0.911-0.286
				c-1.66-1.231-10.034-6.076-18.873-10.57l-15.49-6.138c-1.615-0.243-3.144-0.696-4.543-1.349
				c-0.804-0.378-1.622-0.855-2.432-1.418l-0.507-0.206l0.047-0.104c-7.31-5.433-8.844-15.803-3.416-23.123
				c3.107-4.188,8.078-6.688,13.296-6.688c3.535,0,6.909,1.107,9.766,3.203l0.063-0.075l0.393,0.431
				c2.021,1.603,3.662,3.66,4.738,5.954l10.366,13.032c6.827,7.115,13.893,13.724,15.558,14.958c1.935,1.436-1.244,6.84-1.901,7.909
				C214.448,118.825,210.885,122.774,208.744,122.774z M166.998,102.148l0.025,0.013c0.779,0.545,1.562,1.004,2.329,1.364
				c1.327,0.619,2.782,1.048,4.322,1.274l0.111,0.03l15.586,6.178c8.927,4.536,17.371,9.426,19.058,10.678
				c0.081,0.06,0.183,0.089,0.314,0.089c1.277,0,3.962-2.492,5.355-4.063c1.396-2.286,2.951-5.884,2.105-6.512
				c-1.691-1.254-8.822-7.918-15.714-15.104l-10.496-13.214c-1.009-2.174-2.56-4.125-4.484-5.64l-0.067-0.055
				c-0.051-0.04-0.101-0.082-0.15-0.124c-0.042-0.037-0.085-0.074-0.132-0.108c-2.7-2.003-5.896-3.061-9.245-3.061
				c-4.903,0-9.574,2.349-12.493,6.283c-5.102,6.88-3.656,16.63,3.223,21.734c0.051,0.038,0.101,0.07,0.151,0.102L166.998,102.148z"
				/>
		</g>
	</g>
</g>
</svg>
